<?xml version='1.0' encoding='UTF-8' standalone='no'?>
<!-- Created with Fritzing (http://www.fritzing.org/) -->
<svg xmlns="http://www.w3.org/2000/svg" height="0.433071in" width="1.0748in" x="0in" version="1.2" y="0in"  baseProfile="tiny" viewBox="0 0 77.3858 31.1811" xmlns:svg="http://www.w3.org/2000/svg">
 <g transform="matrix(-1, 0, 0, 1, 77.3858, 0)">
  <g partID="68250">
   <g  id="board">
    <rect height="30.6051" width="76.8098" x="0.288" y="0.288"  stroke-width="0.5" id="boardoutline" fill="none" stroke="black" fill-opacity="0.5"/>
   </g>
  </g>
  <g partID="69870">
   <g transform="translate(56.1645,1.561)">
    <g transform="matrix(0,1,-1,0,0,0)">
     <g  stroke-width="0" id="copper1">
      <rect height="5.76" width="1.872" x="1.08" y="17.424"  stroke-width="0" fill="black" id="connector0pad" stroke="none"/>
      <rect height="5.76" width="1.872" x="4.68" y="17.424"  stroke-width="0" fill="black" id="connector1pad" stroke="none"/>
      <rect height="5.76" width="1.872" x="8.28" y="17.424"  stroke-width="0" fill="black" id="connector2pad" stroke="none"/>
      <rect height="5.76" width="1.872" x="11.88" y="17.424"  stroke-width="0" fill="black" id="connector3pad" stroke="none"/>
      <rect height="5.76" width="1.872" x="15.48" y="17.424"  stroke-width="0" fill="black" id="connector4pad" stroke="none"/>
      <rect height="5.76" width="1.872" x="19.08" y="17.424"  stroke-width="0" fill="black" id="connector5pad" stroke="none"/>
      <rect height="5.76" width="1.872" x="22.68" y="17.424"  stroke-width="0" fill="black" id="connector6pad" stroke="none"/>
      <rect height="5.76" width="1.872" x="26.28" y="17.424"  stroke-width="0" fill="black" id="connector7pad" stroke="none"/>
      <rect height="5.76" width="1.872" x="26.28" y="0"  stroke-width="0" fill="black" id="connector8pad" stroke="none"/>
      <rect height="5.76" width="1.872" x="22.68" y="0"  stroke-width="0" fill="black" id="connector9pad" stroke="none"/>
      <rect height="5.76" width="1.872" x="19.08" y="0"  stroke-width="0" fill="black" id="connector10pad" stroke="none"/>
      <rect height="5.76" width="1.872" x="15.48" y="0"  stroke-width="0" fill="black" id="connector11pad" stroke="none"/>
      <rect height="5.76" width="1.872" x="11.88" y="0"  stroke-width="0" fill="black" id="connector12pad" stroke="none"/>
      <rect height="5.76" width="1.872" x="8.28" y="0"  stroke-width="0" fill="black" id="connector13pad" stroke="none"/>
      <rect height="5.76" width="1.872" x="4.68" y="0"  stroke-width="0" fill="black" id="connector14pad" stroke="none"/>
      <rect height="5.76" width="1.872" x="1.08" y="0"  stroke-width="0" fill="black" id="connector15pad" stroke="none"/>
     </g>
    </g>
   </g>
  </g>
  <g partID="67351">
   <g transform="translate(18.0045,19.057)">
    <g transform="matrix(0,-1,1,0,0,0)">
     <g  id="copper1">
      <circle r="1.8" cx="2.88" cy="2.88"  stroke-width="1.44" id="connector0pin" fill="none" stroke="black"/>
      <circle r="1.8" cx="10.0933" cy="2.88"  stroke-width="1.44" id="connector1pin" fill="none" stroke="black"/>
     </g>
    </g>
   </g>
  </g>
  <g partID="67391">
   <g transform="translate(23.0445,19.057)">
    <g transform="matrix(0,-1,1,0,0,0)">
     <g  id="copper1">
      <circle r="1.8" cx="2.88" cy="2.88"  stroke-width="1.44" id="connector0pin" fill="none" stroke="black"/>
      <circle r="1.8" cx="10.0933" cy="2.88"  stroke-width="1.44" id="connector1pin" fill="none" stroke="black"/>
     </g>
    </g>
   </g>
  </g>
  <g partID="70731">
   <g transform="translate(61.3733,9.5058)">
    <g  id="copper1">
     <circle r="1.98426" cx="4.15118" cy="4.15118"  stroke-width="1.13386" fill="none" id="connector0pin" stroke="black"/>
    </g>
   </g>
  </g>
  <g partID="70721">
   <g transform="translate(61.3733,2.3058)">
    <g  id="copper1">
     <circle r="1.98426" cx="4.15118" cy="4.15118"  stroke-width="1.13386" fill="none" id="connector0pin" stroke="black"/>
    </g>
   </g>
  </g>
  <g partID="70701">
   <g transform="translate(68.5733,23.9058)">
    <g  id="copper1">
     <circle r="1.98426" cx="4.15118" cy="4.15118"  stroke-width="1.13386" fill="none" id="connector0pin" stroke="black"/>
    </g>
   </g>
  </g>
  <g partID="70711">
   <g transform="translate(61.3733,23.9058)">
    <g  id="copper1">
     <circle r="1.98426" cx="4.15118" cy="4.15118"  stroke-width="1.13386" fill="none" id="connector0pin" stroke="black"/>
    </g>
   </g>
  </g>
  <g partID="70761">
   <g transform="translate(68.5733,2.3058)">
    <g  id="copper1">
     <circle r="1.98426" cx="4.15118" cy="4.15118"  stroke-width="1.13386" fill="none" id="connector0pin" stroke="black"/>
    </g>
   </g>
  </g>
  <g partID="70741">
   <g transform="translate(68.5733,16.7058)">
    <g  id="copper1">
     <circle r="1.98426" cx="4.15118" cy="4.15118"  stroke-width="1.13386" fill="none" id="connector0pin" stroke="black"/>
    </g>
   </g>
  </g>
  <g partID="70771">
   <g transform="translate(61.3733,16.7058)">
    <g  id="copper1">
     <circle r="1.98426" cx="4.15118" cy="4.15118"  stroke-width="1.13386" fill="none" id="connector0pin" stroke="black"/>
    </g>
   </g>
  </g>
  <g partID="70751">
   <g transform="translate(68.5733,9.5058)">
    <g  id="copper1">
     <circle r="1.98426" cx="4.15118" cy="4.15118"  stroke-width="1.13386" fill="none" id="connector0pin" stroke="black"/>
    </g>
   </g>
  </g>
  <g partID="70651">
   <g transform="translate(10.6133,9.50578)">
    <g  id="copper1">
     <circle r="1.98426" cx="4.15118" cy="4.15118"  stroke-width="1.13386" fill="none" id="connector0pin" stroke="black"/>
    </g>
   </g>
  </g>
  <g partID="71121">
   <g transform="translate(26.235,0.287529)">
    <g  id="copper1">
     <circle r="1.84252" cx="4.00945" cy="4.00945"  stroke-width="1.13386" fill="none" id="connector0pin" stroke="black"/>
    </g>
   </g>
  </g>
  <g partID="70521">
   <g transform="translate(3.4133,9.50578)">
    <g  id="copper1">
     <circle r="1.98426" cx="4.15118" cy="4.15118"  stroke-width="1.13386" fill="none" id="connector0pin" stroke="black"/>
    </g>
   </g>
  </g>
  <g partID="70541">
   <g transform="translate(3.4133,16.7058)">
    <g  id="copper1">
     <circle r="1.98426" cx="4.15118" cy="4.15118"  stroke-width="1.13386" fill="none" id="connector0pin" stroke="black"/>
    </g>
   </g>
  </g>
  <g partID="70561">
   <g transform="translate(3.4133,23.9058)">
    <g  id="copper1">
     <circle r="1.98426" cx="4.15118" cy="4.15118"  stroke-width="1.13386" fill="none" id="connector0pin" stroke="black"/>
    </g>
   </g>
  </g>
  <g partID="70331">
   <g transform="translate(3.4133,2.30578)">
    <g  id="copper1">
     <circle r="1.98426" cx="4.15118" cy="4.15118"  stroke-width="1.13386" fill="none" id="connector0pin" stroke="black"/>
    </g>
   </g>
  </g>
  <g partID="70641">
   <g transform="translate(10.6133,16.7058)">
    <g  id="copper1">
     <circle r="1.98426" cx="4.15118" cy="4.15118"  stroke-width="1.13386" fill="none" id="connector0pin" stroke="black"/>
    </g>
   </g>
  </g>
  <g partID="70621">
   <g transform="translate(10.6133,2.30578)">
    <g  id="copper1">
     <circle r="1.98426" cx="4.15118" cy="4.15118"  stroke-width="1.13386" fill="none" id="connector0pin" stroke="black"/>
    </g>
   </g>
  </g>
  <g partID="71101">
   <g transform="translate(55.755,0.287529)">
    <g  id="copper1">
     <circle r="1.84252" cx="4.00945" cy="4.00945"  stroke-width="1.13386" fill="none" id="connector0pin" stroke="black"/>
    </g>
   </g>
  </g>
  <g partID="70631">
   <g transform="translate(10.6133,23.9058)">
    <g  id="copper1">
     <circle r="1.98426" cx="4.15118" cy="4.15118"  stroke-width="1.13386" fill="none" id="connector0pin" stroke="black"/>
    </g>
   </g>
  </g>
  <g partID="71161">
   <g transform="translate(56.3872,6.67965)">
    <g  id="copper1">
     <circle r="0.992124" cx="3.01733" cy="3.01733"  stroke-width="0.850392" fill="none" id="connector0pin" stroke="black"/>
    </g>
   </g>
  </g>
  <g partID="71401">
   <g transform="translate(45.8029,0.559637)">
    <g  id="copper1">
     <circle r="0.992124" cx="3.01733" cy="3.01733"  stroke-width="0.850392" fill="none" id="connector0pin" stroke="black"/>
    </g>
   </g>
  </g>
  <g partID="72421">
   <g transform="translate(42.2032,21.4397)">
    <g  id="copper1">
     <circle r="0.992124" cx="3.01733" cy="3.01733"  stroke-width="0.850392" fill="none" id="connector0pin" stroke="black"/>
    </g>
   </g>
  </g>
  <g partID="72611">
   <g transform="translate(39.3232,11.3597)">
    <g  id="copper1">
     <circle r="0.992124" cx="3.01733" cy="3.01733"  stroke-width="0.850392" fill="none" id="connector0pin" stroke="black"/>
    </g>
   </g>
  </g>
  <g partID="75751">
   <g transform="translate(23.9872,22.5197)">
    <g  id="copper1">
     <circle r="0.992124" cx="3.01733" cy="3.01733"  stroke-width="0.850392" fill="none" id="connector0pin" stroke="black"/>
    </g>
   </g>
  </g>
  <g partID="75951">
   <g transform="translate(39.3232,17.1197)">
    <g  id="copper1">
     <circle r="0.992124" cx="3.01733" cy="3.01733"  stroke-width="0.850392" fill="none" id="connector0pin" stroke="black"/>
    </g>
   </g>
  </g>
  <g partID="76161">
   <g transform="translate(16.7872,22.8797)">
    <g  id="copper1">
     <circle r="0.992124" cx="3.01733" cy="3.01733"  stroke-width="0.850392" fill="none" id="connector0pin" stroke="black"/>
    </g>
   </g>
  </g>
  <g partID="71210">
   <line y1="5.71579" y2="7.19264" x1="58.8731" x2="57.9452" stroke-linecap="round" stroke-width="1.152" stroke="black"/>
  </g>
  <g partID="71430">
   <line y1="3.577" y2="3.577" x1="50.8045" x2="50.1874" stroke-linecap="round" stroke-width="1.728" stroke="black"/>
  </g>
  <g partID="78130">
   <line y1="10.7533" y2="10.7644" x1="57.9527" x2="55.7645" stroke-linecap="round" stroke-width="1.728" stroke="black"/>
  </g>
  <g partID="71460">
   <line y1="10.5012" y2="10.7533" x1="58.2992" x2="57.9527" stroke-linecap="round" stroke-width="1.728" stroke="black"/>
  </g>
  <g partID="72390">
   <line y1="9.33011" y2="14.7643" x1="63.7104" x2="60.1523" stroke-linecap="round" stroke-width="1.152" stroke="black"/>
  </g>
  <g partID="71930">
   <line y1="14.7643" y2="17.9989" x1="60.1523" x2="57.9527" stroke-linecap="round" stroke-width="1.152" stroke="black"/>
  </g>
  <g partID="71630">
   <line y1="17.9989" y2="17.9886" x1="57.9527" x2="55.7645" stroke-linecap="round" stroke-width="1.152" stroke="black"/>
  </g>
  <g partID="71600">
   <line y1="7.99362" y2="9.33011" x1="64.5542" x2="63.7104" stroke-linecap="round" stroke-width="1.152" stroke="black"/>
  </g>
  <g partID="78300">
   <line y1="1.05139" y2="0.700837" x1="72.7045" x2="37.0621" stroke-linecap="round" stroke-width="0.864" stroke="black"/>
  </g>
  <g partID="73280">
   <line y1="3.5925" y2="1.05139" x1="76.3128" x2="72.7045" stroke-linecap="round" stroke-width="0.864" stroke="black"/>
  </g>
  <g partID="71810">
   <line y1="0.700837" y2="3.041" x1="37.0621" x2="36.0844" stroke-linecap="round" stroke-width="0.864" stroke="black"/>
  </g>
  <g partID="71750">
   <line y1="11.1415" y2="3.5925" x1="76.3254" x2="76.3128" stroke-linecap="round" stroke-width="0.864" stroke="black"/>
  </g>
  <g partID="71720">
   <line y1="12.6162" y2="11.1415" x1="74.2143" x2="76.3254" stroke-linecap="round" stroke-width="0.864" stroke="black"/>
  </g>
  <g partID="71900">
   <line y1="21.6008" y2="21.5856" x1="60.1253" x2="55.7645" stroke-linecap="round" stroke-width="1.152" stroke="black"/>
  </g>
  <g partID="71840">
   <line y1="15.16" y2="21.6008" x1="64.5029" x2="60.1253" stroke-linecap="round" stroke-width="1.152" stroke="black"/>
  </g>
  <g partID="71980">
   <line y1="25.1807" y2="25.1779" x1="62.9773" x2="55.7645" stroke-linecap="round" stroke-width="1.152" stroke="black"/>
  </g>
  <g partID="71950">
   <line y1="22.4228" y2="25.1807" x1="64.6021" x2="62.9773" stroke-linecap="round" stroke-width="1.152" stroke="black"/>
  </g>
  <g partID="72580">
   <line y1="28.7701" y2="28.7752" x1="62.9773" x2="55.7645" stroke-linecap="round" stroke-width="1.152" stroke="black"/>
  </g>
  <g partID="72070">
   <line y1="28.5469" y2="28.7701" x1="63.7745" x2="62.9773" stroke-linecap="round" stroke-width="1.152" stroke="black"/>
  </g>
  <g partID="72160">
   <line y1="11.8311" y2="7.17919" x1="45.249" x2="41.2713" stroke-linecap="round" stroke-width="0.864" stroke="black"/>
  </g>
  <g partID="77130">
   <line y1="7.17919" y2="7.178" x1="41.2713" x2="38.3405" stroke-linecap="round" stroke-width="0.864" stroke="black"/>
  </g>
  <g partID="72310">
   <line y1="8.96362" y2="8.96362" x1="24.0445" x2="22.7645" stroke-linecap="round" stroke-width="2.304" stroke="black"/>
  </g>
  <g partID="72340">
   <line y1="16.177" y2="16.177" x1="24.0445" x2="22.7645" stroke-linecap="round" stroke-width="1.728" stroke="black"/>
  </g>
  <g partID="72450">
   <line y1="23.4901" y2="11.8311" x1="45.2227" x2="45.249" stroke-linecap="round" stroke-width="0.864" stroke="black"/>
  </g>
  <g partID="72730">
   <line y1="12.2356" y2="10.7524" x1="42.35" x2="40.8668" stroke-linecap="round" stroke-width="0.864" stroke="black"/>
  </g>
  <g partID="77150">
   <line y1="10.7524" y2="10.7648" x1="40.8668" x2="38.3405" stroke-linecap="round" stroke-width="0.864" stroke="black"/>
  </g>
  <g partID="72640">
   <line y1="13.4101" y2="12.2356" x1="42.3448" x2="42.35" stroke-linecap="round" stroke-width="0.864" stroke="black"/>
  </g>
  <g partID="73220">
   <line y1="7.19264" y2="7.18532" x1="57.9452" x2="55.7645" stroke-linecap="round" stroke-width="1.152" stroke="black"/>
  </g>
  <g partID="73650">
   <line y1="1.40715" y2="3.041" x1="34.1813" x2="35.4457" stroke-linecap="round" stroke-width="2.304" stroke="black"/>
  </g>
  <g partID="73620">
   <line y1="4.65976" y2="1.50879" x1="2.51914" x2="6.22915" stroke-linecap="round" stroke-width="2.304" stroke="black"/>
  </g>
  <g partID="78200">
   <line y1="1.50879" y2="1.40715" x1="6.22915" x2="34.1813" stroke-linecap="round" stroke-width="2.304" stroke="black"/>
  </g>
  <g partID="73590">
   <line y1="13.6228" y2="4.65976" x1="2.54002" x2="2.51914" stroke-linecap="round" stroke-width="2.304" stroke="black"/>
  </g>
  <g partID="73560">
   <line y1="13.6391" y2="13.6228" x1="4.94721" x2="2.54002" stroke-linecap="round" stroke-width="2.304" stroke="black"/>
  </g>
  <g partID="77610">
   <line y1="11.465" y2="6.37256" x1="30.2643" x2="30.2502" stroke-linecap="round" stroke-width="1.728" stroke="black"/>
  </g>
  <g partID="73700">
   <line y1="14.7941" y2="11.465" x1="27.1981" x2="30.2643" stroke-linecap="round" stroke-width="1.728" stroke="black"/>
  </g>
  <g partID="75370">
   <line y1="3.89494" y2="4.03305" x1="33.3805" x2="32.3032" stroke-linecap="round" stroke-width="1.728" stroke="black"/>
  </g>
  <g partID="77860">
   <line y1="17.2873" y2="17.2301" x1="16.226" x2="10.4817" stroke-linecap="round" stroke-width="0.576" stroke="black"/>
  </g>
  <g partID="77880">
   <line y1="19.8057" y2="17.2873" x1="18.7359" x2="16.226" stroke-linecap="round" stroke-width="0.576" stroke="black"/>
  </g>
  <g partID="75680">
   <line y1="14.3666" y2="19.7456" x1="32.7873" x2="29.1645" stroke-linecap="round" stroke-width="0.576" stroke="black"/>
  </g>
  <g partID="75650">
   <line y1="19.7456" y2="19.8057" x1="29.1645" x2="18.7359" stroke-linecap="round" stroke-width="0.576" stroke="black"/>
  </g>
  <g partID="75620">
   <line y1="17.2301" y2="19.4409" x1="10.4817" x2="8.70351" stroke-linecap="round" stroke-width="0.576" stroke="black"/>
  </g>
  <g partID="75590">
   <line y1="14.3686" y2="14.3666" x1="33.3805" x2="32.7873" stroke-linecap="round" stroke-width="0.576" stroke="black"/>
  </g>
  <g partID="76100">
   <line y1="21.557" y2="21.2042" x1="18.3609" x2="16.5483" stroke-linecap="round" stroke-width="1.152" stroke="black"/>
  </g>
  <g partID="77930">
   <line y1="21.557" y2="21.557" x1="32.0757" x2="18.3609" stroke-linecap="round" stroke-width="1.152" stroke="black"/>
  </g>
  <g partID="75710">
   <line y1="21.5639" y2="21.557" x1="33.3805" x2="32.0757" stroke-linecap="round" stroke-width="1.152" stroke="black"/>
  </g>
  <g partID="78010">
   <line y1="25.1798" y2="25.178" x1="28.7764" x2="33.3805" stroke-linecap="round" stroke-width="1.152" stroke="black"/>
  </g>
  <g partID="75780">
   <line y1="25.3459" y2="25.1798" x1="27.9524" x2="28.7764" stroke-linecap="round" stroke-width="1.152" stroke="black"/>
  </g>
  <g partID="76010">
   <line y1="17.9837" y2="17.9808" x1="40.2129" x2="38.3405" stroke-linecap="round" stroke-width="1.152" stroke="black"/>
  </g>
  <g partID="75980">
   <line y1="19.1647" y2="17.9837" x1="41.3798" x2="40.2129" stroke-linecap="round" stroke-width="1.152" stroke="black"/>
  </g>
  <g partID="76220">
   <line y1="28.8026" y2="28.7816" x1="21.9837" x2="33.3805" stroke-linecap="round" stroke-width="1.152" stroke="black"/>
  </g>
  <g partID="76190">
   <line y1="26.6705" y2="28.8026" x1="20.3846" x2="21.9837" stroke-linecap="round" stroke-width="1.152" stroke="black"/>
  </g>
  <g partID="77020">
   <line y1="14.393" y2="14.3837" x1="47.4064" x2="50.8045" stroke-linecap="round" stroke-width="0.864" stroke="black"/>
  </g>
  <g partID="76910">
   <line y1="9.67367" y2="14.393" x1="47.4064" x2="47.4064" stroke-linecap="round" stroke-width="0.864" stroke="black"/>
  </g>
  <g partID="76690">
   <line y1="3.58809" y2="3.60601" x1="38.3405" x2="42.35" stroke-linecap="round" stroke-width="0.864" stroke="black"/>
  </g>
  <g partID="76800">
   <line y1="3.60601" y2="9.67367" x1="42.35" x2="47.4064" stroke-linecap="round" stroke-width="0.864" stroke="black"/>
  </g>
 </g>
</svg>
