; NON-PLATED HOLES START AT T1
; THROUGH (PLATED) HOLES START AT T100
M48
INCH
T100C0.035000
T101C0.025000
T102C0.030000
T103C0.038000
T104C0.015748
%
T100
X004205Y069941
X004172Y050535
X007122Y139536
X005123Y099725
X006131Y105727
X004114Y151933
X004155Y076342
X008123Y109175
X006164Y041534
X004205Y088342
X006131Y124127
X001155Y056991
X007163Y065944
X001114Y136533
X006114Y145983
X004114Y130583
X003164Y026133
X008123Y115125
X006164Y020183
X008164Y035584
X001155Y075391
X007163Y084344
X006172Y050535
X001155Y062941
X007123Y099725
X008131Y105727
X001131Y102727
X006114Y151933
X003123Y090775
X002164Y143533
X008164Y041534
X001155Y081342
X008131Y124127
X002122Y139536
X003155Y056991
X003114Y136533
X001131Y121127
X003714Y157583
X008114Y145983
X004172Y029135
X006114Y130583
X005164Y026133
X003123Y109175
X008164Y020183
X003155Y075391
X008172Y050535
X003155Y062941
X002123Y096725
X003131Y102727
X008114Y151933
X005123Y090775
X004164Y143533
X003123Y115125
X003155Y081342
X004122Y139536
X005155Y056991
X001414Y013983
X003131Y121127
X006172Y029135
X008114Y130583
X005123Y109175
X005155Y075391
X002123Y113125
X005155Y062941
X004123Y096725
X005131Y102727
X007123Y090775
X005123Y115125
X002172Y047535
X005155Y081342
X006122Y139536
X007155Y056991
X002214Y051534
X005131Y121127
X008172Y029135
X007123Y109175
X007155Y075391
X004123Y113125
X006163Y065944
X007155Y062941
X006123Y096725
X005114Y145983
X002164Y026133
X007123Y115125
X007164Y035584
X002172Y032135
X006163Y084344
X007155Y081342
X008122Y139536
X007131Y105727
X004214Y051534
X001123Y112175
X005114Y151933
X007164Y041534
X007131Y124127
X002155Y056991
X008163Y065944
X002114Y136533
X008123Y096725
X007114Y145983
X005114Y130583
X004164Y026133
X007164Y020183
X002155Y075391
X008163Y084344
X002155Y062941
X002131Y102727
X007114Y151933
X002155Y081342
X004155Y056991
X004114Y136533
X002131Y121127
X004714Y157583
X007114Y130583
X006164Y026133
X004155Y075391
X004155Y062941
X003123Y096725
X004131Y102727
X001164Y017183
X001172Y047535
X004155Y081342
X002164Y027083
X006155Y056991
X002414Y013983
X006114Y136533
X004131Y121127
X002123Y094725
X008164Y026133
X001164Y023133
X006155Y075391
X006155Y062941
X001114Y127583
X005123Y096725
X006131Y102727
X002114Y137483
X003164Y017183
X003172Y047535
X001172Y032135
X006155Y081342
X004164Y027083
X008155Y056991
X008114Y136533
X006131Y121127
X001155Y053991
X001114Y133533
X004123Y094725
X002155Y063891
X002164Y039534
X003164Y023133
X008155Y075391
X001155Y072391
X008155Y062941
X003114Y127583
X007123Y096725
X008131Y102727
X002155Y082292
X001122Y142536
X004114Y137483
X005164Y017183
X001123Y093775
X005172Y047535
X003172Y032135
X008155Y081342
X002114Y149933
X008131Y121127
X003155Y053991
X002123Y112175
X003114Y133533
X004155Y063891
X004164Y039534
X005164Y023133
X003155Y072391
X004155Y082292
X003122Y142536
X007172Y047535
X005172Y032135
X001123Y118125
X001164Y038584
X004114Y149933
X005155Y053991
X004123Y112175
X002173Y106725
X001164Y044534
X005114Y136533
X005155Y072391
X002163Y068944
X001114Y148983
X007164Y026133
X005122Y142536
X002173Y125125
X007172Y032135
X003164Y038584
X002163Y087344
X007155Y053991
X006123Y112175
X001114Y154933
X002164Y017183
X004173Y106725
X003164Y044534
X007114Y136533
X007155Y072391
X004163Y068944
X003114Y148983
X007122Y142536
X004173Y125125
X002164Y023133
X002123Y100675
X005164Y038584
X004163Y087344
X002114Y127583
X008123Y112175
X007131Y102727
X003114Y154933
X004164Y017183
X004172Y047535
X005164Y044534
X007131Y121127
X002155Y053991
X002114Y133533
X004164Y023133
X004123Y100675
X002155Y072391
X004114Y127583
X002122Y142536
X006164Y017183
X002123Y093775
X006172Y047535
X004172Y032135
X001155Y059941
X004155Y053991
X003123Y112175
X004114Y133533
X006164Y023133
X001155Y078342
X004155Y072391
X001163Y068944
X006114Y127583
X001123Y099725
X004122Y142536
X008164Y017183
X004123Y093775
X008172Y047535
X006172Y032135
X003155Y059941
X002123Y118125
X002164Y038584
X001163Y087344
X006155Y053991
X005123Y112175
X006114Y133533
X008164Y023133
X003155Y078342
X002164Y044534
X006155Y072391
X003163Y068944
X008114Y127583
X002172Y050535
X002114Y148983
X006122Y142536
X006123Y093775
X008172Y032135
X005155Y059941
X004123Y118125
X004164Y038584
X003163Y087344
X008155Y053991
X007123Y112175
X008114Y133533
X002114Y154933
X005155Y078342
X004164Y044534
X008155Y072391
X005163Y068944
X004114Y148983
X008122Y142536
X006564Y158033
X008123Y093775
X007155Y059941
X006123Y118125
X006164Y038584
X001123Y090775
X005163Y087344
X004114Y154933
X002172Y029135
X002164Y021133
X007155Y078342
X006164Y044534
X001123Y109175
X002214Y033134
X007163Y068944
X002123Y119075
X006114Y148983
X006564Y157134
X008564Y158033
X008123Y118125
X008164Y038584
X007163Y087344
X001123Y115125
X001164Y035584
X005114Y127583
X002114Y131533
X002164Y045484
X001131Y105727
X006114Y154933
X007164Y017183
X003123Y093775
X004164Y021133
X002155Y059941
X008164Y044534
X004214Y033134
X001164Y041534
X005114Y133533
X001131Y124127
X002163Y065944
X004123Y119075
X008114Y148983
X008564Y157134
X001114Y145983
X007164Y023133
X002155Y078342
X002114Y155883
X001164Y020183
X003164Y035584
X002163Y084344
X007114Y127583
X001172Y050535
X004114Y131533
X002123Y099725
X004164Y045484
X003131Y105727
X008114Y154933
X001114Y151933
X005123Y093775
X004155Y059941
X003123Y118125
X003164Y041534
X007114Y133533
X003131Y124127
X004163Y065944
X003114Y145983
X001114Y130583
X004155Y078342
X004114Y155883
X003164Y020183
X005164Y035584
X004163Y084344
X003172Y050535
X004123Y099725
X005131Y105727
X003114Y151933
X007123Y093775
X006155Y059941
X005123Y118125
X005164Y041534
X005131Y124127
X001172Y029135
X003114Y130583
X006155Y078342
X005164Y020183
X006163Y068944
X005172Y050535
X006123Y099725
X005114Y148983
X008155Y059941
X007123Y118125
X007164Y038584
X002123Y090775
X006163Y087344
X001122Y139536
X005114Y154933
X003172Y029135
X008155Y078342
X007164Y044534
X002123Y109175
X008163Y068944
X007172Y050535
X001163Y065944
X008123Y099725
X007114Y148983
X001123Y096725
X004123Y090775
X008163Y087344
X002123Y115125
X002164Y035584
X001163Y084344
X003122Y139536
X002131Y105727
X007114Y154933
X005172Y029135
X004123Y109175
X002164Y041534
X002131Y124127
X003163Y065944
X002114Y145983
X006123Y090775
X002155Y057941
X004123Y115125
X002164Y020183
X004164Y035584
X003163Y084344
X002205Y069941
X005122Y139536
X003123Y099725
X004131Y105727
X002114Y151933
X007172Y029135
X002155Y076342
X006123Y109175
X004164Y041534
X002205Y088342
X004131Y124127
X005163Y065944
X004114Y145983
X002114Y130583
X001164Y026133
X008123Y090775
X004155Y057941
X006123Y115125
X004164Y020183
X006164Y035584
X005163Y084344
T101
X010788Y036084
X010738Y146483
X009993Y063691
X009205Y065991
X009205Y054491
X010788Y017683
X010779Y072891
X010779Y061391
X009214Y049884
X011535Y111975
X009214Y038384
X011535Y100475
X011567Y086692
X009205Y082092
X011567Y075192
X009952Y146483
X009164Y146483
X010788Y045284
X010738Y155683
X009993Y072891
X010738Y144183
X009214Y019983
X009993Y061391
X009205Y063691
X011567Y056791
X010747Y095875
X010002Y029183
X010788Y026883
X010779Y070591
X009214Y047584
X011576Y029183
X009214Y036084
X011567Y084392
X009952Y155683
X009164Y155683
X009952Y144183
X009164Y144183
X011526Y139583
X011526Y128083
X009961Y095875
X009173Y095875
X010747Y109675
X010738Y153383
X009993Y070591
X009214Y017683
X011567Y065991
X009205Y072891
X009205Y061391
X011567Y054491
X010747Y093575
X010002Y049884
X010002Y038384
X010788Y024583
X011576Y049884
X009214Y045284
X011576Y038384
X011567Y082092
X009961Y109675
X009173Y109675
X010738Y134983
X009952Y153383
X009164Y153383
X011526Y148783
X011535Y095875
X010788Y052184
X011526Y137283
X010002Y019983
X009961Y093575
X009173Y093575
X010747Y118875
X010747Y107375
X010738Y151083
X009214Y026883
X011576Y019983
X011567Y063691
X009205Y070591
X010747Y091275
X010002Y047584
X009952Y134983
X009164Y134983
X010002Y036084
X010788Y033784
X010788Y022283
X011576Y047584
X010779Y059091
X011576Y036084
X011535Y109675
X009961Y118875
X009173Y118875
X009961Y107375
X009173Y107375
X010738Y132683
X009952Y151083
X009164Y151083
X011535Y093575
X011526Y146483
X010002Y017683
X009961Y091275
X009173Y091275
X010747Y116575
X010747Y105075
X009214Y024583
X011576Y017683
X009993Y059091
X011567Y072891
X011567Y061391
X010002Y045284
X009952Y132683
X009164Y132683
X010788Y042984
X010788Y031483
X010779Y079792
X010779Y068291
X011576Y045284
X009214Y052184
X011535Y118875
X011535Y107375
X009961Y116575
X009173Y116575
X010738Y141883
X009961Y105075
X009173Y105075
X010738Y130383
X011526Y155683
X011526Y144183
X011535Y091275
X010002Y026883
X010747Y125775
X010747Y114275
X011576Y026883
X009993Y079792
X009214Y033784
X009214Y022283
X009993Y068291
X011567Y070591
X009205Y059091
X009952Y141883
X009164Y141883
X009952Y130383
X009164Y130383
X010788Y040684
X010779Y088992
X010779Y077492
X011535Y116575
X011535Y105075
X009961Y125775
X009173Y125775
X009961Y114275
X009173Y114275
X011526Y153383
X010002Y024583
X010747Y123475
X009214Y042984
X009993Y088992
X011576Y024583
X009214Y031483
X009993Y077492
X009205Y079792
X009205Y068291
X010002Y052184
X011526Y134983
X010779Y086692
X010779Y075192
X011576Y052184
X011535Y125775
X011535Y114275
X009961Y123475
X009173Y123475
X011526Y151083
X010002Y033784
X010002Y022283
X010747Y121175
X010779Y056791
X009214Y040684
X011576Y033784
X009993Y086692
X011576Y022283
X009993Y075192
X009205Y088992
X009205Y077492
X011567Y059091
X010747Y098175
X011526Y132683
X010788Y029183
X010779Y084392
X011535Y123475
X010747Y102775
X009961Y121175
X009173Y121175
X010738Y139583
X009993Y056791
X010738Y128083
X010002Y042984
X010002Y031483
X009961Y098175
X009173Y098175
X010779Y065991
X011576Y042984
X010779Y054491
X011576Y031483
X009993Y084392
X011567Y079792
X009205Y086692
X011567Y068291
X009205Y075192
X009961Y102775
X009173Y102775
X009952Y139583
X009164Y139583
X009952Y128083
X009164Y128083
X010788Y049884
X011526Y141883
X010788Y038384
X011526Y130383
X010779Y082092
X010747Y111975
X011535Y121175
X010747Y100475
X010738Y148783
X009993Y065991
X010738Y137283
X009993Y054491
X009205Y056791
X011535Y098175
X010002Y040684
X010788Y019983
X010779Y063691
X011576Y040684
X009993Y082092
X009214Y029183
X011535Y102775
X011567Y088992
X009961Y111975
X009173Y111975
X009205Y084392
X011567Y077492
X009961Y100475
X009173Y100475
X009952Y148783
X009164Y148783
X009952Y137283
X009164Y137283
X010788Y047584
T102
X005514Y126133
X001155Y052541
X002066Y046384
X002057Y077242
X001023Y095625
X001123Y089325
X005764Y021883
X004523Y107725
X004755Y058691
X005514Y144533
X001155Y070941
X004564Y034134
X002057Y064791
X004605Y083092
X002025Y114025
X005714Y132283
X004555Y052541
X004523Y089325
X002025Y101575
X002016Y132433
X004723Y113875
X002116Y126133
X004573Y101475
X005714Y150683
X004555Y070941
X005614Y027883
X002016Y150833
X004764Y040284
X002116Y144533
X001023Y119975
X001064Y046384
X001055Y077242
X004723Y095475
X005573Y119875
X001055Y064791
X005523Y107725
X005755Y058691
X001023Y114025
X002066Y027983
X002057Y058841
X004614Y046284
X005564Y034134
X005605Y083092
X001023Y101575
X001014Y132433
X001114Y126133
X004605Y064691
X005555Y052541
X005523Y089325
X001014Y150833
X001114Y144533
X005723Y113875
X002016Y138383
X005573Y101475
X004564Y138283
X002066Y022033
X005555Y070941
X002125Y107725
X002366Y015533
X005764Y040284
X004755Y077092
X004514Y126133
X002066Y040434
X002166Y034134
X004764Y021883
X002057Y083192
X002266Y156883
X004514Y144533
X005723Y095475
X002157Y052541
X001064Y027983
X001055Y058841
X002025Y095625
X002125Y089325
X002157Y070941
X004714Y132283
X005614Y046284
X004714Y150683
X001014Y138383
X004614Y027883
X001064Y022033
X001123Y107725
X005605Y064691
X001364Y015533
X001064Y040434
X001164Y034134
X005564Y138283
X002025Y119975
X001055Y083192
X001264Y156883
X004573Y119875
X005755Y077092
T103
X007414Y014983
X008414Y013983
X008414Y014983
X004414Y013983
X004414Y014983
X005414Y013983
X006414Y013983
X007414Y013983
X005414Y014983
X006414Y014983
T104
X011755Y056091
X009023Y121875
X011755Y074492
X009664Y015683
X009255Y067291
X011614Y111283
X007923Y104075
X007805Y066691
X009255Y085692
X010823Y105775
X011564Y025733
X011723Y092875
X007923Y122475
X009055Y066691
X009264Y030483
X009214Y140883
X007805Y085092
X011514Y136133
X010823Y124175
X011564Y044134
X011614Y129633
X007955Y067291
X009055Y085092
X007773Y103475
X011514Y154533
X011764Y019283
X011523Y099325
X010855Y068991
X009014Y140283
X007955Y085692
X007773Y121875
X007964Y030483
X011764Y037684
X007914Y140883
X010855Y087392
X011714Y148083
X010864Y032183
X007814Y029883
X010814Y142583
X009264Y048884
X010864Y050584
X009064Y029883
X011555Y062541
X007814Y048284
X009223Y104075
X009064Y048284
X011555Y080942
X011523Y117725
X009223Y122475
X009023Y103475
X007964Y048884
X007764Y140283
T00
M30
