G04 MADE WITH FRITZING*
G04 WWW.FRITZING.ORG*
G04 DOUBLE SIDED*
G04 HOLES PLATED*
G04 CONTOUR ON CENTER OF CONTOUR VECTOR*
%ASAXBY*%
%FSLAX23Y23*%
%MOIN*%
%OFA0B0*%
%SFA1.0B1.0*%
%ADD10C,0.085000*%
%ADD11C,0.049370*%
%ADD12C,0.075000*%
%ADD13C,0.080000*%
%ADD14C,0.088000*%
%ADD15R,0.085000X0.085000*%
%LNMASK1*%
G90*
G70*
G54D10*
X141Y624D03*
X241Y624D03*
G54D11*
X776Y13254D03*
X777Y9573D03*
X777Y11413D03*
X781Y7735D03*
X781Y5895D03*
X781Y4054D03*
X781Y2214D03*
X901Y13254D03*
X902Y9573D03*
X902Y11413D03*
X906Y5895D03*
X906Y7735D03*
X906Y4054D03*
X906Y2214D03*
X792Y11473D03*
X791Y13314D03*
X792Y9633D03*
X796Y7795D03*
X796Y5955D03*
X796Y4114D03*
X796Y2274D03*
G54D12*
X917Y11573D03*
X996Y11573D03*
X1075Y11573D03*
X1154Y11573D03*
X916Y13414D03*
X995Y13414D03*
X1074Y13414D03*
X1153Y13414D03*
X917Y9733D03*
X996Y9733D03*
X1075Y9733D03*
X1154Y9733D03*
X921Y7895D03*
X999Y7895D03*
X1078Y7895D03*
X1157Y7895D03*
X921Y6055D03*
X999Y6055D03*
X1078Y6055D03*
X1157Y6055D03*
X921Y4214D03*
X1000Y4214D03*
X1079Y4214D03*
X1158Y4214D03*
X921Y2374D03*
X1000Y2374D03*
X1079Y2374D03*
X1158Y2374D03*
X917Y10193D03*
X996Y10193D03*
X1075Y10193D03*
X1154Y10193D03*
X916Y13874D03*
X995Y13874D03*
X1074Y13874D03*
X1153Y13874D03*
X916Y12034D03*
X995Y12034D03*
X1074Y12034D03*
X1153Y12034D03*
X917Y8353D03*
X996Y8353D03*
X1075Y8353D03*
X1154Y8353D03*
X921Y6515D03*
X999Y6515D03*
X1078Y6515D03*
X1157Y6515D03*
X921Y4675D03*
X999Y4675D03*
X1078Y4675D03*
X1157Y4675D03*
X921Y2834D03*
X1000Y2834D03*
X1079Y2834D03*
X1158Y2834D03*
X921Y994D03*
X1000Y994D03*
X1079Y994D03*
X1158Y994D03*
G54D11*
X921Y13314D03*
X922Y11473D03*
X922Y9633D03*
X926Y7795D03*
X926Y5955D03*
X926Y4114D03*
X926Y2274D03*
G54D12*
X916Y13644D03*
X995Y13644D03*
X1074Y13644D03*
X1153Y13644D03*
X917Y11803D03*
X996Y11803D03*
X1075Y11803D03*
X1154Y11803D03*
X917Y9963D03*
X996Y9963D03*
X1075Y9963D03*
X1154Y9963D03*
X921Y8125D03*
X999Y8125D03*
X1078Y8125D03*
X1157Y8125D03*
X921Y6285D03*
X999Y6285D03*
X1078Y6285D03*
X1157Y6285D03*
X921Y4444D03*
X1000Y4444D03*
X1079Y4444D03*
X1158Y4444D03*
X921Y2604D03*
X1000Y2604D03*
X1079Y2604D03*
X1158Y2604D03*
G54D10*
X112Y13180D03*
X112Y13480D03*
X212Y13180D03*
X212Y13480D03*
X312Y13180D03*
X312Y13480D03*
X412Y13180D03*
X412Y13480D03*
X512Y13180D03*
X512Y13480D03*
X612Y13180D03*
X612Y13480D03*
X712Y13180D03*
X712Y13480D03*
X812Y13180D03*
X812Y13480D03*
X113Y11339D03*
X113Y11639D03*
X213Y11339D03*
X213Y11639D03*
X313Y11339D03*
X313Y11639D03*
X413Y11339D03*
X413Y11639D03*
X513Y11339D03*
X513Y11639D03*
X613Y11339D03*
X613Y11639D03*
X713Y11339D03*
X713Y11639D03*
X813Y11339D03*
X813Y11639D03*
X113Y9499D03*
X113Y9799D03*
X213Y9499D03*
X213Y9799D03*
X313Y9499D03*
X313Y9799D03*
X413Y9499D03*
X413Y9799D03*
X513Y9499D03*
X513Y9799D03*
X613Y9499D03*
X613Y9799D03*
X713Y9499D03*
X713Y9799D03*
X813Y9499D03*
X813Y9799D03*
X116Y7660D03*
X116Y7960D03*
X216Y7660D03*
X216Y7960D03*
X316Y7660D03*
X316Y7960D03*
X416Y7660D03*
X416Y7960D03*
X516Y7660D03*
X516Y7960D03*
X616Y7660D03*
X616Y7960D03*
X716Y7660D03*
X716Y7960D03*
X816Y7660D03*
X816Y7960D03*
X116Y5820D03*
X116Y6120D03*
X216Y5820D03*
X216Y6120D03*
X316Y5820D03*
X316Y6120D03*
X416Y5820D03*
X416Y6120D03*
X516Y5820D03*
X516Y6120D03*
X616Y5820D03*
X616Y6120D03*
X716Y5820D03*
X716Y6120D03*
X816Y5820D03*
X816Y6120D03*
X117Y3980D03*
X117Y4280D03*
X217Y3980D03*
X217Y4280D03*
X317Y3980D03*
X317Y4280D03*
X417Y3980D03*
X417Y4280D03*
X517Y3980D03*
X517Y4280D03*
X617Y3980D03*
X617Y4280D03*
X717Y3980D03*
X717Y4280D03*
X817Y3980D03*
X817Y4280D03*
X117Y2140D03*
X117Y2440D03*
X217Y2140D03*
X217Y2440D03*
X317Y2140D03*
X317Y2440D03*
X417Y2140D03*
X417Y2440D03*
X517Y2140D03*
X517Y2440D03*
X617Y2140D03*
X617Y2440D03*
X717Y2140D03*
X717Y2440D03*
X817Y2140D03*
X817Y2440D03*
X216Y13579D03*
X416Y13579D03*
X217Y11738D03*
X417Y11738D03*
X217Y9898D03*
X417Y9898D03*
X221Y8060D03*
X421Y8060D03*
X221Y6220D03*
X421Y6220D03*
X221Y4379D03*
X421Y4379D03*
X221Y2539D03*
X421Y2539D03*
G54D13*
X451Y11839D03*
X551Y11839D03*
X452Y9998D03*
X552Y9998D03*
X451Y13679D03*
X551Y13679D03*
X452Y8158D03*
X552Y8158D03*
X456Y6320D03*
X556Y6320D03*
X456Y4480D03*
X556Y4480D03*
X456Y2639D03*
X556Y2639D03*
X112Y9998D03*
X213Y9998D03*
X111Y13679D03*
X212Y13679D03*
X111Y11839D03*
X212Y11839D03*
X112Y8158D03*
X213Y8158D03*
X116Y6320D03*
X216Y6320D03*
X116Y4480D03*
X216Y4480D03*
X116Y2639D03*
X217Y2639D03*
X136Y779D03*
X237Y779D03*
G54D11*
X1081Y13484D03*
X1082Y11643D03*
X1082Y9803D03*
X1086Y7965D03*
X1086Y6125D03*
X1086Y4284D03*
X1086Y2444D03*
G54D12*
X916Y12724D03*
X995Y12724D03*
X1074Y12724D03*
X1153Y12724D03*
X917Y10883D03*
X996Y10883D03*
X1075Y10883D03*
X1154Y10883D03*
X916Y14564D03*
X995Y14564D03*
X1074Y14564D03*
X1153Y14564D03*
X917Y9043D03*
X996Y9043D03*
X1075Y9043D03*
X1154Y9043D03*
X921Y7205D03*
X999Y7205D03*
X1078Y7205D03*
X1157Y7205D03*
X921Y5365D03*
X999Y5365D03*
X1078Y5365D03*
X1157Y5365D03*
X921Y3524D03*
X1000Y3524D03*
X1079Y3524D03*
X1158Y3524D03*
X921Y1684D03*
X1000Y1684D03*
X1079Y1684D03*
X1158Y1684D03*
X916Y12494D03*
X995Y12494D03*
X1074Y12494D03*
X1153Y12494D03*
X916Y14334D03*
X995Y14334D03*
X1074Y14334D03*
X1153Y14334D03*
X917Y10653D03*
X996Y10653D03*
X1075Y10653D03*
X1154Y10653D03*
X917Y8813D03*
X996Y8813D03*
X1075Y8813D03*
X1154Y8813D03*
X921Y6975D03*
X999Y6975D03*
X1078Y6975D03*
X1157Y6975D03*
X921Y5135D03*
X999Y5135D03*
X1078Y5135D03*
X1157Y5135D03*
X921Y3294D03*
X1000Y3294D03*
X1079Y3294D03*
X1158Y3294D03*
X921Y1454D03*
X1000Y1454D03*
X1079Y1454D03*
X1158Y1454D03*
X917Y11343D03*
X996Y11343D03*
X1075Y11343D03*
X1154Y11343D03*
X916Y13184D03*
X995Y13184D03*
X1074Y13184D03*
X1153Y13184D03*
X917Y9503D03*
X996Y9503D03*
X1075Y9503D03*
X1154Y9503D03*
X921Y7665D03*
X999Y7665D03*
X1078Y7665D03*
X1157Y7665D03*
X921Y5825D03*
X999Y5825D03*
X1078Y5825D03*
X1157Y5825D03*
X921Y3984D03*
X1000Y3984D03*
X1079Y3984D03*
X1158Y3984D03*
X921Y2144D03*
X1000Y2144D03*
X1079Y2144D03*
X1158Y2144D03*
X916Y12264D03*
X995Y12264D03*
X1074Y12264D03*
X1153Y12264D03*
X916Y14104D03*
X995Y14104D03*
X1074Y14104D03*
X1153Y14104D03*
X917Y10423D03*
X996Y10423D03*
X1075Y10423D03*
X1154Y10423D03*
X917Y8583D03*
X996Y8583D03*
X1075Y8583D03*
X1154Y8583D03*
X921Y6745D03*
X999Y6745D03*
X1078Y6745D03*
X1157Y6745D03*
X921Y4905D03*
X999Y4905D03*
X1078Y4905D03*
X1157Y4905D03*
X921Y3064D03*
X1000Y3064D03*
X1079Y3064D03*
X1158Y3064D03*
X921Y1224D03*
X1000Y1224D03*
X1079Y1224D03*
X1158Y1224D03*
X917Y11113D03*
X996Y11113D03*
X1075Y11113D03*
X1154Y11113D03*
X916Y14794D03*
X995Y14794D03*
X1074Y14794D03*
X1153Y14794D03*
X916Y12954D03*
X995Y12954D03*
X1074Y12954D03*
X1153Y12954D03*
X917Y9273D03*
X996Y9273D03*
X1075Y9273D03*
X1154Y9273D03*
X921Y7435D03*
X999Y7435D03*
X1078Y7435D03*
X1157Y7435D03*
X921Y5595D03*
X999Y5595D03*
X1078Y5595D03*
X1157Y5595D03*
X921Y3754D03*
X1000Y3754D03*
X1079Y3754D03*
X1158Y3754D03*
X921Y1914D03*
X1000Y1914D03*
X1079Y1914D03*
X1158Y1914D03*
G54D10*
X211Y12379D03*
X411Y12379D03*
X212Y10538D03*
X412Y10538D03*
X211Y14219D03*
X411Y14219D03*
X212Y8698D03*
X412Y8698D03*
X216Y6860D03*
X416Y6860D03*
X216Y5020D03*
X416Y5020D03*
X216Y3179D03*
X416Y3179D03*
X216Y1339D03*
X416Y1339D03*
X656Y15029D03*
X856Y15029D03*
X656Y14939D03*
X856Y14939D03*
X211Y12974D03*
X411Y12974D03*
X212Y11133D03*
X412Y11133D03*
X211Y14814D03*
X411Y14814D03*
X212Y9293D03*
X412Y9293D03*
X216Y7455D03*
X416Y7455D03*
X216Y5615D03*
X416Y5615D03*
X216Y3774D03*
X416Y3774D03*
X216Y1934D03*
X416Y1934D03*
X112Y10143D03*
X112Y10443D03*
X212Y10143D03*
X212Y10443D03*
X312Y10143D03*
X312Y10443D03*
X412Y10143D03*
X412Y10443D03*
X512Y10143D03*
X512Y10443D03*
X612Y10143D03*
X612Y10443D03*
X712Y10143D03*
X712Y10443D03*
X812Y10143D03*
X812Y10443D03*
X111Y13824D03*
X111Y14124D03*
X211Y13824D03*
X211Y14124D03*
X311Y13824D03*
X311Y14124D03*
X411Y13824D03*
X411Y14124D03*
X511Y13824D03*
X511Y14124D03*
X611Y13824D03*
X611Y14124D03*
X711Y13824D03*
X711Y14124D03*
X811Y13824D03*
X811Y14124D03*
X111Y11984D03*
X111Y12284D03*
X211Y11984D03*
X211Y12284D03*
X311Y11984D03*
X311Y12284D03*
X411Y11984D03*
X411Y12284D03*
X511Y11984D03*
X511Y12284D03*
X611Y11984D03*
X611Y12284D03*
X711Y11984D03*
X711Y12284D03*
X811Y11984D03*
X811Y12284D03*
X112Y8303D03*
X112Y8603D03*
X212Y8303D03*
X212Y8603D03*
X312Y8303D03*
X312Y8603D03*
X412Y8303D03*
X412Y8603D03*
X512Y8303D03*
X512Y8603D03*
X612Y8303D03*
X612Y8603D03*
X712Y8303D03*
X712Y8603D03*
X812Y8303D03*
X812Y8603D03*
X116Y6465D03*
X116Y6765D03*
X216Y6465D03*
X216Y6765D03*
X316Y6465D03*
X316Y6765D03*
X416Y6465D03*
X416Y6765D03*
X516Y6465D03*
X516Y6765D03*
X616Y6465D03*
X616Y6765D03*
X716Y6465D03*
X716Y6765D03*
X816Y6465D03*
X816Y6765D03*
X116Y4625D03*
X116Y4925D03*
X216Y4625D03*
X216Y4925D03*
X316Y4625D03*
X316Y4925D03*
X416Y4625D03*
X416Y4925D03*
X516Y4625D03*
X516Y4925D03*
X616Y4625D03*
X616Y4925D03*
X716Y4625D03*
X716Y4925D03*
X816Y4625D03*
X816Y4925D03*
X116Y2784D03*
X116Y3084D03*
X216Y2784D03*
X216Y3084D03*
X316Y2784D03*
X316Y3084D03*
X416Y2784D03*
X416Y3084D03*
X516Y2784D03*
X516Y3084D03*
X616Y2784D03*
X616Y3084D03*
X716Y2784D03*
X716Y3084D03*
X816Y2784D03*
X816Y3084D03*
X116Y944D03*
X116Y1244D03*
X216Y944D03*
X216Y1244D03*
X316Y944D03*
X316Y1244D03*
X416Y944D03*
X416Y1244D03*
X516Y944D03*
X516Y1244D03*
X616Y944D03*
X616Y1244D03*
X716Y944D03*
X716Y1244D03*
X816Y944D03*
X816Y1244D03*
X111Y12579D03*
X111Y12879D03*
X211Y12579D03*
X211Y12879D03*
X311Y12579D03*
X311Y12879D03*
X411Y12579D03*
X411Y12879D03*
X511Y12579D03*
X511Y12879D03*
X611Y12579D03*
X611Y12879D03*
X711Y12579D03*
X711Y12879D03*
X811Y12579D03*
X811Y12879D03*
X112Y10738D03*
X112Y11038D03*
X212Y10738D03*
X212Y11038D03*
X312Y10738D03*
X312Y11038D03*
X412Y10738D03*
X412Y11038D03*
X512Y10738D03*
X512Y11038D03*
X612Y10738D03*
X612Y11038D03*
X712Y10738D03*
X712Y11038D03*
X812Y10738D03*
X812Y11038D03*
X111Y14419D03*
X111Y14719D03*
X211Y14419D03*
X211Y14719D03*
X311Y14419D03*
X311Y14719D03*
X411Y14419D03*
X411Y14719D03*
X511Y14419D03*
X511Y14719D03*
X611Y14419D03*
X611Y14719D03*
X711Y14419D03*
X711Y14719D03*
X811Y14419D03*
X811Y14719D03*
X112Y8898D03*
X112Y9198D03*
X212Y8898D03*
X212Y9198D03*
X312Y8898D03*
X312Y9198D03*
X412Y8898D03*
X412Y9198D03*
X512Y8898D03*
X512Y9198D03*
X612Y8898D03*
X612Y9198D03*
X712Y8898D03*
X712Y9198D03*
X812Y8898D03*
X812Y9198D03*
X116Y7060D03*
X116Y7360D03*
X216Y7060D03*
X216Y7360D03*
X316Y7060D03*
X316Y7360D03*
X416Y7060D03*
X416Y7360D03*
X516Y7060D03*
X516Y7360D03*
X616Y7060D03*
X616Y7360D03*
X716Y7060D03*
X716Y7360D03*
X816Y7060D03*
X816Y7360D03*
X116Y5220D03*
X116Y5520D03*
X216Y5220D03*
X216Y5520D03*
X316Y5220D03*
X316Y5520D03*
X416Y5220D03*
X416Y5520D03*
X516Y5220D03*
X516Y5520D03*
X616Y5220D03*
X616Y5520D03*
X716Y5220D03*
X716Y5520D03*
X816Y5220D03*
X816Y5520D03*
X116Y3379D03*
X116Y3679D03*
X216Y3379D03*
X216Y3679D03*
X316Y3379D03*
X316Y3679D03*
X416Y3379D03*
X416Y3679D03*
X516Y3379D03*
X516Y3679D03*
X616Y3379D03*
X616Y3679D03*
X716Y3379D03*
X716Y3679D03*
X816Y3379D03*
X816Y3679D03*
X116Y1539D03*
X116Y1839D03*
X216Y1539D03*
X216Y1839D03*
X316Y1539D03*
X316Y1839D03*
X416Y1539D03*
X416Y1839D03*
X516Y1539D03*
X516Y1839D03*
X616Y1539D03*
X616Y1839D03*
X716Y1539D03*
X716Y1839D03*
X816Y1539D03*
X816Y1839D03*
G54D13*
X472Y10613D03*
X572Y10613D03*
X471Y14294D03*
X571Y14294D03*
X471Y12454D03*
X571Y12454D03*
X472Y8773D03*
X572Y8773D03*
X476Y6935D03*
X576Y6935D03*
X476Y5095D03*
X576Y5095D03*
X476Y3254D03*
X576Y3254D03*
X476Y1414D03*
X576Y1414D03*
X456Y13054D03*
X556Y13054D03*
X457Y11213D03*
X557Y11213D03*
X457Y9373D03*
X557Y9373D03*
X461Y7535D03*
X561Y7535D03*
X461Y5695D03*
X561Y5695D03*
X461Y3854D03*
X561Y3854D03*
X461Y2014D03*
X561Y2014D03*
X101Y14309D03*
X202Y14309D03*
X102Y10628D03*
X203Y10628D03*
X101Y12469D03*
X202Y12469D03*
X102Y8788D03*
X203Y8788D03*
X106Y6950D03*
X206Y6950D03*
X106Y5110D03*
X206Y5110D03*
X106Y3269D03*
X207Y3269D03*
X106Y1429D03*
X207Y1429D03*
X101Y13064D03*
X202Y13064D03*
X102Y11223D03*
X203Y11223D03*
X126Y14914D03*
X227Y14914D03*
X102Y9383D03*
X203Y9383D03*
X106Y7545D03*
X206Y7545D03*
X106Y5705D03*
X206Y5705D03*
X106Y3864D03*
X207Y3864D03*
X106Y2024D03*
X207Y2024D03*
G54D11*
X1161Y10354D03*
X1161Y12189D03*
X1171Y14034D03*
X1172Y8513D03*
X1176Y6675D03*
X1176Y4835D03*
X1176Y2994D03*
X1176Y1154D03*
X1151Y14679D03*
X1151Y12839D03*
X1152Y10998D03*
X1152Y9158D03*
X1156Y7320D03*
X1156Y5480D03*
X1156Y3639D03*
X1156Y1799D03*
G54D14*
X441Y624D03*
X541Y624D03*
X641Y624D03*
X741Y624D03*
X841Y624D03*
X441Y624D03*
X541Y624D03*
X641Y624D03*
X741Y624D03*
X841Y624D03*
X841Y724D03*
X741Y724D03*
X641Y724D03*
X541Y724D03*
X441Y724D03*
G54D10*
X371Y14984D03*
X471Y14984D03*
G54D11*
X966Y794D03*
G54D15*
X141Y624D03*
X112Y13180D03*
X113Y11339D03*
X113Y9499D03*
X116Y7660D03*
X116Y5820D03*
X117Y3980D03*
X117Y2140D03*
X112Y10143D03*
X111Y13824D03*
X111Y11984D03*
X112Y8303D03*
X116Y6465D03*
X116Y4625D03*
X116Y2784D03*
X116Y944D03*
X111Y12579D03*
X112Y10738D03*
X111Y14419D03*
X112Y8898D03*
X116Y7060D03*
X116Y5220D03*
X116Y3379D03*
X116Y1539D03*
X371Y14984D03*
G04 End of Mask1*
M02*