; NON-PLATED HOLES START AT T1
; THROUGH (PLATED) HOLES START AT T100
M48
INCH
T100C0.030000
T101C0.038000
T102C0.015748
T103C0.035000
T104C0.025000
%
T100
X002266Y149142
X005714Y142942
X005564Y130542
X002016Y143092
X002066Y020242
X004764Y032542
X002057Y051101
X002125Y099984
X005523Y081584
X002157Y063201
X001064Y038642
X001055Y069501
X004755Y050951
X004723Y087734
X001064Y014292
X001364Y007792
X002025Y093834
X004573Y093734
X001064Y032692
X001164Y026392
X004614Y038542
X005514Y118392
X005605Y075351
X002125Y081584
X001023Y087884
X001264Y149142
X005514Y136792
X001014Y143092
X004605Y056951
X005555Y044801
X001064Y020242
X001055Y051101
X001123Y099984
X004564Y026392
X005764Y014142
X002025Y106284
X001155Y063201
X005764Y032542
X002057Y057051
X004755Y069351
X002016Y124692
X002116Y118392
X002057Y075451
X001023Y093834
X004614Y020142
X005755Y050951
X004523Y099984
X005723Y087734
X004723Y106134
X002116Y136792
X002157Y044801
X004555Y063201
X005573Y093734
X002025Y112234
X001123Y081584
X004573Y112134
X004714Y124542
X005614Y038542
X002016Y130642
X004714Y142942
X004564Y130542
X001023Y106284
X005605Y056951
X001055Y057051
X005564Y026392
X004523Y081584
X001014Y124692
X001114Y118392
X001055Y075451
X005755Y069351
X001114Y136792
X002066Y038642
X001155Y044801
X002057Y069501
X005614Y020142
X002066Y014292
X005523Y099984
X001023Y112234
X002366Y007792
X005723Y106134
X004514Y118392
X002066Y032692
X002166Y026392
X004605Y075351
X005555Y063201
X001014Y130642
X005573Y112134
X004514Y136792
X005714Y124542
X004555Y044801
X004764Y014142
X002025Y087884
T101
X007414Y007242
X008414Y007242
X004414Y006242
X004414Y007242
X005414Y006242
X006414Y006242
X005414Y007242
X006414Y007242
X007414Y006242
X008414Y006242
T102
X010814Y134842
X010864Y042842
X007923Y096334
X011555Y054801
X010823Y098034
X011755Y048351
X009223Y114734
X011523Y109984
X011555Y073201
X007764Y132542
X011755Y066751
X009664Y007942
X009255Y059551
X007773Y095734
X009023Y114134
X011614Y121892
X011764Y011542
X009255Y077951
X011523Y091584
X007923Y114734
X011614Y103542
X009264Y022742
X009055Y058951
X010855Y061251
X007805Y058951
X011714Y140342
X010823Y116434
X011564Y017992
X009264Y041142
X009055Y077351
X011723Y085134
X007805Y077351
X009214Y133142
X007814Y022142
X011514Y128392
X007955Y059551
X011564Y036392
X009064Y022142
X007814Y040542
X011514Y146792
X009223Y096334
X009014Y132542
X007955Y077951
X009064Y040542
X007964Y022742
X011764Y029942
X007773Y114134
X009023Y095734
X010855Y079651
X007914Y133142
X010864Y024442
X007964Y041142
T103
X006164Y015392
X001123Y086034
X004122Y131795
X002123Y091984
X007114Y141242
X004114Y144192
X003155Y046251
X004164Y027842
X003163Y076603
X004155Y073601
X002164Y019342
X007123Y101434
X008172Y039795
X006172Y024395
X002164Y033792
X003155Y052201
X006114Y125792
X002131Y116386
X008164Y015392
X003123Y086034
X004123Y091984
X002114Y122842
X002173Y098984
X006114Y144192
X005155Y046251
X006164Y027842
X004164Y012442
X002172Y042795
X002155Y050201
X005163Y076603
X003163Y061203
X006122Y134795
X002205Y062201
X002114Y141242
X008172Y024395
X001172Y021395
X005155Y052201
X008114Y125792
X005123Y086034
X006123Y091984
X004164Y036792
X004114Y122842
X002155Y074551
X004173Y098984
X008114Y144192
X007155Y046251
X007123Y110384
X008164Y027842
X006164Y012442
X004172Y042795
X004155Y050201
X007163Y076603
X001155Y067651
X005163Y061203
X008122Y134795
X004205Y062201
X001122Y131795
X004114Y141242
X003172Y021395
X007155Y052201
X001155Y073601
X002164Y030842
X008123Y091984
X003714Y149842
X006164Y036792
X006114Y122842
X004155Y074551
X008164Y012442
X003155Y067651
X007163Y061203
X006564Y149393
X003122Y131795
X006114Y141242
X002164Y135792
X001123Y107384
X005172Y021395
X002114Y123792
X003155Y073601
X004164Y013392
X008164Y036792
X008114Y122842
X004214Y025392
X001164Y033792
X002114Y142192
X001131Y116386
X005155Y067651
X008564Y149393
X002123Y086034
X005122Y131795
X008114Y141242
X003123Y107384
X007172Y021395
X002164Y009442
X001163Y058203
X001172Y042795
X004114Y123792
X005155Y073601
X002131Y097986
X003164Y033792
X004114Y142192
X003131Y116386
X007155Y067651
X004123Y086034
X007122Y131795
X005123Y107384
X006155Y046251
X002164Y031792
X003172Y042795
X002214Y043792
X007155Y073601
X001123Y104434
X005164Y033792
X006155Y052201
X005131Y116386
X002155Y064651
X001164Y030842
X006123Y086034
X002164Y018392
X007123Y091984
X008155Y046251
X005172Y042795
X008163Y076603
X002155Y070601
X003123Y104434
X007164Y033792
X008155Y052201
X007131Y116386
X004155Y064651
X003164Y030842
X008123Y086034
X001123Y083034
X007172Y042795
X008163Y061203
X001163Y079603
X001123Y088984
X004155Y070601
X005123Y104434
X002123Y107384
X006172Y021395
X001164Y009442
X002131Y113386
X005164Y030842
X001131Y097986
X003123Y083034
X006155Y067651
X003123Y088984
X006122Y131795
X001114Y119842
X002114Y129742
X004123Y107384
X008172Y021395
X003164Y009442
X002163Y058203
X006155Y073601
X004164Y019342
X001114Y138242
X007164Y030842
X003131Y097986
X005123Y083034
X002114Y148142
X004164Y033792
X004131Y116386
X008155Y067651
X001155Y064651
X005123Y088984
X008122Y131795
X003114Y119842
X001164Y018392
X004114Y129742
X006123Y107384
X005164Y009442
X004163Y058203
X008155Y073601
X003114Y138242
X001155Y070601
X002123Y104434
X005131Y097986
X004114Y148142
X006164Y033792
X006131Y116386
X001114Y128792
X003155Y064651
X007123Y086034
X005114Y119842
X003164Y018392
X002164Y037742
X008123Y107384
X007164Y009442
X001114Y147192
X006163Y058203
X006172Y042795
X005114Y138242
X003155Y070601
X004123Y104434
X007131Y097986
X008164Y033792
X008131Y116386
X003114Y128792
X001131Y113386
X005155Y064651
X004164Y030842
X007114Y119842
X005164Y018392
X002123Y083034
X002205Y080601
X003114Y147192
X002155Y049251
X008172Y042795
X002163Y079603
X002123Y088984
X007114Y138242
X005155Y070601
X006123Y104434
X002131Y094986
X004164Y135792
X002155Y055201
X005114Y128792
X003131Y113386
X007155Y064651
X006164Y030842
X007164Y018392
X004123Y083034
X004205Y080601
X002123Y105384
X005114Y147192
X004155Y049251
X004163Y079603
X004123Y088984
X007155Y070601
X002114Y119842
X008123Y104434
X001123Y101434
X004164Y009442
X002172Y039795
X002123Y111334
X003163Y058203
X004155Y055201
X007114Y128792
X005131Y113386
X002114Y138242
X008164Y030842
X004131Y097986
X006123Y083034
X002164Y015392
X004123Y105384
X007114Y147192
X002414Y006242
X006163Y079603
X006123Y088984
X004114Y119842
X003123Y101434
X007123Y107384
X006164Y009442
X004172Y039795
X004164Y031792
X002172Y024395
X004123Y111334
X005163Y058203
X004214Y043792
X007131Y113386
X004114Y138242
X006131Y097986
X008123Y083034
X002114Y128792
X001123Y110384
X002164Y027842
X008123Y088984
X001163Y076603
X006114Y119842
X004164Y018392
X002122Y134795
X002155Y056151
X005123Y101434
X008164Y009442
X002114Y147192
X004172Y024395
X007163Y058203
X001155Y049251
X006114Y138242
X008131Y097986
X001131Y094986
X001155Y055201
X004114Y128792
X003123Y110384
X002164Y012442
X006155Y064651
X001163Y061203
X008114Y119842
X006164Y018392
X004122Y134795
X004155Y056151
X004114Y147192
X003155Y049251
X002155Y068601
X003163Y079603
X008114Y138242
X006155Y070601
X007123Y104434
X003131Y094986
X001172Y039795
X002164Y036792
X003155Y055201
X006114Y128792
X004131Y113386
X005123Y110384
X008155Y064651
X002123Y086984
X008164Y018392
X001164Y015392
X006114Y147192
X001414Y006242
X005155Y049251
X004155Y068601
X005163Y079603
X008155Y070601
X002123Y092934
X002123Y101434
X005131Y094986
X003172Y039795
X001172Y024395
X005155Y055201
X008114Y128792
X006131Y113386
X001114Y125792
X004123Y086984
X007123Y083034
X003164Y015392
X008114Y147192
X007155Y049251
X001114Y144192
X007163Y079603
X001164Y027842
X007123Y088984
X004123Y092934
X001122Y134795
X004123Y101434
X007131Y094986
X002164Y013392
X005172Y039795
X003172Y024395
X002214Y025392
X007155Y055201
X008131Y113386
X003114Y125792
X005164Y015392
X001123Y091984
X003114Y144192
X002155Y046251
X002123Y110384
X003164Y027842
X001164Y012442
X002163Y076603
X003122Y134795
X004164Y037742
X006123Y101434
X007172Y039795
X005172Y024395
X008163Y058203
X002155Y052201
X005114Y125792
X007164Y015392
X003123Y091984
X001164Y036792
X001114Y122842
X005114Y144192
X004155Y046251
X004123Y110384
X005164Y027842
X003164Y012442
X004163Y076603
X002163Y061203
X005122Y134795
X002173Y117384
X008123Y101434
X001114Y141242
X007172Y024395
X004155Y052201
X007114Y125792
X004131Y094986
X005123Y091984
X003164Y036792
X003114Y122842
X006564Y150292
X007114Y144192
X006123Y110384
X007164Y027842
X005164Y012442
X006163Y076603
X004163Y061203
X007122Y134795
X004173Y117384
X003114Y141242
X006155Y049251
X002172Y021395
X006131Y094986
X005164Y036792
X005114Y122842
X006155Y055201
X008564Y150292
X002114Y125792
X008123Y110384
X007164Y012442
X002155Y067651
X006163Y061203
X004164Y015392
X002122Y131795
X005114Y141242
X008155Y049251
X002114Y144192
X004172Y021395
X001155Y046251
X008163Y079603
X002155Y073601
X008131Y094986
X006172Y039795
X004714Y149842
X007164Y036792
X007114Y122842
X008155Y055201
X001155Y052201
X004114Y125792
X004155Y067651
T104
X011567Y078951
X011567Y067451
X009961Y101934
X009173Y101934
X009993Y076651
X010747Y095034
X009993Y065151
X009952Y138742
X009205Y078951
X009952Y127242
X010788Y037542
X009205Y067451
X010788Y026042
X010779Y081251
X010738Y147942
X010738Y136442
X011535Y113434
X009993Y046751
X009961Y095034
X009173Y095034
X010779Y062851
X009214Y039842
X010779Y051351
X009214Y028342
X011567Y076651
X011567Y065151
X009993Y074351
X009952Y147942
X009952Y136442
X009205Y076651
X010788Y035242
X009205Y065151
X009164Y129542
X010738Y145642
X010738Y134142
X011535Y111134
X009214Y009942
X011567Y046751
X010747Y085834
X009993Y055951
X010002Y019142
X011535Y099634
X010788Y016842
X009205Y046751
X011535Y088134
X010747Y118034
X010779Y060551
X009214Y037542
X011576Y019142
X009214Y026042
X011567Y074351
X009993Y072051
X009952Y145642
X009952Y134142
X009205Y074351
X010788Y044442
X011526Y129542
X009961Y085834
X009173Y085834
X009164Y138742
X009164Y127242
X009961Y118034
X009173Y118034
X010738Y143342
X011567Y055951
X010002Y039842
X010747Y083534
X009993Y053651
X010002Y028342
X009205Y055951
X011535Y097334
X010788Y014542
X011576Y039842
X009214Y035242
X011576Y028342
X011567Y072051
X010738Y124942
X009993Y081251
X011535Y101934
X009952Y143342
X009205Y072051
X010788Y042142
X011526Y138742
X011526Y127242
X009164Y147942
X010002Y009942
X009164Y136442
X009961Y083534
X009173Y083534
X010747Y108834
X010738Y141042
X009214Y016842
X011576Y009942
X011567Y053651
X010747Y092734
X010002Y037542
X009993Y062851
X009993Y051351
X010002Y026042
X009952Y124942
X009205Y053651
X010788Y023742
X011535Y095034
X010788Y012242
X011576Y037542
X009214Y044442
X010779Y049051
X011576Y026042
X011567Y081251
X009961Y108834
X009173Y108834
X010738Y122642
X009952Y141042
X009205Y081251
X011526Y147942
X011526Y136442
X009961Y092734
X009173Y092734
X009164Y145642
X009164Y134142
X010747Y106534
X009214Y014542
X011567Y062851
X011567Y051351
X010747Y090434
X010002Y035242
X009993Y060551
X009952Y122642
X010788Y032942
X009205Y062851
X010788Y021442
X009205Y051351
X010779Y069751
X010779Y058251
X011576Y035242
X009214Y042142
X009961Y106534
X009173Y106534
X010738Y131842
X010738Y120342
X011526Y145642
X011526Y134142
X010002Y016842
X009164Y143342
X009961Y090434
X009173Y090434
X011535Y085834
X010747Y115734
X010747Y104234
X011576Y016842
X009214Y023742
X009214Y012242
X011535Y118034
X011567Y060551
X010002Y044442
X009952Y131842
X009952Y120342
X010788Y030642
X009205Y060551
X010779Y078951
X009164Y124942
X010779Y067451
X011576Y044442
X009961Y115734
X009173Y115734
X009961Y104234
X009173Y104234
X011526Y143342
X010002Y014542
X009164Y141042
X011535Y083534
X010747Y113434
X009214Y032942
X009214Y021442
X011576Y014542
X010002Y042142
X009993Y049051
X011526Y124942
X010779Y076651
X009164Y122642
X010779Y065151
X011576Y042142
X009961Y113434
X009173Y113434
X011535Y108834
X011526Y141042
X010002Y023742
X010002Y012242
X011535Y092734
X010747Y111134
X009214Y030642
X010779Y046751
X011576Y023742
X011576Y012242
X010747Y099634
X011567Y049051
X009993Y069751
X010747Y088134
X009993Y058251
X011526Y122642
X010788Y019142
X009205Y049051
X009164Y131842
X010779Y074351
X009164Y120342
X009961Y111134
X009173Y111134
X010738Y129542
X011535Y106534
X010002Y032942
X010002Y021442
X009961Y099634
X009173Y099634
X009961Y088134
X009173Y088134
X011535Y090434
X010779Y055951
X011576Y032942
X011576Y021442
X011567Y069751
X011567Y058251
X009993Y078951
X010747Y097334
X009993Y067451
X009952Y129542
X010788Y039842
X009205Y069751
X011526Y131842
X009205Y058251
X010788Y028342
X011526Y120342
X010779Y072051
X010747Y101934
X010738Y138742
X011535Y115734
X010738Y127242
X011535Y104234
X010002Y030642
X009961Y097334
X009173Y097334
X010788Y009942
X011576Y030642
X010779Y053651
X009214Y019142
T00
M30
