G04 MADE WITH FRITZING*
G04 WWW.FRITZING.ORG*
G04 DOUBLE SIDED*
G04 HOLES PLATED*
G04 CONTOUR ON CENTER OF CONTOUR VECTOR*
%ASAXBY*%
%FSLAX23Y23*%
%MOIN*%
%OFA0B0*%
%SFA1.0B1.0*%
%ADD10C,0.039370*%
%ADD11C,0.070000*%
%ADD12C,0.070866*%
%ADD13C,0.066929*%
%ADD14R,0.080000X0.026000*%
%ADD15C,0.016000*%
%ADD16C,0.008000*%
%ADD17C,0.024000*%
%ADD18C,0.012000*%
%ADD19C,0.032000*%
%ADD20R,0.001000X0.001000*%
%LNCOPPER1*%
G90*
G70*
G54D10*
X375Y78D03*
X588Y153D03*
X275Y73D03*
G54D11*
X290Y208D03*
X290Y309D03*
X360Y208D03*
X360Y309D03*
G54D12*
X910Y243D03*
X910Y343D03*
X1010Y43D03*
X910Y43D03*
X1010Y343D03*
X1010Y143D03*
X910Y143D03*
X1010Y243D03*
X205Y243D03*
G54D13*
X420Y373D03*
G54D12*
X105Y243D03*
X105Y143D03*
X105Y43D03*
X105Y343D03*
X205Y143D03*
X205Y343D03*
G54D13*
X830Y373D03*
G54D12*
X205Y43D03*
G54D10*
X825Y298D03*
X678Y383D03*
X628Y93D03*
X588Y233D03*
G54D14*
X498Y383D03*
X498Y333D03*
X498Y283D03*
X498Y233D03*
X498Y183D03*
X498Y133D03*
X498Y83D03*
X498Y33D03*
X740Y33D03*
X740Y83D03*
X740Y133D03*
X740Y183D03*
X740Y233D03*
X740Y283D03*
X740Y333D03*
X740Y383D03*
G54D15*
X400Y83D02*
X464Y83D01*
D02*
X446Y134D02*
X255Y134D01*
G54D16*
D02*
X260Y158D02*
X225Y193D01*
D02*
X225Y193D02*
X146Y194D01*
G54D15*
D02*
X305Y33D02*
X464Y33D01*
D02*
X283Y63D02*
X305Y33D01*
D02*
X255Y134D02*
X230Y139D01*
D02*
X559Y183D02*
X533Y183D01*
D02*
X579Y163D02*
X559Y183D01*
D02*
X388Y81D02*
X400Y83D01*
D02*
X464Y134D02*
X446Y134D01*
G54D16*
D02*
X455Y234D02*
X405Y159D01*
D02*
X405Y159D02*
X260Y158D01*
D02*
X146Y194D02*
X121Y163D01*
D02*
X464Y234D02*
X455Y234D01*
G54D17*
D02*
X464Y379D02*
X449Y377D01*
G54D18*
D02*
X658Y233D02*
X706Y233D01*
D02*
X658Y299D02*
X658Y233D01*
D02*
X588Y383D02*
X658Y299D01*
D02*
X533Y383D02*
X588Y383D01*
G54D15*
D02*
X818Y354D02*
X805Y333D01*
G54D17*
D02*
X706Y383D02*
X697Y383D01*
D02*
X805Y284D02*
X775Y284D01*
D02*
X810Y287D02*
X805Y284D01*
G54D15*
D02*
X885Y303D02*
X835Y228D01*
D02*
X835Y228D02*
X805Y183D01*
D02*
X805Y183D02*
X775Y183D01*
D02*
X897Y322D02*
X885Y303D01*
G54D18*
D02*
X1010Y418D02*
X515Y423D01*
D02*
X1060Y383D02*
X1010Y418D01*
D02*
X515Y423D02*
X501Y391D01*
D02*
X1060Y278D02*
X1060Y383D01*
D02*
X1031Y258D02*
X1060Y278D01*
G54D15*
D02*
X835Y133D02*
X775Y133D01*
D02*
X896Y223D02*
X835Y133D01*
D02*
X875Y83D02*
X775Y83D01*
D02*
X897Y122D02*
X875Y83D01*
D02*
X875Y33D02*
X775Y33D01*
D02*
X886Y37D02*
X875Y33D01*
G54D18*
D02*
X573Y333D02*
X533Y333D01*
D02*
X628Y269D02*
X573Y333D01*
G54D19*
D02*
X328Y309D02*
X322Y309D01*
G54D17*
D02*
X334Y208D02*
X316Y208D01*
G54D18*
D02*
X628Y107D02*
X628Y269D01*
D02*
X568Y284D02*
X533Y284D01*
D02*
X588Y263D02*
X568Y284D01*
D02*
X588Y247D02*
X588Y263D01*
G54D15*
D02*
X805Y333D02*
X775Y333D01*
G54D19*
D02*
X87Y412D02*
X475Y414D01*
D02*
X35Y244D02*
X35Y368D01*
D02*
X69Y244D02*
X35Y244D01*
G54D17*
D02*
X420Y274D02*
X420Y345D01*
D02*
X378Y228D02*
X420Y274D01*
G54D20*
X469Y429D02*
X479Y429D01*
X82Y428D02*
X90Y428D01*
X467Y428D02*
X481Y428D01*
X80Y427D02*
X92Y427D01*
X465Y427D02*
X483Y427D01*
X78Y426D02*
X94Y426D01*
X464Y426D02*
X484Y426D01*
X76Y425D02*
X95Y425D01*
X463Y425D02*
X485Y425D01*
X75Y424D02*
X96Y424D01*
X462Y424D02*
X486Y424D01*
X74Y423D02*
X98Y423D01*
X461Y423D02*
X487Y423D01*
X73Y422D02*
X98Y422D01*
X461Y422D02*
X487Y422D01*
X72Y421D02*
X99Y421D01*
X460Y421D02*
X488Y421D01*
X70Y420D02*
X100Y420D01*
X460Y420D02*
X489Y420D01*
X69Y419D02*
X100Y419D01*
X459Y419D02*
X490Y419D01*
X68Y418D02*
X100Y418D01*
X459Y418D02*
X490Y418D01*
X67Y417D02*
X101Y417D01*
X459Y417D02*
X491Y417D01*
X66Y416D02*
X101Y416D01*
X459Y416D02*
X492Y416D01*
X65Y415D02*
X101Y415D01*
X458Y415D02*
X493Y415D01*
X63Y414D02*
X101Y414D01*
X458Y414D02*
X494Y414D01*
X62Y413D02*
X101Y413D01*
X458Y413D02*
X494Y413D01*
X61Y412D02*
X101Y412D01*
X459Y412D02*
X495Y412D01*
X60Y411D02*
X101Y411D01*
X459Y411D02*
X496Y411D01*
X59Y410D02*
X101Y410D01*
X459Y410D02*
X497Y410D01*
X58Y409D02*
X101Y409D01*
X459Y409D02*
X497Y409D01*
X56Y408D02*
X101Y408D01*
X460Y408D02*
X498Y408D01*
X55Y407D02*
X100Y407D01*
X460Y407D02*
X499Y407D01*
X54Y406D02*
X100Y406D01*
X461Y406D02*
X500Y406D01*
X53Y405D02*
X99Y405D01*
X461Y405D02*
X501Y405D01*
X52Y404D02*
X99Y404D01*
X462Y404D02*
X501Y404D01*
X50Y403D02*
X98Y403D01*
X463Y403D02*
X502Y403D01*
X49Y402D02*
X97Y402D01*
X463Y402D02*
X503Y402D01*
X48Y401D02*
X96Y401D01*
X464Y401D02*
X504Y401D01*
X47Y400D02*
X95Y400D01*
X465Y400D02*
X504Y400D01*
X46Y399D02*
X94Y399D01*
X466Y399D02*
X505Y399D01*
X45Y398D02*
X93Y398D01*
X467Y398D02*
X505Y398D01*
X43Y397D02*
X92Y397D01*
X467Y397D02*
X506Y397D01*
X42Y396D02*
X91Y396D01*
X468Y396D02*
X506Y396D01*
X41Y395D02*
X89Y395D01*
X469Y395D02*
X506Y395D01*
X40Y394D02*
X88Y394D01*
X470Y394D02*
X507Y394D01*
X39Y393D02*
X87Y393D01*
X470Y393D02*
X507Y393D01*
X38Y392D02*
X86Y392D01*
X471Y392D02*
X507Y392D01*
X36Y391D02*
X85Y391D01*
X472Y391D02*
X507Y391D01*
X35Y390D02*
X84Y390D01*
X473Y390D02*
X507Y390D01*
X34Y389D02*
X82Y389D01*
X473Y389D02*
X507Y389D01*
X33Y388D02*
X81Y388D01*
X474Y388D02*
X507Y388D01*
X32Y387D02*
X80Y387D01*
X475Y387D02*
X506Y387D01*
X30Y386D02*
X79Y386D01*
X476Y386D02*
X506Y386D01*
X29Y385D02*
X78Y385D01*
X477Y385D02*
X506Y385D01*
X28Y384D02*
X77Y384D01*
X477Y384D02*
X505Y384D01*
X27Y383D02*
X75Y383D01*
X478Y383D02*
X505Y383D01*
X26Y382D02*
X74Y382D01*
X479Y382D02*
X504Y382D01*
X25Y381D02*
X73Y381D01*
X480Y381D02*
X503Y381D01*
X24Y380D02*
X72Y380D01*
X481Y380D02*
X502Y380D01*
X23Y379D02*
X71Y379D01*
X482Y379D02*
X501Y379D01*
X22Y378D02*
X69Y378D01*
X483Y378D02*
X500Y378D01*
X21Y377D02*
X68Y377D01*
X485Y377D02*
X498Y377D01*
X21Y376D02*
X67Y376D01*
X487Y376D02*
X496Y376D01*
X20Y375D02*
X66Y375D01*
X20Y374D02*
X65Y374D01*
X20Y373D02*
X64Y373D01*
X19Y372D02*
X62Y372D01*
X19Y371D02*
X61Y371D01*
X19Y370D02*
X60Y370D01*
X19Y369D02*
X59Y369D01*
X19Y368D02*
X58Y368D01*
X19Y367D02*
X57Y367D01*
X19Y366D02*
X55Y366D01*
X19Y365D02*
X54Y365D01*
X20Y364D02*
X53Y364D01*
X20Y363D02*
X52Y363D01*
X21Y362D02*
X51Y362D01*
X21Y361D02*
X49Y361D01*
X22Y360D02*
X48Y360D01*
X22Y359D02*
X47Y359D01*
X23Y358D02*
X46Y358D01*
X24Y357D02*
X45Y357D01*
X25Y356D02*
X43Y356D01*
X27Y355D02*
X42Y355D01*
X29Y354D02*
X40Y354D01*
X33Y353D02*
X36Y353D01*
D02*
G04 End of Copper1*
M02*