G04 MADE WITH FRITZING*
G04 WWW.FRITZING.ORG*
G04 DOUBLE SIDED*
G04 HOLES PLATED*
G04 CONTOUR ON CENTER OF CONTOUR VECTOR*
%ASAXBY*%
%FSLAX23Y23*%
%MOIN*%
%OFA0B0*%
%SFA1.0B1.0*%
%ADD10C,0.039370*%
%ADD11C,0.070000*%
%ADD12C,0.070866*%
%ADD13C,0.066929*%
%ADD14C,0.048000*%
%ADD15C,0.032000*%
%ADD16C,0.016000*%
%ADD17C,0.008000*%
%ADD18R,0.001000X0.001000*%
%LNCOPPER0*%
G90*
G70*
G54D10*
X375Y78D03*
X588Y153D03*
X275Y73D03*
G54D11*
X290Y208D03*
X290Y309D03*
X360Y208D03*
X360Y309D03*
G54D12*
X910Y243D03*
X910Y343D03*
X1010Y43D03*
X910Y43D03*
X1010Y343D03*
X1010Y143D03*
X910Y143D03*
X1010Y243D03*
X205Y243D03*
G54D13*
X420Y373D03*
G54D12*
X105Y243D03*
X105Y143D03*
X105Y43D03*
X105Y343D03*
X205Y143D03*
X205Y343D03*
G54D13*
X830Y373D03*
G54D12*
X205Y43D03*
G54D10*
X825Y298D03*
X678Y383D03*
X628Y93D03*
X588Y233D03*
G54D14*
X35Y293D02*
X35Y93D01*
D02*
X35Y93D02*
X71Y68D01*
D02*
X71Y319D02*
X35Y293D01*
G54D15*
D02*
X155Y414D02*
X245Y414D01*
G54D16*
D02*
X276Y139D02*
X230Y198D01*
D02*
X230Y198D02*
X217Y221D01*
D02*
X364Y85D02*
X276Y139D01*
D02*
X577Y145D02*
X425Y33D01*
D02*
X265Y34D02*
X230Y39D01*
D02*
X425Y33D02*
X265Y34D01*
G54D17*
D02*
X185Y93D02*
X155Y124D01*
D02*
X240Y94D02*
X185Y93D01*
D02*
X155Y124D02*
X155Y284D01*
D02*
X263Y80D02*
X240Y94D01*
D02*
X155Y284D02*
X189Y324D01*
D02*
X960Y93D02*
X641Y93D01*
D02*
X992Y61D02*
X960Y93D01*
D02*
X655Y194D02*
X960Y193D01*
D02*
X960Y193D02*
X992Y161D01*
D02*
X600Y227D02*
X655Y194D01*
D02*
X895Y294D02*
X838Y297D01*
D02*
X995Y294D02*
X895Y294D01*
D02*
X1003Y319D02*
X995Y294D01*
G54D15*
D02*
X540Y308D02*
X657Y372D01*
D02*
X392Y309D02*
X540Y308D01*
G54D18*
X149Y429D02*
X159Y429D01*
X240Y429D02*
X249Y429D01*
X147Y428D02*
X161Y428D01*
X238Y428D02*
X252Y428D01*
X146Y427D02*
X163Y427D01*
X236Y427D02*
X253Y427D01*
X144Y426D02*
X164Y426D01*
X235Y426D02*
X255Y426D01*
X143Y425D02*
X165Y425D01*
X234Y425D02*
X256Y425D01*
X142Y424D02*
X166Y424D01*
X233Y424D02*
X257Y424D01*
X142Y423D02*
X167Y423D01*
X232Y423D02*
X257Y423D01*
X141Y422D02*
X168Y422D01*
X231Y422D02*
X258Y422D01*
X140Y421D02*
X168Y421D01*
X231Y421D02*
X258Y421D01*
X140Y420D02*
X169Y420D01*
X230Y420D02*
X259Y420D01*
X139Y419D02*
X169Y419D01*
X230Y419D02*
X259Y419D01*
X138Y418D02*
X169Y418D01*
X230Y418D02*
X260Y418D01*
X137Y417D02*
X170Y417D01*
X229Y417D02*
X260Y417D01*
X137Y416D02*
X170Y416D01*
X229Y416D02*
X261Y416D01*
X136Y415D02*
X170Y415D01*
X229Y415D02*
X261Y415D01*
X135Y414D02*
X170Y414D01*
X229Y414D02*
X262Y414D01*
X135Y413D02*
X170Y413D01*
X229Y413D02*
X262Y413D01*
X134Y412D02*
X170Y412D01*
X229Y412D02*
X262Y412D01*
X133Y411D02*
X170Y411D01*
X229Y411D02*
X263Y411D01*
X132Y410D02*
X169Y410D01*
X230Y410D02*
X263Y410D01*
X132Y409D02*
X169Y409D01*
X230Y409D02*
X264Y409D01*
X131Y408D02*
X169Y408D01*
X230Y408D02*
X264Y408D01*
X130Y407D02*
X168Y407D01*
X231Y407D02*
X265Y407D01*
X130Y406D02*
X168Y406D01*
X231Y406D02*
X265Y406D01*
X129Y405D02*
X167Y405D01*
X232Y405D02*
X265Y405D01*
X128Y404D02*
X166Y404D01*
X232Y404D02*
X266Y404D01*
X127Y403D02*
X166Y403D01*
X232Y403D02*
X266Y403D01*
X127Y402D02*
X165Y402D01*
X233Y402D02*
X267Y402D01*
X126Y401D02*
X164Y401D01*
X233Y401D02*
X267Y401D01*
X125Y400D02*
X164Y400D01*
X234Y400D02*
X267Y400D01*
X125Y399D02*
X163Y399D01*
X234Y399D02*
X268Y399D01*
X124Y398D02*
X162Y398D01*
X235Y398D02*
X268Y398D01*
X123Y397D02*
X161Y397D01*
X235Y397D02*
X269Y397D01*
X122Y396D02*
X161Y396D01*
X235Y396D02*
X269Y396D01*
X122Y395D02*
X160Y395D01*
X236Y395D02*
X270Y395D01*
X121Y394D02*
X159Y394D01*
X236Y394D02*
X270Y394D01*
X120Y393D02*
X159Y393D01*
X237Y393D02*
X270Y393D01*
X120Y392D02*
X158Y392D01*
X237Y392D02*
X271Y392D01*
X119Y391D02*
X157Y391D01*
X238Y391D02*
X271Y391D01*
X118Y390D02*
X156Y390D01*
X238Y390D02*
X272Y390D01*
X117Y389D02*
X156Y389D01*
X238Y389D02*
X272Y389D01*
X117Y388D02*
X155Y388D01*
X239Y388D02*
X273Y388D01*
X116Y387D02*
X154Y387D01*
X239Y387D02*
X273Y387D01*
X115Y386D02*
X154Y386D01*
X240Y386D02*
X273Y386D01*
X115Y385D02*
X153Y385D01*
X240Y385D02*
X274Y385D01*
X114Y384D02*
X152Y384D01*
X241Y384D02*
X274Y384D01*
X113Y383D02*
X151Y383D01*
X241Y383D02*
X275Y383D01*
X113Y382D02*
X151Y382D01*
X241Y382D02*
X275Y382D01*
X112Y381D02*
X150Y381D01*
X242Y381D02*
X276Y381D01*
X111Y380D02*
X149Y380D01*
X242Y380D02*
X276Y380D01*
X111Y379D02*
X149Y379D01*
X243Y379D02*
X276Y379D01*
X111Y378D02*
X148Y378D01*
X243Y378D02*
X277Y378D01*
X110Y377D02*
X147Y377D01*
X244Y377D02*
X277Y377D01*
X110Y376D02*
X146Y376D01*
X244Y376D02*
X278Y376D01*
X110Y375D02*
X146Y375D01*
X244Y375D02*
X278Y375D01*
X110Y374D02*
X145Y374D01*
X245Y374D02*
X279Y374D01*
X110Y373D02*
X144Y373D01*
X245Y373D02*
X279Y373D01*
X110Y372D02*
X144Y372D01*
X246Y372D02*
X279Y372D01*
X110Y371D02*
X143Y371D01*
X246Y371D02*
X280Y371D01*
X110Y370D02*
X142Y370D01*
X247Y370D02*
X280Y370D01*
X111Y369D02*
X141Y369D01*
X247Y369D02*
X281Y369D01*
X111Y368D02*
X141Y368D01*
X247Y368D02*
X281Y368D01*
X111Y367D02*
X140Y367D01*
X248Y367D02*
X282Y367D01*
X112Y366D02*
X139Y366D01*
X248Y366D02*
X282Y366D01*
X113Y365D02*
X139Y365D01*
X249Y365D02*
X282Y365D01*
X113Y364D02*
X138Y364D01*
X249Y364D02*
X283Y364D01*
X114Y363D02*
X137Y363D01*
X249Y363D02*
X283Y363D01*
X115Y362D02*
X136Y362D01*
X250Y362D02*
X284Y362D01*
X116Y361D02*
X135Y361D01*
X250Y361D02*
X284Y361D01*
X118Y360D02*
X134Y360D01*
X251Y360D02*
X285Y360D01*
X119Y359D02*
X132Y359D01*
X251Y359D02*
X285Y359D01*
X122Y358D02*
X129Y358D01*
X252Y358D02*
X285Y358D01*
X252Y357D02*
X286Y357D01*
X252Y356D02*
X286Y356D01*
X253Y355D02*
X287Y355D01*
X253Y354D02*
X287Y354D01*
X254Y353D02*
X288Y353D01*
X254Y352D02*
X288Y352D01*
X255Y351D02*
X288Y351D01*
X255Y350D02*
X289Y350D01*
X255Y349D02*
X289Y349D01*
X256Y348D02*
X290Y348D01*
X256Y347D02*
X290Y347D01*
X257Y346D02*
X290Y346D01*
X257Y345D02*
X291Y345D01*
X258Y344D02*
X291Y344D01*
X258Y343D02*
X292Y343D01*
X258Y342D02*
X292Y342D01*
X259Y341D02*
X292Y341D01*
X259Y340D02*
X292Y340D01*
X260Y339D02*
X292Y339D01*
X260Y338D02*
X292Y338D01*
X261Y337D02*
X292Y337D01*
X261Y336D02*
X292Y336D01*
X261Y335D02*
X292Y335D01*
X262Y334D02*
X292Y334D01*
X262Y333D02*
X292Y333D01*
X263Y332D02*
X291Y332D01*
X263Y331D02*
X291Y331D01*
X264Y330D02*
X290Y330D01*
X264Y329D02*
X289Y329D01*
X265Y328D02*
X289Y328D01*
X266Y327D02*
X288Y327D01*
X267Y326D02*
X287Y326D01*
X268Y325D02*
X285Y325D01*
X270Y324D02*
X284Y324D01*
X273Y323D02*
X281Y323D01*
D02*
G04 End of Copper0*
M02*