; NON-PLATED HOLES START AT T1
; THROUGH (PLATED) HOLES START AT T100
M48
INCH
T100C0.015748
T101C0.030000
T102C0.035433
T103C0.039370
%
T100
X005880Y001533
X002750Y000733
X003750Y000783
X006280Y000933
X006780Y003833
X008250Y002983
X005880Y002333
T101
X003600Y003085
X002900Y003085
X003600Y002083
X002900Y002083
T102
X004200Y003733
X008300Y003733
T103
X010100Y000433
X009100Y000433
X010100Y001433
X001050Y000433
X002050Y000433
X009100Y001433
X010100Y002433
X001050Y001433
X002050Y001433
X009100Y002433
X010100Y003433
X001050Y002433
X002050Y002433
X009100Y003433
X001050Y003433
X002050Y003433
T00
M30
