<?xml version='1.0' encoding='UTF-8' standalone='no'?>
<!-- Created with Fritzing (http://www.fritzing.org/) -->
<svg xmlns="http://www.w3.org/2000/svg"  viewBox="0 0 77.3858 31.1811" xmlns:svg="http://www.w3.org/2000/svg" baseProfile="tiny" x="0in" version="1.2" y="0in" width="1.0748in" height="0.433071in">
 <g partID="68251">
  <g id="silkscreen">
   <rect stroke-width="0.576" fill="none" stroke="black" x="0.288" width="76.8098" y="0.288" height="30.6051"/>
  </g>
 </g>
 <g partID="68250">
  <g id="board">
   <rect stroke-width="0.5" fill-opacity="0.5" fill="none" stroke="black" x="0.288" width="76.8098" y="0.288" id="boardoutline" height="30.6051"/>
  </g>
 </g>
 <g partID="78530">
  <g transform="translate(14.3768,26.9867)">
   <g id="silkscreen">
    <text stroke-width="0" xmlns:xml="http://www.w3.org/XML/1998/namespace" text-anchor="middle" font-size="3.27074" x="11.4476" fill="black" y="2.94367" xml:space="preserve" id="label" font-family="OCRA">Claudio</text>
   </g>
  </g>
 </g>
 <g partID="78510">
  <g transform="translate(14.5696,23.1687)">
   <g id="silkscreen">
    <text stroke-width="0" xmlns:xml="http://www.w3.org/XML/1998/namespace" text-anchor="middle" font-size="3.27074" x="11.4476" fill="black" y="2.94367" xml:space="preserve" id="label" font-family="OCRA">Serge &amp;</text>
   </g>
  </g>
 </g>
 <g partID="78490">
  <g transform="translate(16.8536,19.1394)">
   <g id="silkscreen">
    <text stroke-width="0" xmlns:xml="http://www.w3.org/XML/1998/namespace" text-anchor="middle" font-size="3.27074" x="3.27074" fill="black" y="2.94367" xml:space="preserve" id="label" font-family="OCRA">by</text>
   </g>
  </g>
 </g>
 <g partID="69871">
  <g transform="translate(56.1648,1.56096)">
   <g transform="matrix(0,1,-1,0,0,0)">
    <g stroke-width="0" id="silkscreen">
     <g stroke-width="0">
      <title>element:E$1</title>
      <g stroke-width="0">
       <title>package:SO16</title>
       <line y1="6.048" y2="6.048" stroke-width="0.432" x1="27.936" x2="1.296" stroke-linecap="round" stroke="black"/>
       <path stroke-width="0.432" d="M27.936,17.136A1.08,1.08,0,0,0,29.016,16.056" fill="none" stroke="black"/>
       <path stroke-width="0.432" d="M1.296,6.048A1.08,1.08,0,0,0,0.216,7.128" fill="none" stroke="black"/>
       <path stroke-width="0.432" d="M29.016,7.128A1.08,1.08,0,0,0,27.936,6.048" fill="none" stroke="black"/>
       <path stroke-width="0.432" d="M0.216,16.056A1.08,1.08,0,0,0,1.296,17.136" fill="none" stroke="black"/>
       <line y1="17.136" y2="17.136" stroke-width="0.432" x1="1.296" x2="27.936" stroke-linecap="round" stroke="black"/>
       <line y1="16.056" y2="7.128" stroke-width="0.432" x1="29.016" x2="29.016" stroke-linecap="round" stroke="black"/>
       <line y1="7.128" y2="10.152" stroke-width="0.432" x1="0.216" x2="0.216" stroke-linecap="round" stroke="black"/>
       <line y1="10.152" y2="13.032" stroke-width="0.432" x1="0.216" x2="0.216" stroke-linecap="round" stroke="black"/>
       <line y1="13.032" y2="16.056" stroke-width="0.432" x1="0.216" x2="0.216" stroke-linecap="round" stroke="black"/>
       <path stroke-width="0.432" d="M0.216,13.032A1.44,1.44,0,1,0,0.216,10.152" fill="none" stroke="black"/>
       <line y1="16.128" y2="16.128" stroke-width="0.144" x1="0.216" x2="29.016" stroke-linecap="round" stroke="black"/>
      </g>
     </g>
    </g>
   </g>
  </g>
 </g>
 <g partID="68251">
  <g id="silkscreen">
   <rect stroke-width="0.576" fill="none" stroke="black" x="0.288" width="76.8098" y="0.288" height="30.6051"/>
  </g>
 </g>
 <g partID="67351">
  <g transform="translate(18.0048,19.057)">
   <g transform="matrix(0,-1,1,0,0,0)">
    <g id="silkscreen">
     <g transform="matrix(1, 0, 0, 1, -1.43333, -1.16)">
      <path stroke-width="0.576" d="m6.65907,2.30036a1.84667,1.58,0,0,1,2.51037,0.001464" style="stroke-linecap:round;stroke-linejoin:round;stroke-miterlimit:4;stroke-dasharray:none" stroke-opacity="1" stroke="black" fill="none" id="path2830"/>
     </g>
     <g transform="matrix(-1, 0, 0, -1, 14.3952, 6.92)">
      <path stroke-width="0.576" d="m6.65907,2.30036a1.84667,1.58,0,0,1,2.51037,0.001464" style="stroke-linecap:round;stroke-linejoin:round;stroke-miterlimit:4;stroke-dasharray:none" stroke-opacity="1" stroke="black" fill="none" id="path2830-1"/>
     </g>
    </g>
   </g>
  </g>
 </g>
 <g partID="67391">
  <g transform="translate(23.0448,19.057)">
   <g transform="matrix(0,-1,1,0,0,0)">
    <g id="silkscreen">
     <g transform="matrix(1, 0, 0, 1, -1.43333, -1.16)">
      <path stroke-width="0.576" d="m6.65907,2.30036a1.84667,1.58,0,0,1,2.51037,0.001464" style="stroke-linecap:round;stroke-linejoin:round;stroke-miterlimit:4;stroke-dasharray:none" stroke-opacity="1" stroke="black" fill="none" id="path2830"/>
     </g>
     <g transform="matrix(-1, 0, 0, -1, 14.3952, 6.92)">
      <path stroke-width="0.576" d="m6.65907,2.30036a1.84667,1.58,0,0,1,2.51037,0.001464" style="stroke-linecap:round;stroke-linejoin:round;stroke-miterlimit:4;stroke-dasharray:none" stroke-opacity="1" stroke="black" fill="none" id="path2830-1"/>
     </g>
    </g>
   </g>
  </g>
 </g>
 <g partID="75751">
  <g transform="translate(23.9872,22.5196)">
   <g id="copper1">
    <circle cx="3.01733" stroke-width="1.57039" cy="3.01733" r="0.992124" fill="white" stroke="white" id="connector0pin"/>
   </g>
  </g>
 </g>
 <g partID="75951">
  <g transform="translate(39.3232,17.1197)">
   <g id="copper1">
    <circle cx="3.01733" stroke-width="1.57039" cy="3.01733" r="0.992124" fill="white" stroke="white" id="connector0pin"/>
   </g>
  </g>
 </g>
 <g partID="76161">
  <g transform="translate(16.7872,22.8796)">
   <g id="copper1">
    <circle cx="3.01733" stroke-width="1.57039" cy="3.01733" r="0.992124" fill="white" stroke="white" id="connector0pin"/>
   </g>
  </g>
 </g>
 <g partID="69870">
  <g transform="translate(56.1648,1.56096)">
   <g transform="matrix(0,1,-1,0,0,0)">
    <g stroke-width="0" id="copper1">
     <rect stroke-width="0.72" x="1.08" fill="white" stroke="white" width="1.872" y="17.424" id="connector0pad" height="5.76"/>
     <rect stroke-width="0.72" x="4.68" fill="white" stroke="white" width="1.872" y="17.424" id="connector1pad" height="5.76"/>
     <rect stroke-width="0.72" x="8.28" fill="white" stroke="white" width="1.872" y="17.424" id="connector2pad" height="5.76"/>
     <rect stroke-width="0.72" x="11.88" fill="white" stroke="white" width="1.872" y="17.424" id="connector3pad" height="5.76"/>
     <rect stroke-width="0.72" x="15.48" fill="white" stroke="white" width="1.872" y="17.424" id="connector4pad" height="5.76"/>
     <rect stroke-width="0.72" x="19.08" fill="white" stroke="white" width="1.872" y="17.424" id="connector5pad" height="5.76"/>
     <rect stroke-width="0.72" x="22.68" fill="white" stroke="white" width="1.872" y="17.424" id="connector6pad" height="5.76"/>
     <rect stroke-width="0.72" x="26.28" fill="white" stroke="white" width="1.872" y="17.424" id="connector7pad" height="5.76"/>
     <rect stroke-width="0.72" x="26.28" fill="white" stroke="white" width="1.872" y="0" id="connector8pad" height="5.76"/>
     <rect stroke-width="0.72" x="22.68" fill="white" stroke="white" width="1.872" y="0" id="connector9pad" height="5.76"/>
     <rect stroke-width="0.72" x="19.08" fill="white" stroke="white" width="1.872" y="0" id="connector10pad" height="5.76"/>
     <rect stroke-width="0.72" x="15.48" fill="white" stroke="white" width="1.872" y="0" id="connector11pad" height="5.76"/>
     <rect stroke-width="0.72" x="11.88" fill="white" stroke="white" width="1.872" y="0" id="connector12pad" height="5.76"/>
     <rect stroke-width="0.72" x="8.28" fill="white" stroke="white" width="1.872" y="0" id="connector13pad" height="5.76"/>
     <rect stroke-width="0.72" x="4.68" fill="white" stroke="white" width="1.872" y="0" id="connector14pad" height="5.76"/>
     <rect stroke-width="0.72" x="1.08" fill="white" stroke="white" width="1.872" y="0" id="connector15pad" height="5.76"/>
    </g>
   </g>
  </g>
 </g>
 <g partID="67352">
  <g transform="translate(18.0048,19.057)">
   <g transform="matrix(0,-1,1,0,0,0)">
    <g id="copper1">
     <circle cx="2.88" stroke-width="2.16" cy="2.88" r="1.8" fill="white" stroke="white" id="connector0pin"/>
     <circle cx="10.0933" stroke-width="2.16" cy="2.88" r="1.8" fill="white" stroke="white" id="connector1pin"/>
    </g>
   </g>
  </g>
 </g>
 <g partID="67392">
  <g transform="translate(23.0448,19.057)">
   <g transform="matrix(0,-1,1,0,0,0)">
    <g id="copper1">
     <circle cx="2.88" stroke-width="2.16" cy="2.88" r="1.8" fill="white" stroke="white" id="connector0pin"/>
     <circle cx="10.0933" stroke-width="2.16" cy="2.88" r="1.8" fill="white" stroke="white" id="connector1pin"/>
    </g>
   </g>
  </g>
 </g>
 <g partID="70731">
  <g transform="translate(61.3736,9.50576)">
   <g id="copper1">
    <circle cx="4.15118" stroke-width="1.85386" cy="4.15118" r="1.98426" fill="white" stroke="white" id="connector0pin"/>
   </g>
  </g>
 </g>
 <g partID="70721">
  <g transform="translate(61.3736,2.30576)">
   <g id="copper1">
    <circle cx="4.15118" stroke-width="1.85386" cy="4.15118" r="1.98426" fill="white" stroke="white" id="connector0pin"/>
   </g>
  </g>
 </g>
 <g partID="70701">
  <g transform="translate(68.5736,23.9058)">
   <g id="copper1">
    <circle cx="4.15118" stroke-width="1.85386" cy="4.15118" r="1.98426" fill="white" stroke="white" id="connector0pin"/>
   </g>
  </g>
 </g>
 <g partID="70711">
  <g transform="translate(61.3736,23.9058)">
   <g id="copper1">
    <circle cx="4.15118" stroke-width="1.85386" cy="4.15118" r="1.98426" fill="white" stroke="white" id="connector0pin"/>
   </g>
  </g>
 </g>
 <g partID="70761">
  <g transform="translate(68.5736,2.30576)">
   <g id="copper1">
    <circle cx="4.15118" stroke-width="1.85386" cy="4.15118" r="1.98426" fill="white" stroke="white" id="connector0pin"/>
   </g>
  </g>
 </g>
 <g partID="70741">
  <g transform="translate(68.5736,16.7058)">
   <g id="copper1">
    <circle cx="4.15118" stroke-width="1.85386" cy="4.15118" r="1.98426" fill="white" stroke="white" id="connector0pin"/>
   </g>
  </g>
 </g>
 <g partID="70771">
  <g transform="translate(61.3736,16.7058)">
   <g id="copper1">
    <circle cx="4.15118" stroke-width="1.85386" cy="4.15118" r="1.98426" fill="white" stroke="white" id="connector0pin"/>
   </g>
  </g>
 </g>
 <g partID="70751">
  <g transform="translate(68.5736,9.50576)">
   <g id="copper1">
    <circle cx="4.15118" stroke-width="1.85386" cy="4.15118" r="1.98426" fill="white" stroke="white" id="connector0pin"/>
   </g>
  </g>
 </g>
 <g partID="70651">
  <g transform="translate(10.6136,9.50576)">
   <g id="copper1">
    <circle cx="4.15118" stroke-width="1.85386" cy="4.15118" r="1.98426" fill="white" stroke="white" id="connector0pin"/>
   </g>
  </g>
 </g>
 <g partID="71121">
  <g transform="translate(26.2352,0.28752)">
   <g id="copper1">
    <circle cx="4.00945" stroke-width="1.85386" cy="4.00945" r="1.84252" fill="white" stroke="white" id="connector0pin"/>
   </g>
  </g>
 </g>
 <g partID="70521">
  <g transform="translate(3.4136,9.50576)">
   <g id="copper1">
    <circle cx="4.15118" stroke-width="1.85386" cy="4.15118" r="1.98426" fill="white" stroke="white" id="connector0pin"/>
   </g>
  </g>
 </g>
 <g partID="70541">
  <g transform="translate(3.4136,16.7058)">
   <g id="copper1">
    <circle cx="4.15118" stroke-width="1.85386" cy="4.15118" r="1.98426" fill="white" stroke="white" id="connector0pin"/>
   </g>
  </g>
 </g>
 <g partID="70561">
  <g transform="translate(3.4136,23.9058)">
   <g id="copper1">
    <circle cx="4.15118" stroke-width="1.85386" cy="4.15118" r="1.98426" fill="white" stroke="white" id="connector0pin"/>
   </g>
  </g>
 </g>
 <g partID="70331">
  <g transform="translate(3.4136,2.30576)">
   <g id="copper1">
    <circle cx="4.15118" stroke-width="1.85386" cy="4.15118" r="1.98426" fill="white" stroke="white" id="connector0pin"/>
   </g>
  </g>
 </g>
 <g partID="70641">
  <g transform="translate(10.6136,16.7058)">
   <g id="copper1">
    <circle cx="4.15118" stroke-width="1.85386" cy="4.15118" r="1.98426" fill="white" stroke="white" id="connector0pin"/>
   </g>
  </g>
 </g>
 <g partID="70621">
  <g transform="translate(10.6136,2.30576)">
   <g id="copper1">
    <circle cx="4.15118" stroke-width="1.85386" cy="4.15118" r="1.98426" fill="white" stroke="white" id="connector0pin"/>
   </g>
  </g>
 </g>
 <g partID="71101">
  <g transform="translate(55.7552,0.28752)">
   <g id="copper1">
    <circle cx="4.00945" stroke-width="1.85386" cy="4.00945" r="1.84252" fill="white" stroke="white" id="connector0pin"/>
   </g>
  </g>
 </g>
 <g partID="70631">
  <g transform="translate(10.6136,23.9058)">
   <g id="copper1">
    <circle cx="4.15118" stroke-width="1.85386" cy="4.15118" r="1.98426" fill="white" stroke="white" id="connector0pin"/>
   </g>
  </g>
 </g>
 <g partID="71161">
  <g transform="translate(56.3872,6.6796)">
   <g id="copper1">
    <circle cx="3.01733" stroke-width="1.57039" cy="3.01733" r="0.992124" fill="white" stroke="white" id="connector0pin"/>
   </g>
  </g>
 </g>
 <g partID="71401">
  <g transform="translate(45.8032,0.5596)">
   <g id="copper1">
    <circle cx="3.01733" stroke-width="1.57039" cy="3.01733" r="0.992124" fill="white" stroke="white" id="connector0pin"/>
   </g>
  </g>
 </g>
 <g partID="72421">
  <g transform="translate(42.2032,21.4397)">
   <g id="copper1">
    <circle cx="3.01733" stroke-width="1.57039" cy="3.01733" r="0.992124" fill="white" stroke="white" id="connector0pin"/>
   </g>
  </g>
 </g>
 <g partID="72611">
  <g transform="translate(39.3232,11.3597)">
   <g id="copper1">
    <circle cx="3.01733" stroke-width="1.57039" cy="3.01733" r="0.992124" fill="white" stroke="white" id="connector0pin"/>
   </g>
  </g>
 </g>
</svg>
