<?xml version='1.0' encoding='UTF-8' standalone='no'?>
<!-- Created with Fritzing (http://www.fritzing.org/) -->
<svg xmlns="http://www.w3.org/2000/svg"  viewBox="0 0 77.3858 31.1811" xmlns:svg="http://www.w3.org/2000/svg" baseProfile="tiny" x="0in" version="1.2" y="0in" width="1.0748in" height="0.433071in">
 <g partID="68250">
  <g  id="board">
   <rect stroke-width="0.5"  fill-opacity="0.5" fill="none" stroke="black" x="0.288" width="76.8098" y="0.288" id="boardoutline" height="30.6051"/>
  </g>
 </g>
 <g partID="75751">
  <g transform="translate(23.9872,22.5196)">
   <g  id="copper1">
    <circle cx="3.01733" stroke-width="1.57039"  cy="3.01733" r="0.992124" fill="black" stroke="black" id="connector0pin"/>
   </g>
  </g>
 </g>
 <g partID="75951">
  <g transform="translate(39.3232,17.1197)">
   <g  id="copper1">
    <circle cx="3.01733" stroke-width="1.57039"  cy="3.01733" r="0.992124" fill="black" stroke="black" id="connector0pin"/>
   </g>
  </g>
 </g>
 <g partID="76161">
  <g transform="translate(16.7872,22.8796)">
   <g  id="copper1">
    <circle cx="3.01733" stroke-width="1.57039"  cy="3.01733" r="0.992124" fill="black" stroke="black" id="connector0pin"/>
   </g>
  </g>
 </g>
 <g partID="69870">
  <g transform="translate(56.1648,1.56096)">
   <g transform="matrix(0,1,-1,0,0,0)">
    <g stroke-width="0"  id="copper1">
     <rect stroke-width="0.72"  x="1.08" fill="black" stroke="black" width="1.872" y="17.424" id="connector0pad" height="5.76"/>
     <rect stroke-width="0.72"  x="4.68" fill="black" stroke="black" width="1.872" y="17.424" id="connector1pad" height="5.76"/>
     <rect stroke-width="0.72"  x="8.28" fill="black" stroke="black" width="1.872" y="17.424" id="connector2pad" height="5.76"/>
     <rect stroke-width="0.72"  x="11.88" fill="black" stroke="black" width="1.872" y="17.424" id="connector3pad" height="5.76"/>
     <rect stroke-width="0.72"  x="15.48" fill="black" stroke="black" width="1.872" y="17.424" id="connector4pad" height="5.76"/>
     <rect stroke-width="0.72"  x="19.08" fill="black" stroke="black" width="1.872" y="17.424" id="connector5pad" height="5.76"/>
     <rect stroke-width="0.72"  x="22.68" fill="black" stroke="black" width="1.872" y="17.424" id="connector6pad" height="5.76"/>
     <rect stroke-width="0.72"  x="26.28" fill="black" stroke="black" width="1.872" y="17.424" id="connector7pad" height="5.76"/>
     <rect stroke-width="0.72"  x="26.28" fill="black" stroke="black" width="1.872" y="0" id="connector8pad" height="5.76"/>
     <rect stroke-width="0.72"  x="22.68" fill="black" stroke="black" width="1.872" y="0" id="connector9pad" height="5.76"/>
     <rect stroke-width="0.72"  x="19.08" fill="black" stroke="black" width="1.872" y="0" id="connector10pad" height="5.76"/>
     <rect stroke-width="0.72"  x="15.48" fill="black" stroke="black" width="1.872" y="0" id="connector11pad" height="5.76"/>
     <rect stroke-width="0.72"  x="11.88" fill="black" stroke="black" width="1.872" y="0" id="connector12pad" height="5.76"/>
     <rect stroke-width="0.72"  x="8.28" fill="black" stroke="black" width="1.872" y="0" id="connector13pad" height="5.76"/>
     <rect stroke-width="0.72"  x="4.68" fill="black" stroke="black" width="1.872" y="0" id="connector14pad" height="5.76"/>
     <rect stroke-width="0.72"  x="1.08" fill="black" stroke="black" width="1.872" y="0" id="connector15pad" height="5.76"/>
    </g>
   </g>
  </g>
 </g>
 <g partID="67352">
  <g transform="translate(18.0048,19.057)">
   <g transform="matrix(0,-1,1,0,0,0)">
    <g  id="copper1">
     <circle cx="2.88" stroke-width="2.16"  cy="2.88" r="1.8" fill="black" stroke="black" id="connector0pin"/>
     <circle cx="10.0933" stroke-width="2.16"  cy="2.88" r="1.8" fill="black" stroke="black" id="connector1pin"/>
    </g>
   </g>
  </g>
 </g>
 <g partID="67392">
  <g transform="translate(23.0448,19.057)">
   <g transform="matrix(0,-1,1,0,0,0)">
    <g  id="copper1">
     <circle cx="2.88" stroke-width="2.16"  cy="2.88" r="1.8" fill="black" stroke="black" id="connector0pin"/>
     <circle cx="10.0933" stroke-width="2.16"  cy="2.88" r="1.8" fill="black" stroke="black" id="connector1pin"/>
    </g>
   </g>
  </g>
 </g>
 <g partID="70731">
  <g transform="translate(61.3736,9.50576)">
   <g  id="copper1">
    <circle cx="4.15118" stroke-width="1.85386"  cy="4.15118" r="1.98426" fill="black" stroke="black" id="connector0pin"/>
   </g>
  </g>
 </g>
 <g partID="70721">
  <g transform="translate(61.3736,2.30576)">
   <g  id="copper1">
    <circle cx="4.15118" stroke-width="1.85386"  cy="4.15118" r="1.98426" fill="black" stroke="black" id="connector0pin"/>
   </g>
  </g>
 </g>
 <g partID="70701">
  <g transform="translate(68.5736,23.9058)">
   <g  id="copper1">
    <circle cx="4.15118" stroke-width="1.85386"  cy="4.15118" r="1.98426" fill="black" stroke="black" id="connector0pin"/>
   </g>
  </g>
 </g>
 <g partID="70711">
  <g transform="translate(61.3736,23.9058)">
   <g  id="copper1">
    <circle cx="4.15118" stroke-width="1.85386"  cy="4.15118" r="1.98426" fill="black" stroke="black" id="connector0pin"/>
   </g>
  </g>
 </g>
 <g partID="70761">
  <g transform="translate(68.5736,2.30576)">
   <g  id="copper1">
    <circle cx="4.15118" stroke-width="1.85386"  cy="4.15118" r="1.98426" fill="black" stroke="black" id="connector0pin"/>
   </g>
  </g>
 </g>
 <g partID="70741">
  <g transform="translate(68.5736,16.7058)">
   <g  id="copper1">
    <circle cx="4.15118" stroke-width="1.85386"  cy="4.15118" r="1.98426" fill="black" stroke="black" id="connector0pin"/>
   </g>
  </g>
 </g>
 <g partID="70771">
  <g transform="translate(61.3736,16.7058)">
   <g  id="copper1">
    <circle cx="4.15118" stroke-width="1.85386"  cy="4.15118" r="1.98426" fill="black" stroke="black" id="connector0pin"/>
   </g>
  </g>
 </g>
 <g partID="70751">
  <g transform="translate(68.5736,9.50576)">
   <g  id="copper1">
    <circle cx="4.15118" stroke-width="1.85386"  cy="4.15118" r="1.98426" fill="black" stroke="black" id="connector0pin"/>
   </g>
  </g>
 </g>
 <g partID="70651">
  <g transform="translate(10.6136,9.50576)">
   <g  id="copper1">
    <circle cx="4.15118" stroke-width="1.85386"  cy="4.15118" r="1.98426" fill="black" stroke="black" id="connector0pin"/>
   </g>
  </g>
 </g>
 <g partID="71121">
  <g transform="translate(26.2352,0.28752)">
   <g  id="copper1">
    <circle cx="4.00945" stroke-width="1.85386"  cy="4.00945" r="1.84252" fill="black" stroke="black" id="connector0pin"/>
   </g>
  </g>
 </g>
 <g partID="70521">
  <g transform="translate(3.4136,9.50576)">
   <g  id="copper1">
    <circle cx="4.15118" stroke-width="1.85386"  cy="4.15118" r="1.98426" fill="black" stroke="black" id="connector0pin"/>
   </g>
  </g>
 </g>
 <g partID="70541">
  <g transform="translate(3.4136,16.7058)">
   <g  id="copper1">
    <circle cx="4.15118" stroke-width="1.85386"  cy="4.15118" r="1.98426" fill="black" stroke="black" id="connector0pin"/>
   </g>
  </g>
 </g>
 <g partID="70561">
  <g transform="translate(3.4136,23.9058)">
   <g  id="copper1">
    <circle cx="4.15118" stroke-width="1.85386"  cy="4.15118" r="1.98426" fill="black" stroke="black" id="connector0pin"/>
   </g>
  </g>
 </g>
 <g partID="70331">
  <g transform="translate(3.4136,2.30576)">
   <g  id="copper1">
    <circle cx="4.15118" stroke-width="1.85386"  cy="4.15118" r="1.98426" fill="black" stroke="black" id="connector0pin"/>
   </g>
  </g>
 </g>
 <g partID="70641">
  <g transform="translate(10.6136,16.7058)">
   <g  id="copper1">
    <circle cx="4.15118" stroke-width="1.85386"  cy="4.15118" r="1.98426" fill="black" stroke="black" id="connector0pin"/>
   </g>
  </g>
 </g>
 <g partID="70621">
  <g transform="translate(10.6136,2.30576)">
   <g  id="copper1">
    <circle cx="4.15118" stroke-width="1.85386"  cy="4.15118" r="1.98426" fill="black" stroke="black" id="connector0pin"/>
   </g>
  </g>
 </g>
 <g partID="71101">
  <g transform="translate(55.7552,0.28752)">
   <g  id="copper1">
    <circle cx="4.00945" stroke-width="1.85386"  cy="4.00945" r="1.84252" fill="black" stroke="black" id="connector0pin"/>
   </g>
  </g>
 </g>
 <g partID="70631">
  <g transform="translate(10.6136,23.9058)">
   <g  id="copper1">
    <circle cx="4.15118" stroke-width="1.85386"  cy="4.15118" r="1.98426" fill="black" stroke="black" id="connector0pin"/>
   </g>
  </g>
 </g>
 <g partID="71161">
  <g transform="translate(56.3872,6.6796)">
   <g  id="copper1">
    <circle cx="3.01733" stroke-width="1.57039"  cy="3.01733" r="0.992124" fill="black" stroke="black" id="connector0pin"/>
   </g>
  </g>
 </g>
 <g partID="71401">
  <g transform="translate(45.8032,0.5596)">
   <g  id="copper1">
    <circle cx="3.01733" stroke-width="1.57039"  cy="3.01733" r="0.992124" fill="black" stroke="black" id="connector0pin"/>
   </g>
  </g>
 </g>
 <g partID="72421">
  <g transform="translate(42.2032,21.4397)">
   <g  id="copper1">
    <circle cx="3.01733" stroke-width="1.57039"  cy="3.01733" r="0.992124" fill="black" stroke="black" id="connector0pin"/>
   </g>
  </g>
 </g>
 <g partID="72611">
  <g transform="translate(39.3232,11.3597)">
   <g  id="copper1">
    <circle cx="3.01733" stroke-width="1.57039"  cy="3.01733" r="0.992124" fill="black" stroke="black" id="connector0pin"/>
   </g>
  </g>
 </g>
</svg>
