<?xml version='1.0' encoding='UTF-8' standalone='no'?>
<!-- Created with Fritzing (http://www.fritzing.org/) -->
<svg xmlns="http://www.w3.org/2000/svg"  viewBox="0 0 77.3858 31.1811" xmlns:svg="http://www.w3.org/2000/svg" baseProfile="tiny" x="0in" version="1.2" y="0in" width="1.0748in" height="0.433071in">
 <g transform="matrix(-1, 0, 0, 1, 77.3858, 0)">
  <g partID="68250">
   <g  id="board">
    <rect stroke-width="0.5"  fill-opacity="0.5" fill="none" stroke="black" x="0.288" width="76.8098" y="0.288" id="boardoutline" height="30.6051"/>
   </g>
  </g>
  <g partID="75751">
   <g transform="translate(23.9872,22.5196)">
    <g  id="copper1">
     <circle cx="3.01733" stroke-width="0.850392"  cy="3.01733" r="0.992124" fill="none" stroke="black" id="connector0pin"/>
    </g>
   </g>
  </g>
  <g partID="75951">
   <g transform="translate(39.3232,17.1197)">
    <g  id="copper1">
     <circle cx="3.01733" stroke-width="0.850392"  cy="3.01733" r="0.992124" fill="none" stroke="black" id="connector0pin"/>
    </g>
   </g>
  </g>
  <g partID="76161">
   <g transform="translate(16.7872,22.8796)">
    <g  id="copper1">
     <circle cx="3.01733" stroke-width="0.850392"  cy="3.01733" r="0.992124" fill="none" stroke="black" id="connector0pin"/>
    </g>
   </g>
  </g>
  <g partID="69870">
   <g transform="translate(56.1648,1.56096)">
    <g transform="matrix(0,1,-1,0,0,0)">
     <g stroke-width="0"  id="copper1">
      <rect stroke-width="0"  x="1.08" fill="black" stroke="none" width="1.872" y="17.424" id="connector0pad" height="5.76"/>
      <rect stroke-width="0"  x="4.68" fill="black" stroke="none" width="1.872" y="17.424" id="connector1pad" height="5.76"/>
      <rect stroke-width="0"  x="8.28" fill="black" stroke="none" width="1.872" y="17.424" id="connector2pad" height="5.76"/>
      <rect stroke-width="0"  x="11.88" fill="black" stroke="none" width="1.872" y="17.424" id="connector3pad" height="5.76"/>
      <rect stroke-width="0"  x="15.48" fill="black" stroke="none" width="1.872" y="17.424" id="connector4pad" height="5.76"/>
      <rect stroke-width="0"  x="19.08" fill="black" stroke="none" width="1.872" y="17.424" id="connector5pad" height="5.76"/>
      <rect stroke-width="0"  x="22.68" fill="black" stroke="none" width="1.872" y="17.424" id="connector6pad" height="5.76"/>
      <rect stroke-width="0"  x="26.28" fill="black" stroke="none" width="1.872" y="17.424" id="connector7pad" height="5.76"/>
      <rect stroke-width="0"  x="26.28" fill="black" stroke="none" width="1.872" y="0" id="connector8pad" height="5.76"/>
      <rect stroke-width="0"  x="22.68" fill="black" stroke="none" width="1.872" y="0" id="connector9pad" height="5.76"/>
      <rect stroke-width="0"  x="19.08" fill="black" stroke="none" width="1.872" y="0" id="connector10pad" height="5.76"/>
      <rect stroke-width="0"  x="15.48" fill="black" stroke="none" width="1.872" y="0" id="connector11pad" height="5.76"/>
      <rect stroke-width="0"  x="11.88" fill="black" stroke="none" width="1.872" y="0" id="connector12pad" height="5.76"/>
      <rect stroke-width="0"  x="8.28" fill="black" stroke="none" width="1.872" y="0" id="connector13pad" height="5.76"/>
      <rect stroke-width="0"  x="4.68" fill="black" stroke="none" width="1.872" y="0" id="connector14pad" height="5.76"/>
      <rect stroke-width="0"  x="1.08" fill="black" stroke="none" width="1.872" y="0" id="connector15pad" height="5.76"/>
     </g>
    </g>
   </g>
  </g>
  <g partID="67352">
   <g transform="translate(18.0048,19.057)">
    <g transform="matrix(0,-1,1,0,0,0)">
     <g  id="copper1">
      <circle cx="2.88" stroke-width="1.44"  cy="2.88" r="1.8" fill="none" stroke="black" id="connector0pin"/>
      <circle cx="10.0933" stroke-width="1.44"  cy="2.88" r="1.8" fill="none" stroke="black" id="connector1pin"/>
     </g>
    </g>
   </g>
  </g>
  <g partID="67392">
   <g transform="translate(23.0448,19.057)">
    <g transform="matrix(0,-1,1,0,0,0)">
     <g  id="copper1">
      <circle cx="2.88" stroke-width="1.44"  cy="2.88" r="1.8" fill="none" stroke="black" id="connector0pin"/>
      <circle cx="10.0933" stroke-width="1.44"  cy="2.88" r="1.8" fill="none" stroke="black" id="connector1pin"/>
     </g>
    </g>
   </g>
  </g>
  <g partID="70731">
   <g transform="translate(61.3736,9.50576)">
    <g  id="copper1">
     <circle cx="4.15118" stroke-width="1.13386"  cy="4.15118" r="1.98426" fill="none" stroke="black" id="connector0pin"/>
    </g>
   </g>
  </g>
  <g partID="70721">
   <g transform="translate(61.3736,2.30576)">
    <g  id="copper1">
     <circle cx="4.15118" stroke-width="1.13386"  cy="4.15118" r="1.98426" fill="none" stroke="black" id="connector0pin"/>
    </g>
   </g>
  </g>
  <g partID="70701">
   <g transform="translate(68.5736,23.9058)">
    <g  id="copper1">
     <circle cx="4.15118" stroke-width="1.13386"  cy="4.15118" r="1.98426" fill="none" stroke="black" id="connector0pin"/>
    </g>
   </g>
  </g>
  <g partID="70711">
   <g transform="translate(61.3736,23.9058)">
    <g  id="copper1">
     <circle cx="4.15118" stroke-width="1.13386"  cy="4.15118" r="1.98426" fill="none" stroke="black" id="connector0pin"/>
    </g>
   </g>
  </g>
  <g partID="70761">
   <g transform="translate(68.5736,2.30576)">
    <g  id="copper1">
     <circle cx="4.15118" stroke-width="1.13386"  cy="4.15118" r="1.98426" fill="none" stroke="black" id="connector0pin"/>
    </g>
   </g>
  </g>
  <g partID="70741">
   <g transform="translate(68.5736,16.7058)">
    <g  id="copper1">
     <circle cx="4.15118" stroke-width="1.13386"  cy="4.15118" r="1.98426" fill="none" stroke="black" id="connector0pin"/>
    </g>
   </g>
  </g>
  <g partID="70771">
   <g transform="translate(61.3736,16.7058)">
    <g  id="copper1">
     <circle cx="4.15118" stroke-width="1.13386"  cy="4.15118" r="1.98426" fill="none" stroke="black" id="connector0pin"/>
    </g>
   </g>
  </g>
  <g partID="70751">
   <g transform="translate(68.5736,9.50576)">
    <g  id="copper1">
     <circle cx="4.15118" stroke-width="1.13386"  cy="4.15118" r="1.98426" fill="none" stroke="black" id="connector0pin"/>
    </g>
   </g>
  </g>
  <g partID="70651">
   <g transform="translate(10.6136,9.50576)">
    <g  id="copper1">
     <circle cx="4.15118" stroke-width="1.13386"  cy="4.15118" r="1.98426" fill="none" stroke="black" id="connector0pin"/>
    </g>
   </g>
  </g>
  <g partID="71121">
   <g transform="translate(26.2352,0.28752)">
    <g  id="copper1">
     <circle cx="4.00945" stroke-width="1.13386"  cy="4.00945" r="1.84252" fill="none" stroke="black" id="connector0pin"/>
    </g>
   </g>
  </g>
  <g partID="70521">
   <g transform="translate(3.4136,9.50576)">
    <g  id="copper1">
     <circle cx="4.15118" stroke-width="1.13386"  cy="4.15118" r="1.98426" fill="none" stroke="black" id="connector0pin"/>
    </g>
   </g>
  </g>
  <g partID="70541">
   <g transform="translate(3.4136,16.7058)">
    <g  id="copper1">
     <circle cx="4.15118" stroke-width="1.13386"  cy="4.15118" r="1.98426" fill="none" stroke="black" id="connector0pin"/>
    </g>
   </g>
  </g>
  <g partID="70561">
   <g transform="translate(3.4136,23.9058)">
    <g  id="copper1">
     <circle cx="4.15118" stroke-width="1.13386"  cy="4.15118" r="1.98426" fill="none" stroke="black" id="connector0pin"/>
    </g>
   </g>
  </g>
  <g partID="70331">
   <g transform="translate(3.4136,2.30576)">
    <g  id="copper1">
     <circle cx="4.15118" stroke-width="1.13386"  cy="4.15118" r="1.98426" fill="none" stroke="black" id="connector0pin"/>
    </g>
   </g>
  </g>
  <g partID="70641">
   <g transform="translate(10.6136,16.7058)">
    <g  id="copper1">
     <circle cx="4.15118" stroke-width="1.13386"  cy="4.15118" r="1.98426" fill="none" stroke="black" id="connector0pin"/>
    </g>
   </g>
  </g>
  <g partID="70621">
   <g transform="translate(10.6136,2.30576)">
    <g  id="copper1">
     <circle cx="4.15118" stroke-width="1.13386"  cy="4.15118" r="1.98426" fill="none" stroke="black" id="connector0pin"/>
    </g>
   </g>
  </g>
  <g partID="71101">
   <g transform="translate(55.7552,0.28752)">
    <g  id="copper1">
     <circle cx="4.00945" stroke-width="1.13386"  cy="4.00945" r="1.84252" fill="none" stroke="black" id="connector0pin"/>
    </g>
   </g>
  </g>
  <g partID="70631">
   <g transform="translate(10.6136,23.9058)">
    <g  id="copper1">
     <circle cx="4.15118" stroke-width="1.13386"  cy="4.15118" r="1.98426" fill="none" stroke="black" id="connector0pin"/>
    </g>
   </g>
  </g>
  <g partID="71161">
   <g transform="translate(56.3872,6.6796)">
    <g  id="copper1">
     <circle cx="3.01733" stroke-width="0.850392"  cy="3.01733" r="0.992124" fill="none" stroke="black" id="connector0pin"/>
    </g>
   </g>
  </g>
  <g partID="71401">
   <g transform="translate(45.8032,0.5596)">
    <g  id="copper1">
     <circle cx="3.01733" stroke-width="0.850392"  cy="3.01733" r="0.992124" fill="none" stroke="black" id="connector0pin"/>
    </g>
   </g>
  </g>
  <g partID="72421">
   <g transform="translate(42.2032,21.4397)">
    <g  id="copper1">
     <circle cx="3.01733" stroke-width="0.850392"  cy="3.01733" r="0.992124" fill="none" stroke="black" id="connector0pin"/>
    </g>
   </g>
  </g>
  <g partID="72611">
   <g transform="translate(39.3232,11.3597)">
    <g  id="copper1">
     <circle cx="3.01733" stroke-width="0.850392"  cy="3.01733" r="0.992124" fill="none" stroke="black" id="connector0pin"/>
    </g>
   </g>
  </g>
  <g partID="78010">
   <line y1="25.1798" y2="25.1779" stroke-width="1.152" x1="28.7768" x2="33.3808" stroke-linecap="round" stroke="black"/>
  </g>
  <g partID="77930">
   <line y1="21.557" y2="21.557" stroke-width="1.152" x1="32.076" x2="18.3612" stroke-linecap="round" stroke="black"/>
  </g>
  <g partID="77880">
   <line y1="19.8057" y2="17.2873" stroke-width="0.576" x1="18.736" x2="16.2262" stroke-linecap="round" stroke="black"/>
  </g>
  <g partID="77860">
   <line y1="17.2873" y2="17.2301" stroke-width="0.576" x1="16.2264" x2="10.4821" stroke-linecap="round" stroke="black"/>
  </g>
  <g partID="76220">
   <line y1="28.8026" y2="28.7816" stroke-width="1.152" x1="21.984" x2="33.3808" stroke-linecap="round" stroke="black"/>
  </g>
  <g partID="76190">
   <line y1="26.6705" y2="28.8026" stroke-width="1.152" x1="20.385" x2="21.984" stroke-linecap="round" stroke="black"/>
  </g>
  <g partID="76100">
   <line y1="21.557" y2="21.2042" stroke-width="1.152" x1="18.3608" x2="16.5482" stroke-linecap="round" stroke="black"/>
  </g>
  <g partID="76010">
   <line y1="17.9837" y2="17.9808" stroke-width="1.152" x1="40.2136" x2="38.3408" stroke-linecap="round" stroke="black"/>
  </g>
  <g partID="75980">
   <line y1="19.4492" y2="17.9837" stroke-width="1.152" x1="41.6612" x2="40.2132" stroke-linecap="round" stroke="black"/>
  </g>
  <g partID="75780">
   <line y1="25.3459" y2="25.1798" stroke-width="1.152" x1="27.9527" x2="28.7767" stroke-linecap="round" stroke="black"/>
  </g>
  <g partID="75710">
   <line y1="21.5639" y2="21.557" stroke-width="1.152" x1="33.3808" x2="32.076" stroke-linecap="round" stroke="black"/>
  </g>
  <g partID="75680">
   <line y1="14.3666" y2="19.7456" stroke-width="0.576" x1="32.788" x2="29.1652" stroke-linecap="round" stroke="black"/>
  </g>
  <g partID="75650">
   <line y1="19.7456" y2="19.8057" stroke-width="0.576" x1="29.1648" x2="18.7362" stroke-linecap="round" stroke="black"/>
  </g>
  <g partID="75620">
   <line y1="17.2301" y2="19.4408" stroke-width="0.576" x1="10.4824" x2="8.70416" stroke-linecap="round" stroke="black"/>
  </g>
  <g partID="75590">
   <line y1="14.3685" y2="14.3665" stroke-width="0.576" x1="33.3808" x2="32.7876" stroke-linecap="round" stroke="black"/>
  </g>
  <g partID="75370">
   <line y1="3.8949" y2="4.03301" stroke-width="1.728" x1="33.3808" x2="32.3035" stroke-linecap="round" stroke="black"/>
  </g>
  <g partID="77020">
   <line y1="14.393" y2="14.3837" stroke-width="0.864" x1="47.4064" x2="50.8048" stroke-linecap="round" stroke="black"/>
  </g>
  <g partID="76910">
   <line y1="9.67368" y2="14.393" stroke-width="0.864" x1="47.4064" x2="47.4064" stroke-linecap="round" stroke="black"/>
  </g>
  <g partID="76800">
   <line y1="3.606" y2="9.67366" stroke-width="0.864" x1="42.3504" x2="47.4068" stroke-linecap="round" stroke="black"/>
  </g>
  <g partID="76690">
   <line y1="3.58805" y2="3.60598" stroke-width="0.864" x1="38.3408" x2="42.3503" stroke-linecap="round" stroke="black"/>
  </g>
  <g partID="71210">
   <line y1="5.71577" y2="7.19262" stroke-width="1.152" x1="58.8734" x2="57.9455" stroke-linecap="round" stroke="black"/>
  </g>
  <g partID="71430">
   <line y1="3.57696" y2="3.57696" stroke-width="1.728" x1="50.8048" x2="50.1877" stroke-linecap="round" stroke="black"/>
  </g>
  <g partID="78130">
   <line y1="10.7534" y2="10.7644" stroke-width="1.728" x1="57.9528" x2="55.7648" stroke-linecap="round" stroke="black"/>
  </g>
  <g partID="71460">
   <line y1="10.5012" y2="10.7533" stroke-width="1.728" x1="58.2995" x2="57.953" stroke-linecap="round" stroke="black"/>
  </g>
  <g partID="72390">
   <line y1="9.33008" y2="14.7643" stroke-width="1.152" x1="63.7104" x2="60.1523" stroke-linecap="round" stroke="black"/>
  </g>
  <g partID="71930">
   <line y1="14.7642" y2="17.9989" stroke-width="1.152" x1="60.1528" x2="57.9533" stroke-linecap="round" stroke="black"/>
  </g>
  <g partID="71630">
   <line y1="17.9989" y2="17.9886" stroke-width="1.152" x1="57.9528" x2="55.7648" stroke-linecap="round" stroke="black"/>
  </g>
  <g partID="71600">
   <line y1="7.9936" y2="9.3301" stroke-width="1.152" x1="64.5545" x2="63.7107" stroke-linecap="round" stroke="black"/>
  </g>
  <g partID="78300">
   <line y1="1.05136" y2="0.700803" stroke-width="0.864" x1="72.7048" x2="37.0625" stroke-linecap="round" stroke="black"/>
  </g>
  <g partID="73280">
   <line y1="3.59248" y2="1.05138" stroke-width="0.864" x1="76.3128" x2="72.7044" stroke-linecap="round" stroke="black"/>
  </g>
  <g partID="71810">
   <line y1="0.7008" y2="3.04096" stroke-width="0.864" x1="37.0624" x2="36.0847" stroke-linecap="round" stroke="black"/>
  </g>
  <g partID="71750">
   <line y1="11.1415" y2="3.59251" stroke-width="0.864" x1="76.3256" x2="76.313" stroke-linecap="round" stroke="black"/>
  </g>
  <g partID="71720">
   <line y1="12.6162" y2="11.1415" stroke-width="0.864" x1="74.2146" x2="76.3257" stroke-linecap="round" stroke="black"/>
  </g>
  <g partID="71900">
   <line y1="21.6008" y2="21.5856" stroke-width="1.152" x1="60.1256" x2="55.7648" stroke-linecap="round" stroke="black"/>
  </g>
  <g partID="71840">
   <line y1="15.16" y2="21.6008" stroke-width="1.152" x1="64.5032" x2="60.1256" stroke-linecap="round" stroke="black"/>
  </g>
  <g partID="71980">
   <line y1="25.1807" y2="25.178" stroke-width="1.152" x1="62.9776" x2="55.7648" stroke-linecap="round" stroke="black"/>
  </g>
  <g partID="71950">
   <line y1="22.4228" y2="25.1807" stroke-width="1.152" x1="64.6024" x2="62.9776" stroke-linecap="round" stroke="black"/>
  </g>
  <g partID="72580">
   <line y1="28.8007" y2="28.7828" stroke-width="1.152" x1="63.359" x2="55.7648" stroke-linecap="round" stroke="black"/>
  </g>
  <g partID="72070">
   <line y1="28.6472" y2="28.8007" stroke-width="1.152" x1="63.806" x2="63.359" stroke-linecap="round" stroke="black"/>
  </g>
  <g partID="77130">
   <line y1="7.1792" y2="7.17801" stroke-width="0.864" x1="41.272" x2="38.3408" stroke-linecap="round" stroke="black"/>
  </g>
  <g partID="72160">
   <line y1="11.831" y2="7.17917" stroke-width="0.864" x1="45.2496" x2="41.2719" stroke-linecap="round" stroke="black"/>
  </g>
  <g partID="72310">
   <line y1="8.9636" y2="8.9636" stroke-width="2.304" x1="23.6448" x2="23.1648" stroke-linecap="round" stroke="black"/>
  </g>
  <g partID="72340">
   <line y1="16.177" y2="16.177" stroke-width="1.728" x1="24.0448" x2="22.7648" stroke-linecap="round" stroke="black"/>
  </g>
  <g partID="72450">
   <line y1="23.49" y2="11.831" stroke-width="0.864" x1="45.223" x2="45.2493" stroke-linecap="round" stroke="black"/>
  </g>
  <g partID="77150">
   <line y1="10.7523" y2="10.7647" stroke-width="0.864" x1="40.8672" x2="38.3408" stroke-linecap="round" stroke="black"/>
  </g>
  <g partID="72730">
   <line y1="12.2355" y2="10.7523" stroke-width="0.864" x1="42.3504" x2="40.8672" stroke-linecap="round" stroke="black"/>
  </g>
  <g partID="72640">
   <line y1="13.41" y2="12.2355" stroke-width="0.864" x1="42.3451" x2="42.3503" stroke-linecap="round" stroke="black"/>
  </g>
  <g partID="73220">
   <line y1="7.19264" y2="7.18532" stroke-width="1.152" x1="57.9456" x2="55.7648" stroke-linecap="round" stroke="black"/>
  </g>
  <g partID="73650">
   <line y1="1.40712" y2="3.04096" stroke-width="2.304" x1="34.1816" x2="35.446" stroke-linecap="round" stroke="black"/>
  </g>
  <g partID="78200">
   <line y1="1.5088" y2="1.40716" stroke-width="2.304" x1="6.2296" x2="34.1818" stroke-linecap="round" stroke="black"/>
  </g>
  <g partID="73620">
   <line y1="4.65976" y2="1.50879" stroke-width="2.304" x1="2.5192" x2="6.22922" stroke-linecap="round" stroke="black"/>
  </g>
  <g partID="73590">
   <line y1="13.6227" y2="4.65976" stroke-width="2.304" x1="2.54" x2="2.51912" stroke-linecap="round" stroke="black"/>
  </g>
  <g partID="73560">
   <line y1="13.6391" y2="13.6228" stroke-width="2.304" x1="4.94754" x2="2.54034" stroke-linecap="round" stroke="black"/>
  </g>
  <g partID="77610">
   <line y1="11.465" y2="6.37256" stroke-width="1.728" x1="30.2648" x2="30.2507" stroke-linecap="round" stroke="black"/>
  </g>
  <g partID="73700">
   <line y1="14.7941" y2="11.4649" stroke-width="1.728" x1="27.1984" x2="30.2646" stroke-linecap="round" stroke="black"/>
  </g>
 </g>
</svg>
