G04 MADE WITH FRITZING*
G04 WWW.FRITZING.ORG*
G04 DOUBLE SIDED*
G04 HOLES PLATED*
G04 CONTOUR ON CENTER OF CONTOUR VECTOR*
%ASAXBY*%
%FSLAX23Y23*%
%MOIN*%
%OFA0B0*%
%SFA1.0B1.0*%
%ADD10C,0.006000*%
%ADD11C,0.002000*%
%ADD12R,0.001000X0.001000*%
%LNSILK1*%
G90*
G70*
G54D10*
X557Y8D02*
X681Y8D01*
D02*
X639Y408D02*
X599Y408D01*
D02*
X599Y408D02*
X557Y408D01*
G54D11*
D02*
X556Y408D02*
X556Y8D01*
G54D12*
X0Y433D02*
X1073Y433D01*
X0Y432D02*
X1073Y432D01*
X0Y431D02*
X1073Y431D01*
X0Y430D02*
X1073Y430D01*
X0Y429D02*
X1073Y429D01*
X0Y428D02*
X1073Y428D01*
X0Y427D02*
X1073Y427D01*
X0Y426D02*
X1073Y426D01*
X0Y425D02*
X7Y425D01*
X1066Y425D02*
X1073Y425D01*
X0Y424D02*
X7Y424D01*
X1066Y424D02*
X1073Y424D01*
X0Y423D02*
X7Y423D01*
X1066Y423D02*
X1073Y423D01*
X0Y422D02*
X7Y422D01*
X1066Y422D02*
X1073Y422D01*
X0Y421D02*
X7Y421D01*
X1066Y421D02*
X1073Y421D01*
X0Y420D02*
X7Y420D01*
X1066Y420D02*
X1073Y420D01*
X0Y419D02*
X7Y419D01*
X1066Y419D02*
X1073Y419D01*
X0Y418D02*
X7Y418D01*
X1066Y418D02*
X1073Y418D01*
X0Y417D02*
X7Y417D01*
X1066Y417D02*
X1073Y417D01*
X0Y416D02*
X7Y416D01*
X1066Y416D02*
X1073Y416D01*
X0Y415D02*
X7Y415D01*
X1066Y415D02*
X1073Y415D01*
X0Y414D02*
X7Y414D01*
X1066Y414D02*
X1073Y414D01*
X0Y413D02*
X7Y413D01*
X1066Y413D02*
X1073Y413D01*
X0Y412D02*
X7Y412D01*
X1066Y412D02*
X1073Y412D01*
X0Y411D02*
X7Y411D01*
X552Y411D02*
X556Y411D01*
X637Y411D02*
X684Y411D01*
X1066Y411D02*
X1073Y411D01*
X0Y410D02*
X7Y410D01*
X549Y410D02*
X556Y410D01*
X636Y410D02*
X687Y410D01*
X1066Y410D02*
X1073Y410D01*
X0Y409D02*
X7Y409D01*
X547Y409D02*
X556Y409D01*
X636Y409D02*
X689Y409D01*
X1066Y409D02*
X1073Y409D01*
X0Y408D02*
X7Y408D01*
X546Y408D02*
X556Y408D01*
X596Y408D02*
X601Y408D01*
X635Y408D02*
X672Y408D01*
X682Y408D02*
X690Y408D01*
X1066Y408D02*
X1073Y408D01*
X0Y407D02*
X7Y407D01*
X545Y407D02*
X556Y407D01*
X596Y407D02*
X601Y407D01*
X635Y407D02*
X669Y407D01*
X685Y407D02*
X691Y407D01*
X1066Y407D02*
X1073Y407D01*
X0Y406D02*
X7Y406D01*
X544Y406D02*
X555Y406D01*
X596Y406D02*
X601Y406D01*
X635Y406D02*
X667Y406D01*
X687Y406D02*
X692Y406D01*
X1066Y406D02*
X1073Y406D01*
X0Y405D02*
X7Y405D01*
X543Y405D02*
X551Y405D01*
X596Y405D02*
X601Y405D01*
X635Y405D02*
X640Y405D01*
X689Y405D02*
X693Y405D01*
X1066Y405D02*
X1073Y405D01*
X0Y404D02*
X7Y404D01*
X542Y404D02*
X549Y404D01*
X596Y404D02*
X601Y404D01*
X635Y404D02*
X640Y404D01*
X691Y404D02*
X694Y404D01*
X1066Y404D02*
X1073Y404D01*
X0Y403D02*
X7Y403D01*
X541Y403D02*
X548Y403D01*
X597Y403D02*
X602Y403D01*
X635Y403D02*
X640Y403D01*
X692Y403D02*
X695Y403D01*
X1066Y403D02*
X1073Y403D01*
X0Y402D02*
X7Y402D01*
X541Y402D02*
X547Y402D01*
X597Y402D02*
X602Y402D01*
X634Y402D02*
X639Y402D01*
X693Y402D02*
X695Y402D01*
X1066Y402D02*
X1073Y402D01*
X0Y401D02*
X7Y401D01*
X543Y401D02*
X546Y401D01*
X597Y401D02*
X602Y401D01*
X634Y401D02*
X639Y401D01*
X694Y401D02*
X694Y401D01*
X1066Y401D02*
X1073Y401D01*
X0Y400D02*
X7Y400D01*
X543Y400D02*
X545Y400D01*
X598Y400D02*
X603Y400D01*
X633Y400D02*
X639Y400D01*
X1066Y400D02*
X1073Y400D01*
X0Y399D02*
X7Y399D01*
X543Y399D02*
X545Y399D01*
X598Y399D02*
X604Y399D01*
X633Y399D02*
X638Y399D01*
X1066Y399D02*
X1073Y399D01*
X0Y398D02*
X7Y398D01*
X543Y398D02*
X544Y398D01*
X599Y398D02*
X604Y398D01*
X632Y398D02*
X638Y398D01*
X1066Y398D02*
X1073Y398D01*
X0Y397D02*
X7Y397D01*
X543Y397D02*
X544Y397D01*
X599Y397D02*
X605Y397D01*
X631Y397D02*
X637Y397D01*
X1066Y397D02*
X1073Y397D01*
X0Y396D02*
X7Y396D01*
X543Y396D02*
X544Y396D01*
X600Y396D02*
X606Y396D01*
X630Y396D02*
X636Y396D01*
X1066Y396D02*
X1073Y396D01*
X0Y395D02*
X7Y395D01*
X543Y395D02*
X544Y395D01*
X601Y395D02*
X607Y395D01*
X629Y395D02*
X636Y395D01*
X1066Y395D02*
X1073Y395D01*
X0Y394D02*
X7Y394D01*
X543Y394D02*
X544Y394D01*
X601Y394D02*
X609Y394D01*
X627Y394D02*
X635Y394D01*
X1066Y394D02*
X1073Y394D01*
X0Y393D02*
X7Y393D01*
X543Y393D02*
X544Y393D01*
X602Y393D02*
X611Y393D01*
X625Y393D02*
X634Y393D01*
X1066Y393D02*
X1073Y393D01*
X0Y392D02*
X7Y392D01*
X543Y392D02*
X544Y392D01*
X603Y392D02*
X616Y392D01*
X620Y392D02*
X633Y392D01*
X1066Y392D02*
X1073Y392D01*
X0Y391D02*
X7Y391D01*
X543Y391D02*
X544Y391D01*
X605Y391D02*
X632Y391D01*
X1066Y391D02*
X1073Y391D01*
X0Y390D02*
X7Y390D01*
X543Y390D02*
X544Y390D01*
X606Y390D02*
X630Y390D01*
X1066Y390D02*
X1073Y390D01*
X0Y389D02*
X7Y389D01*
X543Y389D02*
X544Y389D01*
X607Y389D02*
X629Y389D01*
X1066Y389D02*
X1073Y389D01*
X0Y388D02*
X7Y388D01*
X543Y388D02*
X544Y388D01*
X609Y388D02*
X627Y388D01*
X1066Y388D02*
X1073Y388D01*
X0Y387D02*
X7Y387D01*
X543Y387D02*
X544Y387D01*
X612Y387D02*
X624Y387D01*
X1066Y387D02*
X1073Y387D01*
X0Y386D02*
X7Y386D01*
X543Y386D02*
X544Y386D01*
X616Y386D02*
X620Y386D01*
X1066Y386D02*
X1073Y386D01*
X0Y385D02*
X7Y385D01*
X543Y385D02*
X544Y385D01*
X1066Y385D02*
X1073Y385D01*
X0Y384D02*
X7Y384D01*
X543Y384D02*
X544Y384D01*
X1066Y384D02*
X1073Y384D01*
X0Y383D02*
X7Y383D01*
X543Y383D02*
X544Y383D01*
X1066Y383D02*
X1073Y383D01*
X0Y382D02*
X7Y382D01*
X543Y382D02*
X544Y382D01*
X1066Y382D02*
X1073Y382D01*
X0Y381D02*
X7Y381D01*
X543Y381D02*
X544Y381D01*
X1066Y381D02*
X1073Y381D01*
X0Y380D02*
X7Y380D01*
X543Y380D02*
X544Y380D01*
X1066Y380D02*
X1073Y380D01*
X0Y379D02*
X7Y379D01*
X543Y379D02*
X544Y379D01*
X1066Y379D02*
X1073Y379D01*
X0Y378D02*
X7Y378D01*
X543Y378D02*
X544Y378D01*
X1066Y378D02*
X1073Y378D01*
X0Y377D02*
X7Y377D01*
X543Y377D02*
X544Y377D01*
X1066Y377D02*
X1073Y377D01*
X0Y376D02*
X7Y376D01*
X543Y376D02*
X544Y376D01*
X1066Y376D02*
X1073Y376D01*
X0Y375D02*
X7Y375D01*
X543Y375D02*
X544Y375D01*
X1066Y375D02*
X1073Y375D01*
X0Y374D02*
X7Y374D01*
X543Y374D02*
X544Y374D01*
X1066Y374D02*
X1073Y374D01*
X0Y373D02*
X7Y373D01*
X543Y373D02*
X544Y373D01*
X1066Y373D02*
X1073Y373D01*
X0Y372D02*
X7Y372D01*
X543Y372D02*
X544Y372D01*
X1066Y372D02*
X1073Y372D01*
X0Y371D02*
X7Y371D01*
X543Y371D02*
X544Y371D01*
X1066Y371D02*
X1073Y371D01*
X0Y370D02*
X7Y370D01*
X543Y370D02*
X544Y370D01*
X1066Y370D02*
X1073Y370D01*
X0Y369D02*
X7Y369D01*
X543Y369D02*
X544Y369D01*
X1066Y369D02*
X1073Y369D01*
X0Y368D02*
X7Y368D01*
X543Y368D02*
X544Y368D01*
X1066Y368D02*
X1073Y368D01*
X0Y367D02*
X7Y367D01*
X543Y367D02*
X544Y367D01*
X694Y367D02*
X694Y367D01*
X1066Y367D02*
X1073Y367D01*
X0Y366D02*
X7Y366D01*
X542Y366D02*
X544Y366D01*
X693Y366D02*
X694Y366D01*
X1066Y366D02*
X1073Y366D01*
X0Y365D02*
X7Y365D01*
X539Y365D02*
X544Y365D01*
X693Y365D02*
X698Y365D01*
X1066Y365D02*
X1073Y365D01*
X0Y364D02*
X7Y364D01*
X539Y364D02*
X544Y364D01*
X693Y364D02*
X698Y364D01*
X1066Y364D02*
X1073Y364D01*
X0Y363D02*
X7Y363D01*
X539Y363D02*
X544Y363D01*
X693Y363D02*
X698Y363D01*
X1066Y363D02*
X1073Y363D01*
X0Y362D02*
X7Y362D01*
X539Y362D02*
X544Y362D01*
X693Y362D02*
X698Y362D01*
X1066Y362D02*
X1073Y362D01*
X0Y361D02*
X7Y361D01*
X539Y361D02*
X544Y361D01*
X693Y361D02*
X698Y361D01*
X1066Y361D02*
X1073Y361D01*
X0Y360D02*
X7Y360D01*
X539Y360D02*
X544Y360D01*
X693Y360D02*
X698Y360D01*
X1066Y360D02*
X1073Y360D01*
X0Y359D02*
X7Y359D01*
X539Y359D02*
X544Y359D01*
X693Y359D02*
X698Y359D01*
X1066Y359D02*
X1073Y359D01*
X0Y358D02*
X7Y358D01*
X539Y358D02*
X544Y358D01*
X693Y358D02*
X698Y358D01*
X1066Y358D02*
X1073Y358D01*
X0Y357D02*
X7Y357D01*
X539Y357D02*
X544Y357D01*
X693Y357D02*
X698Y357D01*
X1066Y357D02*
X1073Y357D01*
X0Y356D02*
X7Y356D01*
X539Y356D02*
X544Y356D01*
X693Y356D02*
X698Y356D01*
X1066Y356D02*
X1073Y356D01*
X0Y355D02*
X7Y355D01*
X539Y355D02*
X544Y355D01*
X693Y355D02*
X698Y355D01*
X1066Y355D02*
X1073Y355D01*
X0Y354D02*
X7Y354D01*
X539Y354D02*
X544Y354D01*
X693Y354D02*
X698Y354D01*
X1066Y354D02*
X1073Y354D01*
X0Y353D02*
X7Y353D01*
X539Y353D02*
X544Y353D01*
X693Y353D02*
X698Y353D01*
X1066Y353D02*
X1073Y353D01*
X0Y352D02*
X7Y352D01*
X539Y352D02*
X544Y352D01*
X693Y352D02*
X698Y352D01*
X1066Y352D02*
X1073Y352D01*
X0Y351D02*
X7Y351D01*
X543Y351D02*
X544Y351D01*
X693Y351D02*
X694Y351D01*
X1066Y351D02*
X1073Y351D01*
X0Y350D02*
X7Y350D01*
X543Y350D02*
X544Y350D01*
X693Y350D02*
X694Y350D01*
X1066Y350D02*
X1073Y350D01*
X0Y349D02*
X7Y349D01*
X543Y349D02*
X544Y349D01*
X693Y349D02*
X694Y349D01*
X1066Y349D02*
X1073Y349D01*
X0Y348D02*
X7Y348D01*
X543Y348D02*
X544Y348D01*
X693Y348D02*
X694Y348D01*
X1066Y348D02*
X1073Y348D01*
X0Y347D02*
X7Y347D01*
X543Y347D02*
X544Y347D01*
X693Y347D02*
X694Y347D01*
X1066Y347D02*
X1073Y347D01*
X0Y346D02*
X7Y346D01*
X543Y346D02*
X544Y346D01*
X693Y346D02*
X694Y346D01*
X1066Y346D02*
X1073Y346D01*
X0Y345D02*
X7Y345D01*
X543Y345D02*
X544Y345D01*
X693Y345D02*
X694Y345D01*
X1066Y345D02*
X1073Y345D01*
X0Y344D02*
X7Y344D01*
X543Y344D02*
X544Y344D01*
X693Y344D02*
X694Y344D01*
X1066Y344D02*
X1073Y344D01*
X0Y343D02*
X7Y343D01*
X543Y343D02*
X544Y343D01*
X693Y343D02*
X694Y343D01*
X1066Y343D02*
X1073Y343D01*
X0Y342D02*
X7Y342D01*
X543Y342D02*
X544Y342D01*
X693Y342D02*
X694Y342D01*
X1066Y342D02*
X1073Y342D01*
X0Y341D02*
X7Y341D01*
X543Y341D02*
X544Y341D01*
X693Y341D02*
X694Y341D01*
X1066Y341D02*
X1073Y341D01*
X0Y340D02*
X7Y340D01*
X543Y340D02*
X544Y340D01*
X693Y340D02*
X694Y340D01*
X1066Y340D02*
X1073Y340D01*
X0Y339D02*
X7Y339D01*
X543Y339D02*
X544Y339D01*
X693Y339D02*
X694Y339D01*
X1066Y339D02*
X1073Y339D01*
X0Y338D02*
X7Y338D01*
X543Y338D02*
X544Y338D01*
X693Y338D02*
X694Y338D01*
X1066Y338D02*
X1073Y338D01*
X0Y337D02*
X7Y337D01*
X543Y337D02*
X544Y337D01*
X693Y337D02*
X694Y337D01*
X1066Y337D02*
X1073Y337D01*
X0Y336D02*
X7Y336D01*
X543Y336D02*
X544Y336D01*
X693Y336D02*
X694Y336D01*
X1066Y336D02*
X1073Y336D01*
X0Y335D02*
X7Y335D01*
X543Y335D02*
X544Y335D01*
X693Y335D02*
X694Y335D01*
X1066Y335D02*
X1073Y335D01*
X0Y334D02*
X7Y334D01*
X543Y334D02*
X544Y334D01*
X693Y334D02*
X694Y334D01*
X1066Y334D02*
X1073Y334D01*
X0Y333D02*
X7Y333D01*
X543Y333D02*
X544Y333D01*
X693Y333D02*
X694Y333D01*
X1066Y333D02*
X1073Y333D01*
X0Y332D02*
X7Y332D01*
X543Y332D02*
X544Y332D01*
X693Y332D02*
X694Y332D01*
X1066Y332D02*
X1073Y332D01*
X0Y331D02*
X7Y331D01*
X543Y331D02*
X544Y331D01*
X693Y331D02*
X694Y331D01*
X1066Y331D02*
X1073Y331D01*
X0Y330D02*
X7Y330D01*
X543Y330D02*
X544Y330D01*
X693Y330D02*
X694Y330D01*
X1066Y330D02*
X1073Y330D01*
X0Y329D02*
X7Y329D01*
X543Y329D02*
X544Y329D01*
X693Y329D02*
X694Y329D01*
X1066Y329D02*
X1073Y329D01*
X0Y328D02*
X7Y328D01*
X543Y328D02*
X544Y328D01*
X693Y328D02*
X694Y328D01*
X1066Y328D02*
X1073Y328D01*
X0Y327D02*
X7Y327D01*
X543Y327D02*
X544Y327D01*
X693Y327D02*
X694Y327D01*
X1066Y327D02*
X1073Y327D01*
X0Y326D02*
X7Y326D01*
X543Y326D02*
X544Y326D01*
X693Y326D02*
X694Y326D01*
X1066Y326D02*
X1073Y326D01*
X0Y325D02*
X7Y325D01*
X543Y325D02*
X544Y325D01*
X693Y325D02*
X694Y325D01*
X1066Y325D02*
X1073Y325D01*
X0Y324D02*
X7Y324D01*
X543Y324D02*
X544Y324D01*
X693Y324D02*
X694Y324D01*
X1066Y324D02*
X1073Y324D01*
X0Y323D02*
X7Y323D01*
X543Y323D02*
X544Y323D01*
X693Y323D02*
X694Y323D01*
X1066Y323D02*
X1073Y323D01*
X0Y322D02*
X7Y322D01*
X543Y322D02*
X544Y322D01*
X693Y322D02*
X694Y322D01*
X1066Y322D02*
X1073Y322D01*
X0Y321D02*
X7Y321D01*
X543Y321D02*
X544Y321D01*
X693Y321D02*
X694Y321D01*
X1066Y321D02*
X1073Y321D01*
X0Y320D02*
X7Y320D01*
X543Y320D02*
X544Y320D01*
X693Y320D02*
X694Y320D01*
X1066Y320D02*
X1073Y320D01*
X0Y319D02*
X7Y319D01*
X543Y319D02*
X544Y319D01*
X693Y319D02*
X694Y319D01*
X1066Y319D02*
X1073Y319D01*
X0Y318D02*
X7Y318D01*
X543Y318D02*
X544Y318D01*
X693Y318D02*
X694Y318D01*
X1066Y318D02*
X1073Y318D01*
X0Y317D02*
X7Y317D01*
X543Y317D02*
X544Y317D01*
X693Y317D02*
X694Y317D01*
X1066Y317D02*
X1073Y317D01*
X0Y316D02*
X7Y316D01*
X542Y316D02*
X544Y316D01*
X693Y316D02*
X694Y316D01*
X1066Y316D02*
X1073Y316D01*
X0Y315D02*
X7Y315D01*
X539Y315D02*
X544Y315D01*
X693Y315D02*
X698Y315D01*
X1066Y315D02*
X1073Y315D01*
X0Y314D02*
X7Y314D01*
X539Y314D02*
X544Y314D01*
X693Y314D02*
X698Y314D01*
X1066Y314D02*
X1073Y314D01*
X0Y313D02*
X7Y313D01*
X539Y313D02*
X544Y313D01*
X693Y313D02*
X698Y313D01*
X1066Y313D02*
X1073Y313D01*
X0Y312D02*
X7Y312D01*
X539Y312D02*
X544Y312D01*
X693Y312D02*
X698Y312D01*
X1066Y312D02*
X1073Y312D01*
X0Y311D02*
X7Y311D01*
X539Y311D02*
X544Y311D01*
X693Y311D02*
X698Y311D01*
X1066Y311D02*
X1073Y311D01*
X0Y310D02*
X7Y310D01*
X539Y310D02*
X544Y310D01*
X693Y310D02*
X698Y310D01*
X1066Y310D02*
X1073Y310D01*
X0Y309D02*
X7Y309D01*
X539Y309D02*
X544Y309D01*
X693Y309D02*
X698Y309D01*
X1066Y309D02*
X1073Y309D01*
X0Y308D02*
X7Y308D01*
X539Y308D02*
X544Y308D01*
X693Y308D02*
X698Y308D01*
X1066Y308D02*
X1073Y308D01*
X0Y307D02*
X7Y307D01*
X539Y307D02*
X544Y307D01*
X693Y307D02*
X698Y307D01*
X1066Y307D02*
X1073Y307D01*
X0Y306D02*
X7Y306D01*
X539Y306D02*
X544Y306D01*
X693Y306D02*
X698Y306D01*
X1066Y306D02*
X1073Y306D01*
X0Y305D02*
X7Y305D01*
X539Y305D02*
X544Y305D01*
X693Y305D02*
X698Y305D01*
X1066Y305D02*
X1073Y305D01*
X0Y304D02*
X7Y304D01*
X539Y304D02*
X544Y304D01*
X693Y304D02*
X698Y304D01*
X1066Y304D02*
X1073Y304D01*
X0Y303D02*
X7Y303D01*
X539Y303D02*
X544Y303D01*
X693Y303D02*
X698Y303D01*
X1066Y303D02*
X1073Y303D01*
X0Y302D02*
X7Y302D01*
X539Y302D02*
X544Y302D01*
X693Y302D02*
X698Y302D01*
X1066Y302D02*
X1073Y302D01*
X0Y301D02*
X7Y301D01*
X543Y301D02*
X544Y301D01*
X693Y301D02*
X694Y301D01*
X1066Y301D02*
X1073Y301D01*
X0Y300D02*
X7Y300D01*
X543Y300D02*
X544Y300D01*
X693Y300D02*
X694Y300D01*
X1066Y300D02*
X1073Y300D01*
X0Y299D02*
X7Y299D01*
X543Y299D02*
X544Y299D01*
X693Y299D02*
X694Y299D01*
X1066Y299D02*
X1073Y299D01*
X0Y298D02*
X7Y298D01*
X543Y298D02*
X544Y298D01*
X693Y298D02*
X694Y298D01*
X1066Y298D02*
X1073Y298D01*
X0Y297D02*
X7Y297D01*
X543Y297D02*
X544Y297D01*
X693Y297D02*
X694Y297D01*
X1066Y297D02*
X1073Y297D01*
X0Y296D02*
X7Y296D01*
X543Y296D02*
X544Y296D01*
X693Y296D02*
X694Y296D01*
X1066Y296D02*
X1073Y296D01*
X0Y295D02*
X7Y295D01*
X543Y295D02*
X544Y295D01*
X693Y295D02*
X694Y295D01*
X1066Y295D02*
X1073Y295D01*
X0Y294D02*
X7Y294D01*
X543Y294D02*
X544Y294D01*
X693Y294D02*
X694Y294D01*
X1066Y294D02*
X1073Y294D01*
X0Y293D02*
X7Y293D01*
X543Y293D02*
X544Y293D01*
X693Y293D02*
X694Y293D01*
X1066Y293D02*
X1073Y293D01*
X0Y292D02*
X7Y292D01*
X543Y292D02*
X544Y292D01*
X693Y292D02*
X694Y292D01*
X1066Y292D02*
X1073Y292D01*
X0Y291D02*
X7Y291D01*
X543Y291D02*
X544Y291D01*
X693Y291D02*
X694Y291D01*
X1066Y291D02*
X1073Y291D01*
X0Y290D02*
X7Y290D01*
X543Y290D02*
X544Y290D01*
X693Y290D02*
X694Y290D01*
X1066Y290D02*
X1073Y290D01*
X0Y289D02*
X7Y289D01*
X543Y289D02*
X544Y289D01*
X693Y289D02*
X694Y289D01*
X1066Y289D02*
X1073Y289D01*
X0Y288D02*
X7Y288D01*
X543Y288D02*
X544Y288D01*
X693Y288D02*
X694Y288D01*
X1066Y288D02*
X1073Y288D01*
X0Y287D02*
X7Y287D01*
X543Y287D02*
X544Y287D01*
X693Y287D02*
X694Y287D01*
X1066Y287D02*
X1073Y287D01*
X0Y286D02*
X7Y286D01*
X543Y286D02*
X544Y286D01*
X693Y286D02*
X694Y286D01*
X1066Y286D02*
X1073Y286D01*
X0Y285D02*
X7Y285D01*
X543Y285D02*
X544Y285D01*
X693Y285D02*
X694Y285D01*
X1066Y285D02*
X1073Y285D01*
X0Y284D02*
X7Y284D01*
X543Y284D02*
X544Y284D01*
X693Y284D02*
X694Y284D01*
X1066Y284D02*
X1073Y284D01*
X0Y283D02*
X7Y283D01*
X543Y283D02*
X544Y283D01*
X693Y283D02*
X694Y283D01*
X1066Y283D02*
X1073Y283D01*
X0Y282D02*
X7Y282D01*
X543Y282D02*
X544Y282D01*
X693Y282D02*
X694Y282D01*
X1066Y282D02*
X1073Y282D01*
X0Y281D02*
X7Y281D01*
X543Y281D02*
X544Y281D01*
X693Y281D02*
X694Y281D01*
X1066Y281D02*
X1073Y281D01*
X0Y280D02*
X7Y280D01*
X543Y280D02*
X544Y280D01*
X693Y280D02*
X694Y280D01*
X1066Y280D02*
X1073Y280D01*
X0Y279D02*
X7Y279D01*
X263Y279D02*
X264Y279D01*
X315Y279D02*
X316Y279D01*
X333Y279D02*
X334Y279D01*
X385Y279D02*
X386Y279D01*
X543Y279D02*
X544Y279D01*
X693Y279D02*
X694Y279D01*
X1066Y279D02*
X1073Y279D01*
X0Y278D02*
X7Y278D01*
X262Y278D02*
X265Y278D01*
X313Y278D02*
X317Y278D01*
X332Y278D02*
X335Y278D01*
X383Y278D02*
X387Y278D01*
X543Y278D02*
X544Y278D01*
X693Y278D02*
X694Y278D01*
X1066Y278D02*
X1073Y278D01*
X0Y277D02*
X7Y277D01*
X261Y277D02*
X267Y277D01*
X312Y277D02*
X317Y277D01*
X331Y277D02*
X337Y277D01*
X382Y277D02*
X387Y277D01*
X543Y277D02*
X544Y277D01*
X693Y277D02*
X694Y277D01*
X1066Y277D02*
X1073Y277D01*
X0Y276D02*
X7Y276D01*
X261Y276D02*
X268Y276D01*
X311Y276D02*
X318Y276D01*
X331Y276D02*
X338Y276D01*
X381Y276D02*
X388Y276D01*
X543Y276D02*
X544Y276D01*
X693Y276D02*
X694Y276D01*
X1066Y276D02*
X1073Y276D01*
X0Y275D02*
X7Y275D01*
X260Y275D02*
X268Y275D01*
X310Y275D02*
X319Y275D01*
X330Y275D02*
X338Y275D01*
X380Y275D02*
X389Y275D01*
X543Y275D02*
X544Y275D01*
X693Y275D02*
X694Y275D01*
X1066Y275D02*
X1073Y275D01*
X0Y274D02*
X7Y274D01*
X260Y274D02*
X268Y274D01*
X311Y274D02*
X319Y274D01*
X330Y274D02*
X338Y274D01*
X381Y274D02*
X389Y274D01*
X543Y274D02*
X544Y274D01*
X693Y274D02*
X694Y274D01*
X1066Y274D02*
X1073Y274D01*
X0Y273D02*
X7Y273D01*
X259Y273D02*
X267Y273D01*
X311Y273D02*
X320Y273D01*
X329Y273D02*
X337Y273D01*
X381Y273D02*
X389Y273D01*
X543Y273D02*
X544Y273D01*
X693Y273D02*
X694Y273D01*
X1066Y273D02*
X1073Y273D01*
X0Y272D02*
X7Y272D01*
X259Y272D02*
X267Y272D01*
X312Y272D02*
X320Y272D01*
X329Y272D02*
X337Y272D01*
X382Y272D02*
X390Y272D01*
X543Y272D02*
X544Y272D01*
X693Y272D02*
X694Y272D01*
X1066Y272D02*
X1073Y272D01*
X0Y271D02*
X7Y271D01*
X258Y271D02*
X266Y271D01*
X313Y271D02*
X320Y271D01*
X328Y271D02*
X336Y271D01*
X383Y271D02*
X390Y271D01*
X543Y271D02*
X544Y271D01*
X693Y271D02*
X694Y271D01*
X1066Y271D02*
X1073Y271D01*
X0Y270D02*
X7Y270D01*
X258Y270D02*
X265Y270D01*
X313Y270D02*
X321Y270D01*
X328Y270D02*
X335Y270D01*
X383Y270D02*
X391Y270D01*
X543Y270D02*
X544Y270D01*
X693Y270D02*
X694Y270D01*
X1066Y270D02*
X1073Y270D01*
X0Y269D02*
X7Y269D01*
X258Y269D02*
X265Y269D01*
X314Y269D02*
X321Y269D01*
X328Y269D02*
X335Y269D01*
X384Y269D02*
X391Y269D01*
X543Y269D02*
X544Y269D01*
X693Y269D02*
X694Y269D01*
X1066Y269D02*
X1073Y269D01*
X0Y268D02*
X7Y268D01*
X257Y268D02*
X265Y268D01*
X314Y268D02*
X321Y268D01*
X327Y268D02*
X334Y268D01*
X384Y268D02*
X391Y268D01*
X543Y268D02*
X544Y268D01*
X693Y268D02*
X694Y268D01*
X1066Y268D02*
X1073Y268D01*
X0Y267D02*
X7Y267D01*
X257Y267D02*
X264Y267D01*
X315Y267D02*
X322Y267D01*
X327Y267D02*
X334Y267D01*
X385Y267D02*
X392Y267D01*
X543Y267D02*
X544Y267D01*
X693Y267D02*
X694Y267D01*
X1066Y267D02*
X1073Y267D01*
X0Y266D02*
X7Y266D01*
X257Y266D02*
X264Y266D01*
X315Y266D02*
X322Y266D01*
X327Y266D02*
X334Y266D01*
X385Y266D02*
X392Y266D01*
X542Y266D02*
X544Y266D01*
X693Y266D02*
X694Y266D01*
X1066Y266D02*
X1073Y266D01*
X0Y265D02*
X7Y265D01*
X257Y265D02*
X264Y265D01*
X315Y265D02*
X322Y265D01*
X327Y265D02*
X333Y265D01*
X385Y265D02*
X392Y265D01*
X539Y265D02*
X544Y265D01*
X693Y265D02*
X698Y265D01*
X1066Y265D02*
X1073Y265D01*
X0Y264D02*
X7Y264D01*
X256Y264D02*
X263Y264D01*
X315Y264D02*
X322Y264D01*
X326Y264D02*
X333Y264D01*
X385Y264D02*
X392Y264D01*
X539Y264D02*
X544Y264D01*
X693Y264D02*
X698Y264D01*
X1066Y264D02*
X1073Y264D01*
X0Y263D02*
X7Y263D01*
X256Y263D02*
X263Y263D01*
X316Y263D02*
X322Y263D01*
X326Y263D02*
X333Y263D01*
X386Y263D02*
X392Y263D01*
X539Y263D02*
X544Y263D01*
X693Y263D02*
X698Y263D01*
X1066Y263D02*
X1073Y263D01*
X0Y262D02*
X7Y262D01*
X256Y262D02*
X263Y262D01*
X316Y262D02*
X322Y262D01*
X326Y262D02*
X333Y262D01*
X386Y262D02*
X392Y262D01*
X539Y262D02*
X544Y262D01*
X693Y262D02*
X698Y262D01*
X1066Y262D02*
X1073Y262D01*
X0Y261D02*
X7Y261D01*
X256Y261D02*
X263Y261D01*
X316Y261D02*
X323Y261D01*
X326Y261D02*
X333Y261D01*
X386Y261D02*
X392Y261D01*
X539Y261D02*
X544Y261D01*
X693Y261D02*
X698Y261D01*
X1066Y261D02*
X1073Y261D01*
X0Y260D02*
X7Y260D01*
X256Y260D02*
X263Y260D01*
X316Y260D02*
X323Y260D01*
X326Y260D02*
X333Y260D01*
X386Y260D02*
X393Y260D01*
X539Y260D02*
X544Y260D01*
X693Y260D02*
X698Y260D01*
X1066Y260D02*
X1073Y260D01*
X0Y259D02*
X7Y259D01*
X256Y259D02*
X263Y259D01*
X316Y259D02*
X323Y259D01*
X326Y259D02*
X333Y259D01*
X386Y259D02*
X393Y259D01*
X539Y259D02*
X544Y259D01*
X693Y259D02*
X698Y259D01*
X1066Y259D02*
X1073Y259D01*
X0Y258D02*
X7Y258D01*
X256Y258D02*
X263Y258D01*
X316Y258D02*
X323Y258D01*
X326Y258D02*
X333Y258D01*
X386Y258D02*
X393Y258D01*
X539Y258D02*
X544Y258D01*
X693Y258D02*
X698Y258D01*
X1066Y258D02*
X1073Y258D01*
X0Y257D02*
X7Y257D01*
X256Y257D02*
X263Y257D01*
X316Y257D02*
X323Y257D01*
X326Y257D02*
X333Y257D01*
X386Y257D02*
X392Y257D01*
X539Y257D02*
X544Y257D01*
X693Y257D02*
X698Y257D01*
X1066Y257D02*
X1073Y257D01*
X0Y256D02*
X7Y256D01*
X256Y256D02*
X263Y256D01*
X316Y256D02*
X322Y256D01*
X326Y256D02*
X333Y256D01*
X386Y256D02*
X392Y256D01*
X539Y256D02*
X544Y256D01*
X693Y256D02*
X698Y256D01*
X1066Y256D02*
X1073Y256D01*
X0Y255D02*
X7Y255D01*
X256Y255D02*
X263Y255D01*
X316Y255D02*
X322Y255D01*
X326Y255D02*
X333Y255D01*
X386Y255D02*
X392Y255D01*
X539Y255D02*
X544Y255D01*
X693Y255D02*
X698Y255D01*
X1066Y255D02*
X1073Y255D01*
X0Y254D02*
X7Y254D01*
X256Y254D02*
X263Y254D01*
X315Y254D02*
X322Y254D01*
X326Y254D02*
X333Y254D01*
X385Y254D02*
X392Y254D01*
X539Y254D02*
X544Y254D01*
X693Y254D02*
X698Y254D01*
X1066Y254D02*
X1073Y254D01*
X0Y253D02*
X7Y253D01*
X257Y253D02*
X263Y253D01*
X315Y253D02*
X322Y253D01*
X327Y253D02*
X333Y253D01*
X385Y253D02*
X392Y253D01*
X539Y253D02*
X544Y253D01*
X693Y253D02*
X698Y253D01*
X1066Y253D02*
X1073Y253D01*
X0Y252D02*
X7Y252D01*
X257Y252D02*
X264Y252D01*
X315Y252D02*
X322Y252D01*
X327Y252D02*
X334Y252D01*
X385Y252D02*
X392Y252D01*
X539Y252D02*
X544Y252D01*
X693Y252D02*
X698Y252D01*
X1066Y252D02*
X1073Y252D01*
X0Y251D02*
X7Y251D01*
X257Y251D02*
X264Y251D01*
X315Y251D02*
X322Y251D01*
X327Y251D02*
X334Y251D01*
X385Y251D02*
X392Y251D01*
X543Y251D02*
X544Y251D01*
X693Y251D02*
X694Y251D01*
X1066Y251D02*
X1073Y251D01*
X0Y250D02*
X7Y250D01*
X257Y250D02*
X264Y250D01*
X314Y250D02*
X321Y250D01*
X327Y250D02*
X334Y250D01*
X384Y250D02*
X391Y250D01*
X543Y250D02*
X544Y250D01*
X693Y250D02*
X694Y250D01*
X1066Y250D02*
X1073Y250D01*
X0Y249D02*
X7Y249D01*
X258Y249D02*
X265Y249D01*
X314Y249D02*
X321Y249D01*
X327Y249D02*
X335Y249D01*
X384Y249D02*
X391Y249D01*
X543Y249D02*
X544Y249D01*
X693Y249D02*
X694Y249D01*
X1066Y249D02*
X1073Y249D01*
X0Y248D02*
X7Y248D01*
X258Y248D02*
X265Y248D01*
X313Y248D02*
X321Y248D01*
X328Y248D02*
X335Y248D01*
X383Y248D02*
X391Y248D01*
X543Y248D02*
X544Y248D01*
X693Y248D02*
X694Y248D01*
X1066Y248D02*
X1073Y248D01*
X0Y247D02*
X7Y247D01*
X258Y247D02*
X266Y247D01*
X313Y247D02*
X320Y247D01*
X328Y247D02*
X336Y247D01*
X383Y247D02*
X390Y247D01*
X543Y247D02*
X544Y247D01*
X693Y247D02*
X694Y247D01*
X1066Y247D02*
X1073Y247D01*
X0Y246D02*
X7Y246D01*
X259Y246D02*
X266Y246D01*
X312Y246D02*
X320Y246D01*
X329Y246D02*
X336Y246D01*
X382Y246D02*
X390Y246D01*
X543Y246D02*
X544Y246D01*
X693Y246D02*
X694Y246D01*
X1066Y246D02*
X1073Y246D01*
X0Y245D02*
X7Y245D01*
X259Y245D02*
X267Y245D01*
X312Y245D02*
X320Y245D01*
X329Y245D02*
X337Y245D01*
X381Y245D02*
X390Y245D01*
X543Y245D02*
X544Y245D01*
X693Y245D02*
X694Y245D01*
X1066Y245D02*
X1073Y245D01*
X0Y244D02*
X7Y244D01*
X259Y244D02*
X268Y244D01*
X311Y244D02*
X319Y244D01*
X329Y244D02*
X338Y244D01*
X381Y244D02*
X389Y244D01*
X543Y244D02*
X544Y244D01*
X693Y244D02*
X694Y244D01*
X1066Y244D02*
X1073Y244D01*
X0Y243D02*
X7Y243D01*
X260Y243D02*
X268Y243D01*
X310Y243D02*
X319Y243D01*
X330Y243D02*
X338Y243D01*
X380Y243D02*
X389Y243D01*
X543Y243D02*
X544Y243D01*
X693Y243D02*
X694Y243D01*
X1066Y243D02*
X1073Y243D01*
X0Y242D02*
X7Y242D01*
X261Y242D02*
X268Y242D01*
X310Y242D02*
X318Y242D01*
X331Y242D02*
X338Y242D01*
X380Y242D02*
X388Y242D01*
X543Y242D02*
X544Y242D01*
X693Y242D02*
X694Y242D01*
X1066Y242D02*
X1073Y242D01*
X0Y241D02*
X7Y241D01*
X261Y241D02*
X267Y241D01*
X312Y241D02*
X317Y241D01*
X331Y241D02*
X337Y241D01*
X382Y241D02*
X387Y241D01*
X543Y241D02*
X544Y241D01*
X693Y241D02*
X694Y241D01*
X1066Y241D02*
X1073Y241D01*
X0Y240D02*
X7Y240D01*
X262Y240D02*
X265Y240D01*
X313Y240D02*
X317Y240D01*
X332Y240D02*
X335Y240D01*
X383Y240D02*
X387Y240D01*
X543Y240D02*
X544Y240D01*
X693Y240D02*
X694Y240D01*
X1066Y240D02*
X1073Y240D01*
X0Y239D02*
X7Y239D01*
X263Y239D02*
X264Y239D01*
X314Y239D02*
X316Y239D01*
X333Y239D02*
X334Y239D01*
X384Y239D02*
X386Y239D01*
X543Y239D02*
X544Y239D01*
X693Y239D02*
X694Y239D01*
X1066Y239D02*
X1073Y239D01*
X0Y238D02*
X7Y238D01*
X543Y238D02*
X544Y238D01*
X693Y238D02*
X694Y238D01*
X1066Y238D02*
X1073Y238D01*
X0Y237D02*
X7Y237D01*
X543Y237D02*
X544Y237D01*
X693Y237D02*
X694Y237D01*
X1066Y237D02*
X1073Y237D01*
X0Y236D02*
X7Y236D01*
X543Y236D02*
X544Y236D01*
X693Y236D02*
X694Y236D01*
X1066Y236D02*
X1073Y236D01*
X0Y235D02*
X7Y235D01*
X543Y235D02*
X544Y235D01*
X693Y235D02*
X694Y235D01*
X1066Y235D02*
X1073Y235D01*
X0Y234D02*
X7Y234D01*
X543Y234D02*
X544Y234D01*
X693Y234D02*
X694Y234D01*
X1066Y234D02*
X1073Y234D01*
X0Y233D02*
X7Y233D01*
X543Y233D02*
X544Y233D01*
X693Y233D02*
X694Y233D01*
X1066Y233D02*
X1073Y233D01*
X0Y232D02*
X7Y232D01*
X543Y232D02*
X544Y232D01*
X693Y232D02*
X694Y232D01*
X1066Y232D02*
X1073Y232D01*
X0Y231D02*
X7Y231D01*
X543Y231D02*
X544Y231D01*
X693Y231D02*
X694Y231D01*
X1066Y231D02*
X1073Y231D01*
X0Y230D02*
X7Y230D01*
X543Y230D02*
X544Y230D01*
X693Y230D02*
X694Y230D01*
X1066Y230D02*
X1073Y230D01*
X0Y229D02*
X7Y229D01*
X543Y229D02*
X544Y229D01*
X693Y229D02*
X694Y229D01*
X1066Y229D02*
X1073Y229D01*
X0Y228D02*
X7Y228D01*
X543Y228D02*
X544Y228D01*
X693Y228D02*
X694Y228D01*
X1066Y228D02*
X1073Y228D01*
X0Y227D02*
X7Y227D01*
X543Y227D02*
X544Y227D01*
X693Y227D02*
X694Y227D01*
X1066Y227D02*
X1073Y227D01*
X0Y226D02*
X7Y226D01*
X543Y226D02*
X544Y226D01*
X693Y226D02*
X694Y226D01*
X1066Y226D02*
X1073Y226D01*
X0Y225D02*
X7Y225D01*
X543Y225D02*
X544Y225D01*
X693Y225D02*
X694Y225D01*
X1066Y225D02*
X1073Y225D01*
X0Y224D02*
X7Y224D01*
X543Y224D02*
X544Y224D01*
X693Y224D02*
X694Y224D01*
X1066Y224D02*
X1073Y224D01*
X0Y223D02*
X7Y223D01*
X543Y223D02*
X544Y223D01*
X693Y223D02*
X694Y223D01*
X1066Y223D02*
X1073Y223D01*
X0Y222D02*
X7Y222D01*
X543Y222D02*
X544Y222D01*
X693Y222D02*
X694Y222D01*
X1066Y222D02*
X1073Y222D01*
X0Y221D02*
X7Y221D01*
X543Y221D02*
X544Y221D01*
X693Y221D02*
X694Y221D01*
X1066Y221D02*
X1073Y221D01*
X0Y220D02*
X7Y220D01*
X543Y220D02*
X544Y220D01*
X693Y220D02*
X694Y220D01*
X1066Y220D02*
X1073Y220D01*
X0Y219D02*
X7Y219D01*
X543Y219D02*
X544Y219D01*
X693Y219D02*
X694Y219D01*
X1066Y219D02*
X1073Y219D01*
X0Y218D02*
X7Y218D01*
X543Y218D02*
X544Y218D01*
X693Y218D02*
X694Y218D01*
X1066Y218D02*
X1073Y218D01*
X0Y217D02*
X7Y217D01*
X543Y217D02*
X544Y217D01*
X693Y217D02*
X694Y217D01*
X1066Y217D02*
X1073Y217D01*
X0Y216D02*
X7Y216D01*
X542Y216D02*
X544Y216D01*
X693Y216D02*
X694Y216D01*
X1066Y216D02*
X1073Y216D01*
X0Y215D02*
X7Y215D01*
X539Y215D02*
X544Y215D01*
X693Y215D02*
X698Y215D01*
X1066Y215D02*
X1073Y215D01*
X0Y214D02*
X7Y214D01*
X539Y214D02*
X544Y214D01*
X693Y214D02*
X698Y214D01*
X1066Y214D02*
X1073Y214D01*
X0Y213D02*
X7Y213D01*
X539Y213D02*
X544Y213D01*
X693Y213D02*
X698Y213D01*
X1066Y213D02*
X1073Y213D01*
X0Y212D02*
X7Y212D01*
X539Y212D02*
X544Y212D01*
X693Y212D02*
X698Y212D01*
X1066Y212D02*
X1073Y212D01*
X0Y211D02*
X7Y211D01*
X539Y211D02*
X544Y211D01*
X693Y211D02*
X698Y211D01*
X1066Y211D02*
X1073Y211D01*
X0Y210D02*
X7Y210D01*
X539Y210D02*
X544Y210D01*
X693Y210D02*
X698Y210D01*
X1066Y210D02*
X1073Y210D01*
X0Y209D02*
X7Y209D01*
X539Y209D02*
X544Y209D01*
X693Y209D02*
X698Y209D01*
X1066Y209D02*
X1073Y209D01*
X0Y208D02*
X7Y208D01*
X539Y208D02*
X544Y208D01*
X693Y208D02*
X698Y208D01*
X1066Y208D02*
X1073Y208D01*
X0Y207D02*
X7Y207D01*
X539Y207D02*
X544Y207D01*
X693Y207D02*
X698Y207D01*
X1066Y207D02*
X1073Y207D01*
X0Y206D02*
X7Y206D01*
X539Y206D02*
X544Y206D01*
X693Y206D02*
X698Y206D01*
X1066Y206D02*
X1073Y206D01*
X0Y205D02*
X7Y205D01*
X539Y205D02*
X544Y205D01*
X693Y205D02*
X698Y205D01*
X1066Y205D02*
X1073Y205D01*
X0Y204D02*
X7Y204D01*
X539Y204D02*
X544Y204D01*
X693Y204D02*
X698Y204D01*
X1066Y204D02*
X1073Y204D01*
X0Y203D02*
X7Y203D01*
X539Y203D02*
X544Y203D01*
X693Y203D02*
X698Y203D01*
X1066Y203D02*
X1073Y203D01*
X0Y202D02*
X7Y202D01*
X539Y202D02*
X544Y202D01*
X693Y202D02*
X698Y202D01*
X1066Y202D02*
X1073Y202D01*
X0Y201D02*
X7Y201D01*
X543Y201D02*
X544Y201D01*
X693Y201D02*
X694Y201D01*
X1066Y201D02*
X1073Y201D01*
X0Y200D02*
X7Y200D01*
X543Y200D02*
X544Y200D01*
X693Y200D02*
X694Y200D01*
X1066Y200D02*
X1073Y200D01*
X0Y199D02*
X7Y199D01*
X543Y199D02*
X544Y199D01*
X693Y199D02*
X694Y199D01*
X1066Y199D02*
X1073Y199D01*
X0Y198D02*
X7Y198D01*
X543Y198D02*
X544Y198D01*
X693Y198D02*
X694Y198D01*
X1066Y198D02*
X1073Y198D01*
X0Y197D02*
X7Y197D01*
X543Y197D02*
X544Y197D01*
X693Y197D02*
X694Y197D01*
X1066Y197D02*
X1073Y197D01*
X0Y196D02*
X7Y196D01*
X543Y196D02*
X544Y196D01*
X693Y196D02*
X694Y196D01*
X1066Y196D02*
X1073Y196D01*
X0Y195D02*
X7Y195D01*
X543Y195D02*
X544Y195D01*
X693Y195D02*
X694Y195D01*
X1066Y195D02*
X1073Y195D01*
X0Y194D02*
X7Y194D01*
X543Y194D02*
X544Y194D01*
X693Y194D02*
X694Y194D01*
X1066Y194D02*
X1073Y194D01*
X0Y193D02*
X7Y193D01*
X543Y193D02*
X544Y193D01*
X693Y193D02*
X694Y193D01*
X1066Y193D02*
X1073Y193D01*
X0Y192D02*
X7Y192D01*
X543Y192D02*
X544Y192D01*
X693Y192D02*
X694Y192D01*
X1066Y192D02*
X1073Y192D01*
X0Y191D02*
X7Y191D01*
X543Y191D02*
X544Y191D01*
X693Y191D02*
X694Y191D01*
X1066Y191D02*
X1073Y191D01*
X0Y190D02*
X7Y190D01*
X543Y190D02*
X544Y190D01*
X693Y190D02*
X694Y190D01*
X1066Y190D02*
X1073Y190D01*
X0Y189D02*
X7Y189D01*
X543Y189D02*
X544Y189D01*
X693Y189D02*
X694Y189D01*
X1066Y189D02*
X1073Y189D01*
X0Y188D02*
X7Y188D01*
X543Y188D02*
X544Y188D01*
X693Y188D02*
X694Y188D01*
X1066Y188D02*
X1073Y188D01*
X0Y187D02*
X7Y187D01*
X543Y187D02*
X544Y187D01*
X693Y187D02*
X694Y187D01*
X1066Y187D02*
X1073Y187D01*
X0Y186D02*
X7Y186D01*
X543Y186D02*
X544Y186D01*
X693Y186D02*
X694Y186D01*
X1066Y186D02*
X1073Y186D01*
X0Y185D02*
X7Y185D01*
X543Y185D02*
X544Y185D01*
X693Y185D02*
X694Y185D01*
X1066Y185D02*
X1073Y185D01*
X0Y184D02*
X7Y184D01*
X543Y184D02*
X544Y184D01*
X693Y184D02*
X694Y184D01*
X1066Y184D02*
X1073Y184D01*
X0Y183D02*
X7Y183D01*
X543Y183D02*
X544Y183D01*
X693Y183D02*
X694Y183D01*
X1066Y183D02*
X1073Y183D01*
X0Y182D02*
X7Y182D01*
X543Y182D02*
X544Y182D01*
X693Y182D02*
X694Y182D01*
X1066Y182D02*
X1073Y182D01*
X0Y181D02*
X7Y181D01*
X543Y181D02*
X544Y181D01*
X693Y181D02*
X694Y181D01*
X1066Y181D02*
X1073Y181D01*
X0Y180D02*
X7Y180D01*
X543Y180D02*
X544Y180D01*
X693Y180D02*
X694Y180D01*
X1066Y180D02*
X1073Y180D01*
X0Y179D02*
X7Y179D01*
X543Y179D02*
X544Y179D01*
X693Y179D02*
X694Y179D01*
X1066Y179D02*
X1073Y179D01*
X0Y178D02*
X7Y178D01*
X543Y178D02*
X544Y178D01*
X693Y178D02*
X694Y178D01*
X1066Y178D02*
X1073Y178D01*
X0Y177D02*
X7Y177D01*
X543Y177D02*
X544Y177D01*
X693Y177D02*
X694Y177D01*
X1066Y177D02*
X1073Y177D01*
X0Y176D02*
X7Y176D01*
X543Y176D02*
X544Y176D01*
X693Y176D02*
X694Y176D01*
X1066Y176D02*
X1073Y176D01*
X0Y175D02*
X7Y175D01*
X543Y175D02*
X544Y175D01*
X693Y175D02*
X694Y175D01*
X1066Y175D02*
X1073Y175D01*
X0Y174D02*
X7Y174D01*
X543Y174D02*
X544Y174D01*
X693Y174D02*
X694Y174D01*
X1066Y174D02*
X1073Y174D01*
X0Y173D02*
X7Y173D01*
X543Y173D02*
X544Y173D01*
X693Y173D02*
X694Y173D01*
X1066Y173D02*
X1073Y173D01*
X0Y172D02*
X7Y172D01*
X543Y172D02*
X544Y172D01*
X693Y172D02*
X694Y172D01*
X1066Y172D02*
X1073Y172D01*
X0Y171D02*
X7Y171D01*
X543Y171D02*
X544Y171D01*
X693Y171D02*
X694Y171D01*
X1066Y171D02*
X1073Y171D01*
X0Y170D02*
X7Y170D01*
X543Y170D02*
X544Y170D01*
X693Y170D02*
X694Y170D01*
X1066Y170D02*
X1073Y170D01*
X0Y169D02*
X7Y169D01*
X543Y169D02*
X544Y169D01*
X693Y169D02*
X694Y169D01*
X1066Y169D02*
X1073Y169D01*
X0Y168D02*
X7Y168D01*
X543Y168D02*
X544Y168D01*
X693Y168D02*
X694Y168D01*
X1066Y168D02*
X1073Y168D01*
X0Y167D02*
X7Y167D01*
X543Y167D02*
X544Y167D01*
X693Y167D02*
X694Y167D01*
X1066Y167D02*
X1073Y167D01*
X0Y166D02*
X7Y166D01*
X542Y166D02*
X544Y166D01*
X693Y166D02*
X694Y166D01*
X1066Y166D02*
X1073Y166D01*
X0Y165D02*
X7Y165D01*
X539Y165D02*
X544Y165D01*
X693Y165D02*
X698Y165D01*
X1066Y165D02*
X1073Y165D01*
X0Y164D02*
X7Y164D01*
X539Y164D02*
X544Y164D01*
X693Y164D02*
X698Y164D01*
X1066Y164D02*
X1073Y164D01*
X0Y163D02*
X7Y163D01*
X539Y163D02*
X544Y163D01*
X693Y163D02*
X698Y163D01*
X1066Y163D02*
X1073Y163D01*
X0Y162D02*
X7Y162D01*
X539Y162D02*
X544Y162D01*
X693Y162D02*
X698Y162D01*
X1066Y162D02*
X1073Y162D01*
X0Y161D02*
X7Y161D01*
X539Y161D02*
X544Y161D01*
X693Y161D02*
X698Y161D01*
X1066Y161D02*
X1073Y161D01*
X0Y160D02*
X7Y160D01*
X539Y160D02*
X544Y160D01*
X693Y160D02*
X698Y160D01*
X1066Y160D02*
X1073Y160D01*
X0Y159D02*
X7Y159D01*
X539Y159D02*
X544Y159D01*
X693Y159D02*
X698Y159D01*
X1066Y159D02*
X1073Y159D01*
X0Y158D02*
X7Y158D01*
X539Y158D02*
X544Y158D01*
X693Y158D02*
X698Y158D01*
X1066Y158D02*
X1073Y158D01*
X0Y157D02*
X7Y157D01*
X539Y157D02*
X544Y157D01*
X693Y157D02*
X698Y157D01*
X1066Y157D02*
X1073Y157D01*
X0Y156D02*
X7Y156D01*
X539Y156D02*
X544Y156D01*
X693Y156D02*
X698Y156D01*
X1066Y156D02*
X1073Y156D01*
X0Y155D02*
X7Y155D01*
X539Y155D02*
X544Y155D01*
X693Y155D02*
X698Y155D01*
X1066Y155D02*
X1073Y155D01*
X0Y154D02*
X7Y154D01*
X539Y154D02*
X544Y154D01*
X693Y154D02*
X698Y154D01*
X1066Y154D02*
X1073Y154D01*
X0Y153D02*
X7Y153D01*
X539Y153D02*
X544Y153D01*
X693Y153D02*
X698Y153D01*
X1066Y153D02*
X1073Y153D01*
X0Y152D02*
X7Y152D01*
X539Y152D02*
X544Y152D01*
X693Y152D02*
X698Y152D01*
X1066Y152D02*
X1073Y152D01*
X0Y151D02*
X7Y151D01*
X543Y151D02*
X544Y151D01*
X693Y151D02*
X694Y151D01*
X1066Y151D02*
X1073Y151D01*
X0Y150D02*
X7Y150D01*
X543Y150D02*
X544Y150D01*
X693Y150D02*
X694Y150D01*
X1066Y150D02*
X1073Y150D01*
X0Y149D02*
X7Y149D01*
X543Y149D02*
X544Y149D01*
X693Y149D02*
X694Y149D01*
X1066Y149D02*
X1073Y149D01*
X0Y148D02*
X7Y148D01*
X543Y148D02*
X544Y148D01*
X693Y148D02*
X694Y148D01*
X1066Y148D02*
X1073Y148D01*
X0Y147D02*
X7Y147D01*
X543Y147D02*
X544Y147D01*
X693Y147D02*
X694Y147D01*
X1066Y147D02*
X1073Y147D01*
X0Y146D02*
X7Y146D01*
X543Y146D02*
X544Y146D01*
X693Y146D02*
X694Y146D01*
X1066Y146D02*
X1073Y146D01*
X0Y145D02*
X7Y145D01*
X543Y145D02*
X544Y145D01*
X693Y145D02*
X694Y145D01*
X1066Y145D02*
X1073Y145D01*
X0Y144D02*
X7Y144D01*
X543Y144D02*
X544Y144D01*
X693Y144D02*
X694Y144D01*
X1066Y144D02*
X1073Y144D01*
X0Y143D02*
X7Y143D01*
X543Y143D02*
X544Y143D01*
X693Y143D02*
X694Y143D01*
X1066Y143D02*
X1073Y143D01*
X0Y142D02*
X7Y142D01*
X543Y142D02*
X544Y142D01*
X693Y142D02*
X694Y142D01*
X1066Y142D02*
X1073Y142D01*
X0Y141D02*
X7Y141D01*
X543Y141D02*
X544Y141D01*
X693Y141D02*
X694Y141D01*
X1066Y141D02*
X1073Y141D01*
X0Y140D02*
X7Y140D01*
X543Y140D02*
X544Y140D01*
X693Y140D02*
X694Y140D01*
X1066Y140D02*
X1073Y140D01*
X0Y139D02*
X7Y139D01*
X543Y139D02*
X544Y139D01*
X693Y139D02*
X694Y139D01*
X1066Y139D02*
X1073Y139D01*
X0Y138D02*
X7Y138D01*
X543Y138D02*
X544Y138D01*
X693Y138D02*
X694Y138D01*
X1066Y138D02*
X1073Y138D01*
X0Y137D02*
X7Y137D01*
X543Y137D02*
X544Y137D01*
X693Y137D02*
X694Y137D01*
X1066Y137D02*
X1073Y137D01*
X0Y136D02*
X7Y136D01*
X543Y136D02*
X544Y136D01*
X693Y136D02*
X694Y136D01*
X1066Y136D02*
X1073Y136D01*
X0Y135D02*
X7Y135D01*
X543Y135D02*
X544Y135D01*
X693Y135D02*
X694Y135D01*
X1066Y135D02*
X1073Y135D01*
X0Y134D02*
X7Y134D01*
X543Y134D02*
X544Y134D01*
X693Y134D02*
X694Y134D01*
X1066Y134D02*
X1073Y134D01*
X0Y133D02*
X7Y133D01*
X543Y133D02*
X544Y133D01*
X693Y133D02*
X694Y133D01*
X1066Y133D02*
X1073Y133D01*
X0Y132D02*
X7Y132D01*
X543Y132D02*
X544Y132D01*
X693Y132D02*
X694Y132D01*
X1066Y132D02*
X1073Y132D01*
X0Y131D02*
X7Y131D01*
X543Y131D02*
X544Y131D01*
X693Y131D02*
X694Y131D01*
X1066Y131D02*
X1073Y131D01*
X0Y130D02*
X7Y130D01*
X543Y130D02*
X544Y130D01*
X693Y130D02*
X694Y130D01*
X1066Y130D02*
X1073Y130D01*
X0Y129D02*
X7Y129D01*
X543Y129D02*
X544Y129D01*
X693Y129D02*
X694Y129D01*
X1066Y129D02*
X1073Y129D01*
X0Y128D02*
X7Y128D01*
X543Y128D02*
X544Y128D01*
X693Y128D02*
X694Y128D01*
X1066Y128D02*
X1073Y128D01*
X0Y127D02*
X7Y127D01*
X543Y127D02*
X544Y127D01*
X693Y127D02*
X694Y127D01*
X1066Y127D02*
X1073Y127D01*
X0Y126D02*
X7Y126D01*
X543Y126D02*
X544Y126D01*
X693Y126D02*
X694Y126D01*
X1066Y126D02*
X1073Y126D01*
X0Y125D02*
X7Y125D01*
X543Y125D02*
X544Y125D01*
X693Y125D02*
X694Y125D01*
X1066Y125D02*
X1073Y125D01*
X0Y124D02*
X7Y124D01*
X543Y124D02*
X544Y124D01*
X693Y124D02*
X694Y124D01*
X1066Y124D02*
X1073Y124D01*
X0Y123D02*
X7Y123D01*
X543Y123D02*
X544Y123D01*
X693Y123D02*
X694Y123D01*
X1066Y123D02*
X1073Y123D01*
X0Y122D02*
X7Y122D01*
X543Y122D02*
X544Y122D01*
X693Y122D02*
X694Y122D01*
X1066Y122D02*
X1073Y122D01*
X0Y121D02*
X7Y121D01*
X543Y121D02*
X544Y121D01*
X693Y121D02*
X694Y121D01*
X1066Y121D02*
X1073Y121D01*
X0Y120D02*
X7Y120D01*
X543Y120D02*
X544Y120D01*
X693Y120D02*
X694Y120D01*
X1066Y120D02*
X1073Y120D01*
X0Y119D02*
X7Y119D01*
X543Y119D02*
X544Y119D01*
X693Y119D02*
X694Y119D01*
X1066Y119D02*
X1073Y119D01*
X0Y118D02*
X7Y118D01*
X543Y118D02*
X544Y118D01*
X693Y118D02*
X694Y118D01*
X1066Y118D02*
X1073Y118D01*
X0Y117D02*
X7Y117D01*
X543Y117D02*
X544Y117D01*
X693Y117D02*
X694Y117D01*
X1066Y117D02*
X1073Y117D01*
X0Y116D02*
X7Y116D01*
X542Y116D02*
X544Y116D01*
X693Y116D02*
X694Y116D01*
X1066Y116D02*
X1073Y116D01*
X0Y115D02*
X7Y115D01*
X539Y115D02*
X544Y115D01*
X693Y115D02*
X698Y115D01*
X1066Y115D02*
X1073Y115D01*
X0Y114D02*
X7Y114D01*
X539Y114D02*
X544Y114D01*
X693Y114D02*
X698Y114D01*
X1066Y114D02*
X1073Y114D01*
X0Y113D02*
X7Y113D01*
X539Y113D02*
X544Y113D01*
X693Y113D02*
X698Y113D01*
X1066Y113D02*
X1073Y113D01*
X0Y112D02*
X7Y112D01*
X539Y112D02*
X544Y112D01*
X693Y112D02*
X698Y112D01*
X1066Y112D02*
X1073Y112D01*
X0Y111D02*
X7Y111D01*
X539Y111D02*
X544Y111D01*
X693Y111D02*
X698Y111D01*
X1066Y111D02*
X1073Y111D01*
X0Y110D02*
X7Y110D01*
X539Y110D02*
X544Y110D01*
X693Y110D02*
X698Y110D01*
X1066Y110D02*
X1073Y110D01*
X0Y109D02*
X7Y109D01*
X539Y109D02*
X544Y109D01*
X693Y109D02*
X698Y109D01*
X1066Y109D02*
X1073Y109D01*
X0Y108D02*
X7Y108D01*
X539Y108D02*
X544Y108D01*
X693Y108D02*
X698Y108D01*
X1066Y108D02*
X1073Y108D01*
X0Y107D02*
X7Y107D01*
X539Y107D02*
X544Y107D01*
X693Y107D02*
X698Y107D01*
X1066Y107D02*
X1073Y107D01*
X0Y106D02*
X7Y106D01*
X539Y106D02*
X544Y106D01*
X693Y106D02*
X698Y106D01*
X1066Y106D02*
X1073Y106D01*
X0Y105D02*
X7Y105D01*
X539Y105D02*
X544Y105D01*
X693Y105D02*
X698Y105D01*
X1066Y105D02*
X1073Y105D01*
X0Y104D02*
X7Y104D01*
X539Y104D02*
X544Y104D01*
X693Y104D02*
X698Y104D01*
X1066Y104D02*
X1073Y104D01*
X0Y103D02*
X7Y103D01*
X539Y103D02*
X544Y103D01*
X693Y103D02*
X698Y103D01*
X1066Y103D02*
X1073Y103D01*
X0Y102D02*
X7Y102D01*
X539Y102D02*
X544Y102D01*
X693Y102D02*
X698Y102D01*
X1066Y102D02*
X1073Y102D01*
X0Y101D02*
X7Y101D01*
X543Y101D02*
X544Y101D01*
X693Y101D02*
X694Y101D01*
X1066Y101D02*
X1073Y101D01*
X0Y100D02*
X7Y100D01*
X543Y100D02*
X544Y100D01*
X693Y100D02*
X694Y100D01*
X1066Y100D02*
X1073Y100D01*
X0Y99D02*
X7Y99D01*
X543Y99D02*
X544Y99D01*
X693Y99D02*
X694Y99D01*
X1066Y99D02*
X1073Y99D01*
X0Y98D02*
X7Y98D01*
X543Y98D02*
X544Y98D01*
X693Y98D02*
X694Y98D01*
X1066Y98D02*
X1073Y98D01*
X0Y97D02*
X7Y97D01*
X543Y97D02*
X544Y97D01*
X693Y97D02*
X694Y97D01*
X1066Y97D02*
X1073Y97D01*
X0Y96D02*
X7Y96D01*
X543Y96D02*
X544Y96D01*
X693Y96D02*
X694Y96D01*
X1066Y96D02*
X1073Y96D01*
X0Y95D02*
X7Y95D01*
X543Y95D02*
X544Y95D01*
X693Y95D02*
X694Y95D01*
X1066Y95D02*
X1073Y95D01*
X0Y94D02*
X7Y94D01*
X543Y94D02*
X544Y94D01*
X693Y94D02*
X694Y94D01*
X1066Y94D02*
X1073Y94D01*
X0Y93D02*
X7Y93D01*
X543Y93D02*
X544Y93D01*
X693Y93D02*
X694Y93D01*
X1066Y93D02*
X1073Y93D01*
X0Y92D02*
X7Y92D01*
X543Y92D02*
X544Y92D01*
X693Y92D02*
X694Y92D01*
X1066Y92D02*
X1073Y92D01*
X0Y91D02*
X7Y91D01*
X543Y91D02*
X544Y91D01*
X693Y91D02*
X694Y91D01*
X1066Y91D02*
X1073Y91D01*
X0Y90D02*
X7Y90D01*
X543Y90D02*
X544Y90D01*
X693Y90D02*
X694Y90D01*
X1066Y90D02*
X1073Y90D01*
X0Y89D02*
X7Y89D01*
X543Y89D02*
X544Y89D01*
X693Y89D02*
X694Y89D01*
X1066Y89D02*
X1073Y89D01*
X0Y88D02*
X7Y88D01*
X543Y88D02*
X544Y88D01*
X693Y88D02*
X694Y88D01*
X1066Y88D02*
X1073Y88D01*
X0Y87D02*
X7Y87D01*
X543Y87D02*
X544Y87D01*
X693Y87D02*
X694Y87D01*
X1066Y87D02*
X1073Y87D01*
X0Y86D02*
X7Y86D01*
X543Y86D02*
X544Y86D01*
X693Y86D02*
X694Y86D01*
X1066Y86D02*
X1073Y86D01*
X0Y85D02*
X7Y85D01*
X543Y85D02*
X544Y85D01*
X693Y85D02*
X694Y85D01*
X1066Y85D02*
X1073Y85D01*
X0Y84D02*
X7Y84D01*
X543Y84D02*
X544Y84D01*
X693Y84D02*
X694Y84D01*
X1066Y84D02*
X1073Y84D01*
X0Y83D02*
X7Y83D01*
X543Y83D02*
X544Y83D01*
X693Y83D02*
X694Y83D01*
X1066Y83D02*
X1073Y83D01*
X0Y82D02*
X7Y82D01*
X543Y82D02*
X544Y82D01*
X693Y82D02*
X694Y82D01*
X1066Y82D02*
X1073Y82D01*
X0Y81D02*
X7Y81D01*
X543Y81D02*
X544Y81D01*
X693Y81D02*
X694Y81D01*
X1066Y81D02*
X1073Y81D01*
X0Y80D02*
X7Y80D01*
X543Y80D02*
X544Y80D01*
X693Y80D02*
X694Y80D01*
X1066Y80D02*
X1073Y80D01*
X0Y79D02*
X7Y79D01*
X543Y79D02*
X544Y79D01*
X693Y79D02*
X694Y79D01*
X1066Y79D02*
X1073Y79D01*
X0Y78D02*
X7Y78D01*
X543Y78D02*
X544Y78D01*
X693Y78D02*
X694Y78D01*
X1066Y78D02*
X1073Y78D01*
X0Y77D02*
X7Y77D01*
X543Y77D02*
X544Y77D01*
X693Y77D02*
X694Y77D01*
X1066Y77D02*
X1073Y77D01*
X0Y76D02*
X7Y76D01*
X543Y76D02*
X544Y76D01*
X693Y76D02*
X694Y76D01*
X1066Y76D02*
X1073Y76D01*
X0Y75D02*
X7Y75D01*
X543Y75D02*
X544Y75D01*
X693Y75D02*
X694Y75D01*
X1066Y75D02*
X1073Y75D01*
X0Y74D02*
X7Y74D01*
X543Y74D02*
X544Y74D01*
X693Y74D02*
X694Y74D01*
X1066Y74D02*
X1073Y74D01*
X0Y73D02*
X7Y73D01*
X543Y73D02*
X544Y73D01*
X693Y73D02*
X694Y73D01*
X1066Y73D02*
X1073Y73D01*
X0Y72D02*
X7Y72D01*
X543Y72D02*
X544Y72D01*
X693Y72D02*
X694Y72D01*
X1066Y72D02*
X1073Y72D01*
X0Y71D02*
X7Y71D01*
X543Y71D02*
X544Y71D01*
X693Y71D02*
X694Y71D01*
X1066Y71D02*
X1073Y71D01*
X0Y70D02*
X7Y70D01*
X543Y70D02*
X544Y70D01*
X693Y70D02*
X694Y70D01*
X1066Y70D02*
X1073Y70D01*
X0Y69D02*
X7Y69D01*
X543Y69D02*
X544Y69D01*
X693Y69D02*
X694Y69D01*
X1066Y69D02*
X1073Y69D01*
X0Y68D02*
X7Y68D01*
X543Y68D02*
X544Y68D01*
X693Y68D02*
X694Y68D01*
X1066Y68D02*
X1073Y68D01*
X0Y67D02*
X7Y67D01*
X543Y67D02*
X544Y67D01*
X693Y67D02*
X694Y67D01*
X1066Y67D02*
X1073Y67D01*
X0Y66D02*
X7Y66D01*
X542Y66D02*
X544Y66D01*
X693Y66D02*
X694Y66D01*
X1066Y66D02*
X1073Y66D01*
X0Y65D02*
X7Y65D01*
X539Y65D02*
X544Y65D01*
X693Y65D02*
X698Y65D01*
X1066Y65D02*
X1073Y65D01*
X0Y64D02*
X7Y64D01*
X539Y64D02*
X544Y64D01*
X693Y64D02*
X698Y64D01*
X1066Y64D02*
X1073Y64D01*
X0Y63D02*
X7Y63D01*
X539Y63D02*
X544Y63D01*
X693Y63D02*
X698Y63D01*
X1066Y63D02*
X1073Y63D01*
X0Y62D02*
X7Y62D01*
X539Y62D02*
X544Y62D01*
X693Y62D02*
X698Y62D01*
X1066Y62D02*
X1073Y62D01*
X0Y61D02*
X7Y61D01*
X539Y61D02*
X544Y61D01*
X693Y61D02*
X698Y61D01*
X1066Y61D02*
X1073Y61D01*
X0Y60D02*
X7Y60D01*
X539Y60D02*
X544Y60D01*
X693Y60D02*
X698Y60D01*
X1066Y60D02*
X1073Y60D01*
X0Y59D02*
X7Y59D01*
X539Y59D02*
X544Y59D01*
X693Y59D02*
X698Y59D01*
X1066Y59D02*
X1073Y59D01*
X0Y58D02*
X7Y58D01*
X539Y58D02*
X544Y58D01*
X693Y58D02*
X698Y58D01*
X1066Y58D02*
X1073Y58D01*
X0Y57D02*
X7Y57D01*
X539Y57D02*
X544Y57D01*
X693Y57D02*
X698Y57D01*
X1066Y57D02*
X1073Y57D01*
X0Y56D02*
X7Y56D01*
X539Y56D02*
X544Y56D01*
X693Y56D02*
X698Y56D01*
X1066Y56D02*
X1073Y56D01*
X0Y55D02*
X7Y55D01*
X539Y55D02*
X544Y55D01*
X693Y55D02*
X698Y55D01*
X1066Y55D02*
X1073Y55D01*
X0Y54D02*
X7Y54D01*
X539Y54D02*
X544Y54D01*
X693Y54D02*
X698Y54D01*
X1066Y54D02*
X1073Y54D01*
X0Y53D02*
X7Y53D01*
X539Y53D02*
X544Y53D01*
X693Y53D02*
X698Y53D01*
X1066Y53D02*
X1073Y53D01*
X0Y52D02*
X7Y52D01*
X539Y52D02*
X544Y52D01*
X693Y52D02*
X698Y52D01*
X1066Y52D02*
X1073Y52D01*
X0Y51D02*
X7Y51D01*
X543Y51D02*
X544Y51D01*
X693Y51D02*
X694Y51D01*
X1066Y51D02*
X1073Y51D01*
X0Y50D02*
X7Y50D01*
X543Y50D02*
X544Y50D01*
X693Y50D02*
X694Y50D01*
X1066Y50D02*
X1073Y50D01*
X0Y49D02*
X7Y49D01*
X543Y49D02*
X544Y49D01*
X693Y49D02*
X694Y49D01*
X1066Y49D02*
X1073Y49D01*
X0Y48D02*
X7Y48D01*
X543Y48D02*
X544Y48D01*
X693Y48D02*
X694Y48D01*
X1066Y48D02*
X1073Y48D01*
X0Y47D02*
X7Y47D01*
X543Y47D02*
X544Y47D01*
X693Y47D02*
X694Y47D01*
X1066Y47D02*
X1073Y47D01*
X0Y46D02*
X7Y46D01*
X543Y46D02*
X544Y46D01*
X693Y46D02*
X694Y46D01*
X1066Y46D02*
X1073Y46D01*
X0Y45D02*
X7Y45D01*
X543Y45D02*
X544Y45D01*
X693Y45D02*
X694Y45D01*
X1066Y45D02*
X1073Y45D01*
X0Y44D02*
X7Y44D01*
X543Y44D02*
X544Y44D01*
X693Y44D02*
X694Y44D01*
X1066Y44D02*
X1073Y44D01*
X0Y43D02*
X7Y43D01*
X543Y43D02*
X544Y43D01*
X693Y43D02*
X694Y43D01*
X1066Y43D02*
X1073Y43D01*
X0Y42D02*
X7Y42D01*
X543Y42D02*
X544Y42D01*
X693Y42D02*
X694Y42D01*
X1066Y42D02*
X1073Y42D01*
X0Y41D02*
X7Y41D01*
X543Y41D02*
X544Y41D01*
X693Y41D02*
X694Y41D01*
X1066Y41D02*
X1073Y41D01*
X0Y40D02*
X7Y40D01*
X543Y40D02*
X544Y40D01*
X693Y40D02*
X694Y40D01*
X1066Y40D02*
X1073Y40D01*
X0Y39D02*
X7Y39D01*
X543Y39D02*
X544Y39D01*
X693Y39D02*
X694Y39D01*
X1066Y39D02*
X1073Y39D01*
X0Y38D02*
X7Y38D01*
X543Y38D02*
X544Y38D01*
X693Y38D02*
X694Y38D01*
X1066Y38D02*
X1073Y38D01*
X0Y37D02*
X7Y37D01*
X543Y37D02*
X544Y37D01*
X693Y37D02*
X694Y37D01*
X1066Y37D02*
X1073Y37D01*
X0Y36D02*
X7Y36D01*
X543Y36D02*
X544Y36D01*
X693Y36D02*
X694Y36D01*
X1066Y36D02*
X1073Y36D01*
X0Y35D02*
X7Y35D01*
X543Y35D02*
X544Y35D01*
X693Y35D02*
X694Y35D01*
X1066Y35D02*
X1073Y35D01*
X0Y34D02*
X7Y34D01*
X543Y34D02*
X544Y34D01*
X693Y34D02*
X694Y34D01*
X1066Y34D02*
X1073Y34D01*
X0Y33D02*
X7Y33D01*
X543Y33D02*
X544Y33D01*
X693Y33D02*
X694Y33D01*
X1066Y33D02*
X1073Y33D01*
X0Y32D02*
X7Y32D01*
X543Y32D02*
X544Y32D01*
X693Y32D02*
X694Y32D01*
X1066Y32D02*
X1073Y32D01*
X0Y31D02*
X7Y31D01*
X543Y31D02*
X544Y31D01*
X693Y31D02*
X694Y31D01*
X1066Y31D02*
X1073Y31D01*
X0Y30D02*
X7Y30D01*
X543Y30D02*
X544Y30D01*
X693Y30D02*
X694Y30D01*
X1066Y30D02*
X1073Y30D01*
X0Y29D02*
X7Y29D01*
X543Y29D02*
X544Y29D01*
X693Y29D02*
X694Y29D01*
X1066Y29D02*
X1073Y29D01*
X0Y28D02*
X7Y28D01*
X543Y28D02*
X544Y28D01*
X693Y28D02*
X694Y28D01*
X1066Y28D02*
X1073Y28D01*
X0Y27D02*
X7Y27D01*
X543Y27D02*
X544Y27D01*
X693Y27D02*
X694Y27D01*
X1066Y27D02*
X1073Y27D01*
X0Y26D02*
X7Y26D01*
X543Y26D02*
X544Y26D01*
X693Y26D02*
X694Y26D01*
X1066Y26D02*
X1073Y26D01*
X0Y25D02*
X7Y25D01*
X543Y25D02*
X544Y25D01*
X693Y25D02*
X694Y25D01*
X1066Y25D02*
X1073Y25D01*
X0Y24D02*
X7Y24D01*
X543Y24D02*
X544Y24D01*
X693Y24D02*
X694Y24D01*
X1066Y24D02*
X1073Y24D01*
X0Y23D02*
X7Y23D01*
X543Y23D02*
X544Y23D01*
X692Y23D02*
X694Y23D01*
X1066Y23D02*
X1073Y23D01*
X0Y22D02*
X7Y22D01*
X543Y22D02*
X544Y22D01*
X692Y22D02*
X694Y22D01*
X1066Y22D02*
X1073Y22D01*
X0Y21D02*
X7Y21D01*
X543Y21D02*
X544Y21D01*
X692Y21D02*
X694Y21D01*
X1066Y21D02*
X1073Y21D01*
X0Y20D02*
X7Y20D01*
X543Y20D02*
X544Y20D01*
X692Y20D02*
X694Y20D01*
X1066Y20D02*
X1073Y20D01*
X0Y19D02*
X7Y19D01*
X543Y19D02*
X545Y19D01*
X692Y19D02*
X694Y19D01*
X1066Y19D02*
X1073Y19D01*
X0Y18D02*
X7Y18D01*
X543Y18D02*
X545Y18D01*
X691Y18D02*
X694Y18D01*
X1066Y18D02*
X1073Y18D01*
X0Y17D02*
X7Y17D01*
X543Y17D02*
X546Y17D01*
X691Y17D02*
X694Y17D01*
X1066Y17D02*
X1073Y17D01*
X0Y16D02*
X7Y16D01*
X542Y16D02*
X546Y16D01*
X690Y16D02*
X694Y16D01*
X1066Y16D02*
X1073Y16D01*
X0Y15D02*
X7Y15D01*
X541Y15D02*
X547Y15D01*
X689Y15D02*
X695Y15D01*
X1066Y15D02*
X1073Y15D01*
X0Y14D02*
X7Y14D01*
X542Y14D02*
X549Y14D01*
X688Y14D02*
X694Y14D01*
X1066Y14D02*
X1073Y14D01*
X0Y13D02*
X7Y13D01*
X543Y13D02*
X550Y13D01*
X686Y13D02*
X694Y13D01*
X1066Y13D02*
X1073Y13D01*
X0Y12D02*
X7Y12D01*
X544Y12D02*
X555Y12D01*
X682Y12D02*
X693Y12D01*
X1066Y12D02*
X1073Y12D01*
X0Y11D02*
X7Y11D01*
X544Y11D02*
X556Y11D01*
X681Y11D02*
X692Y11D01*
X1066Y11D02*
X1073Y11D01*
X0Y10D02*
X7Y10D01*
X546Y10D02*
X556Y10D01*
X681Y10D02*
X691Y10D01*
X1066Y10D02*
X1073Y10D01*
X0Y9D02*
X7Y9D01*
X547Y9D02*
X556Y9D01*
X681Y9D02*
X689Y9D01*
X1066Y9D02*
X1073Y9D01*
X0Y8D02*
X87Y8D01*
X122Y8D02*
X187Y8D01*
X222Y8D02*
X891Y8D01*
X927Y8D02*
X991Y8D01*
X1026Y8D02*
X1073Y8D01*
X0Y7D02*
X89Y7D01*
X120Y7D02*
X189Y7D01*
X220Y7D02*
X893Y7D01*
X925Y7D02*
X993Y7D01*
X1024Y7D02*
X1073Y7D01*
X0Y6D02*
X91Y6D01*
X118Y6D02*
X191Y6D01*
X218Y6D02*
X896Y6D01*
X922Y6D02*
X996Y6D01*
X1022Y6D02*
X1073Y6D01*
X0Y5D02*
X94Y5D01*
X115Y5D02*
X194Y5D01*
X215Y5D02*
X899Y5D01*
X919Y5D02*
X998Y5D01*
X1019Y5D02*
X1073Y5D01*
X0Y4D02*
X98Y4D01*
X111Y4D02*
X198Y4D01*
X211Y4D02*
X903Y4D01*
X915Y4D02*
X1003Y4D01*
X1015Y4D02*
X1073Y4D01*
X0Y3D02*
X1073Y3D01*
X0Y2D02*
X1073Y2D01*
X0Y1D02*
X1073Y1D01*
D02*
G04 End of Silk1*
M02*